<?xml version="1.0" encoding="UTF-8" standalone="no"?>
<svg
   xmlns:dc="http://purl.org/dc/elements/1.1/"
   xmlns:cc="http://creativecommons.org/ns#"
   xmlns:rdf="http://www.w3.org/1999/02/22-rdf-syntax-ns#"
   xmlns:svg="http://www.w3.org/2000/svg"
   xmlns="http://www.w3.org/2000/svg"
   width="20"
   height="20"
   viewBox="0 0 5.2916665 5.2916668"
   version="1.1"
   id="svg1021">
  <defs
     id="defs1015" />
  <metadata
     id="metadata1018">
    <rdf:RDF>
      <cc:Work
         rdf:about="">
        <dc:format>image/svg+xml</dc:format>
        <dc:type
           rdf:resource="http://purl.org/dc/dcmitype/StillImage" />
        <dc:title></dc:title>
      </cc:Work>
    </rdf:RDF>
  </metadata>
  <g
     id="layer1">
    <path
       id="path4178-1"
       style="fill:#000000;stroke:none;stroke-width:0.269;stroke-miterlimit:4;stroke-dasharray:none"
       d="m -11.840605,-6.2419889 c 0.03303,0.1273557 0.04776,0.3407155 0.03272,0.4741302 -0.02621,0.2325909 -0.03008,0.237631 -0.09391,0.1224794 -0.06025,-0.1086876 -0.100058,-0.068864 -0.07435,0.074372 0.0043,0.023741 -0.0126,0.069126 -0.0375,0.1008831 -0.02487,0.031757 -0.0575,0.1712336 -0.07248,0.3099475 -0.02699,0.2497846 -0.02669,0.250428 0.03086,0.067181 0.178177,-0.5673817 0.153656,-0.1028671 -0.06168,1.1686262 -0.07283,0.4300082 -0.125366,0.8797032 -0.116751,0.9993171 0.01376,0.1911617 0.02904,0.2155819 0.126101,0.2017663 0.07309,-0.010396 0.116344,-0.057548 0.127895,-0.139408 0.01525,-0.1081812 0.0074,-0.1153125 -0.06305,-0.056877 -0.07008,0.058164 -0.08051,0.050404 -0.08051,-0.05994 0,-0.069716 0.05497,-0.3392023 0.122149,-0.5988586 0.06718,-0.2596564 0.136465,-0.630991 0.153962,-0.8251911 0.0393,-0.4361832 0.07825,-0.6460518 0.113391,-0.6109109 0.03781,0.037813 0.333525,-0.1198611 0.38289,-0.2041583 0.03381,-0.057726 0.06509,-0.05285 0.178353,0.027792 0.07555,0.053791 0.169556,0.1621422 0.208909,0.2407737 0.03936,0.078634 0.113689,0.1912957 0.165184,0.2503595 0.09302,0.1066918 0.09068,0.1103914 -0.3634,0.5732022 -0.251366,0.2561979 -0.456349,0.4916038 -0.455521,0.5231255 8.93e-4,0.031519 0.08594,-0.037208 0.189154,-0.1527292 0.103206,-0.1155239 0.278083,-0.2857626 0.388618,-0.378308 l 0.200967,-0.1682697 -0.159091,0.2017633 c -0.181153,0.2297492 -0.707859,0.7455201 -0.643881,0.6305144 0.03627,-0.065206 0.0303,-0.066094 -0.04325,-0.00643 -0.04694,0.038075 -0.08535,0.093579 -0.08535,0.1233433 0,0.029758 -0.06099,0.1177789 -0.135538,0.1955882 -0.12301,0.1283954 -0.126507,0.1420264 -0.03783,0.1474478 0.05374,0.00331 0.126081,0.00238 0.16076,-0.00209 0.09119,-0.011826 0.07755,0.1344304 -0.01749,0.1876229 -0.05114,0.028626 0.257329,0.057848 0.844886,0.080058 0.508992,0.019243 1.1864701,0.066478 1.5055091,0.1049701 0.319038,0.038495 0.614119,0.070213 0.655732,0.07049 0.04161,2.502e-4 0.243786,0.01692 0.44927,0.036982 0.277955,0.027137 0.364361,0.021537 0.337498,-0.021924 -0.01987,-0.032132 -0.144928,-0.05842 -0.277934,-0.05842 -0.133007,0 -0.387024,-0.017009 -0.564484,-0.037813 l -0.322658,-0.037813 0.504413,-0.027763 c 0.313495,-0.017247 0.599869,-0.00506 0.756616,0.032237 0.138711,0.032999 0.202472,0.06251 0.141687,0.065578 -0.06078,0.00307 -0.125107,0.029192 -0.142938,0.058039 -0.02148,0.034751 0.01585,0.039695 0.110514,0.014656 0.07862,-0.020792 0.194012,-0.035457 0.256433,-0.032579 0.06242,0.00298 0.114213,-0.020732 0.115095,-0.05248 8.94e-4,-0.031742 0.03493,-0.013643 0.07566,0.040199 0.06213,0.082137 0.07406,0.084649 0.07406,0.015579 0,-0.045281 -0.02478,-0.097639 -0.05506,-0.1163551 -0.06706,-0.041444 -0.0272,-0.5488922 0.083,-1.0564088 0.161451,-0.7436434 0.182246,-0.8633198 0.249805,-1.4375705 0.01796,-0.1525832 0.04264,-0.3586747 0.05486,-0.4579761 0.01594,-0.1294856 -0.003,-0.2031812 -0.06692,-0.260556 -0.228739,-0.205305 -1.632441,-0.40669 -3.2669251,-0.4687028 -0.443884,-0.01683 -0.989636,-0.046434 -1.212784,-0.065766 l -0.405725,-0.035147 0.06006,0.2315573 z m 2.1132941,0.045927 c 0.05549,0.024426 0.407312,0.059701 0.781837,0.078402 1.175907,0.058712 1.281374,0.068629 1.484955,0.1396135 l 0.198707,0.06929 -0.955323,0.5465895 c -0.525429,0.3006238 -1.057467,0.6003838 -1.182308,0.6661319 -0.124842,0.065745 -0.317779,0.1759848 -0.428748,0.2449709 -0.3982431,0.2475743 -0.4152521,0.2513753 -0.5277491,0.1179755 -0.05608,-0.066502 -0.115956,-0.1719842 -0.133054,-0.234405 -0.0171,-0.062421 -0.04951,-0.1134924 -0.07202,-0.1134924 -0.03903,0 -0.293746,-0.3261671 -0.818244,-1.0477703 -0.361317,-0.4970938 -0.353161,-0.5098967 0.335639,-0.5269116 0.727787,-0.017992 1.1873041,0.00298 1.3163041,0.059606 z m 2.525313,1.0735786 c -0.06941,0.3758326 -0.16429,1.0318188 -0.210834,1.4577459 -0.04654,0.4259242 -0.09069,0.7819061 -0.0981,0.7910719 -0.02815,0.034804 -0.757444,-0.7648614 -0.837329,-0.9181268 -0.07115,-0.1365155 -0.76437,-0.8387536 -0.827977,-0.8387536 -0.0118,0 -0.02145,0.036827 -0.02145,0.08184 0,0.067077 -0.01367,0.070496 -0.07577,0.018945 -0.06475,-0.053738 -0.04456,-0.080443 0.138711,-0.1835181 0.11797,-0.066347 0.362026,-0.1905005 0.542354,-0.2758938 0.531007,-0.2514647 1.282455,-0.6858606 1.387786,-0.8022484 0.05371,-0.059344 0.104657,-0.086862 0.113227,-0.061152 0.0086,0.025707 -0.04121,0.3542482 -0.110624,0.7300808 z m -0.835361,-0.075525 c 1.02e-4,0.020792 0.130615,0.1059263 0.290037,0.189154 0.159423,0.083228 0.304047,0.1707688 0.321387,0.1945397 0.01734,0.023771 0.04524,0.02103 0.062,-0.00608 0.01677,-0.027107 -0.102992,-0.1316869 -0.266114,-0.2323704 -0.290356,-0.1792197 -0.407661,-0.2210451 -0.407307,-0.1452346 z m -0.06597,0.5261222 c -0.124461,0.045379 -0.139608,0.073681 -0.126102,0.2356114 0.0129,0.1546923 0.03581,0.1864225 0.143641,0.1989931 0.151529,0.017664 0.378615,-0.1562919 0.322518,-0.2470561 -0.02392,-0.038695 -0.01641,-0.047786 0.02058,-0.024932 0.08288,0.05122 0.07226,-0.064024 -0.01382,-0.1501109 -0.08256,-0.08256 -0.148222,-0.084932 -0.346822,-0.012511 z m -3.3188041,-0.8626346 c 0.06314,0.085411 0.107135,0.1609566 0.09776,0.1678853 -0.0094,0.00694 -0.10657,0.078912 -0.215981,0.1599677 -0.13191,0.097726 -0.188508,0.1198075 -0.167993,0.065552 0.01701,-0.045004 0.04669,-0.1868693 0.06594,-0.3152587 0.01924,-0.1283894 0.05086,-0.2334339 0.07023,-0.2334339 0.01936,0 0.08689,0.06988 0.150037,0.155288 z m 1.9933411,1.0859168 c 0.04388,0.01683 0.07979,0.062948 0.07979,0.1024649 0,0.039517 0.03405,0.084914 0.07566,0.1008801 0.04161,0.015966 0.07566,0.050646 0.07566,0.077056 0,0.026422 -0.0227,0.033994 -0.05044,0.01686 -0.02773,-0.017158 -0.05044,-0.00715 -0.05044,0.022252 0,0.029371 0.04948,0.053419 0.109944,0.053419 0.07397,0 0.306299,0.2003275 0.709983,0.6121858 l 0.600036,0.6121858 -0.344285,-0.031793 c -0.189356,-0.017486 -0.514522,-0.044932 -0.722592,-0.060997 -0.208069,-0.016056 -0.469102,-0.036604 -0.580071,-0.045644 -0.110972,-0.00906 -0.6138871,-0.018737 -1.1175931,-0.021567 -0.912,-0.00509 -0.915708,-0.00557 -0.887383,-0.1138856 0.01948,-0.074527 0.01007,-0.09741 -0.02994,-0.072686 -0.03211,0.019839 -0.05839,0.081482 -0.05839,0.1369654 0,0.055486 -0.0227,0.086856 -0.05044,0.06971 -0.08059,-0.049812 -0.06083,-0.099543 0.113493,-0.285563 0.09016,-0.096212 0.340724,-0.3643285 0.556804,-0.5958114 l 0.392871,-0.4208781 0.164382,0.1593243 c 0.171916,0.1666283 0.278584,0.1966874 0.370784,0.1044905 0.03949,-0.039487 0.06435,-0.039433 0.08885,2.025e-4 0.0357,0.057774 0.215239,-0.1281332 0.324743,-0.3362741 0.06293,-0.1196049 0.09888,-0.1326431 0.228579,-0.082876 z m -0.9794761,0.8257183 c 0,0.07576 0.209657,0.1928388 0.378308,0.2112568 0.08323,0.00909 0.1652431,0.035621 0.1822551,0.058959 0.04437,0.060872 0.318947,0.068253 0.33906,0.00912 0.0093,-0.027316 -0.149593,-0.1112732 -0.353087,-0.1865327 -0.3953941,-0.1462324 -0.5465361,-0.1718948 -0.5465361,-0.092799 z m -0.353086,0.7073377 c 0,0.027733 -0.01001,0.05044 -0.02225,0.05044 -0.01224,0 -0.03627,-0.022699 -0.05342,-0.05044 -0.01716,-0.027733 -0.0071,-0.050443 0.02225,-0.050443 0.02937,0 0.05342,0.022698 0.05342,0.050443 z m 1.8377871,0.095524 c 0.01534,0.024784 -0.02871,0.041819 -0.09787,0.037831 -0.06915,-0.00399 -0.12575,-0.024277 -0.125768,-0.045084 -5.1e-5,-0.053398 0.189961,-0.047235 0.223636,0.00724 z m -0.664073,0.038445 c -0.03415,0.013822 -0.102245,0.014656 -0.151323,0.00179 -0.04908,-0.012779 -0.02115,-0.024099 0.06209,-0.025111 0.08323,-8.936e-4 0.123382,0.00944 0.08923,0.023264 z m -2.5276611,-2.0003202 c 0,0.069359 0.01144,0.097732 0.02544,0.063052 0.014,-0.034679 0.014,-0.091425 0,-0.1261017 -0.014,-0.034679 -0.02544,-0.00632 -0.02544,0.06305 z m 0.574969,0.1625474 c -0.102921,0.1469414 -0.09906,0.2067617 0.02031,0.3148029 0.06726,0.060869 0.139798,0.079183 0.226985,0.0573 0.104648,-0.026273 0.128136,-0.062495 0.128136,-0.1976556 0,-0.2845501 -0.225078,-0.38913 -0.375448,-0.1744476 z m -0.629392,0.1695237 c 0.0024,0.05876 0.01436,0.070714 0.03048,0.030476 0.01457,-0.036413 0.01278,-0.079918 -0.004,-0.09668 -0.01677,-0.016771 -0.02869,0.013047 -0.02648,0.066204 z" />
    <path
       id="path1489-4"
       style="fill:#000000;stroke-width:0.169333"
       d="m 1.1025636,4.6436206 c -0.05787,-0.015444 -0.10521401,-0.053164 -0.10521401,-0.083801 0,-0.083755 -0.225715,-0.067011 -0.262044,0.019421 -0.02254,0.053622 -0.05086,0.044654 -0.09888,-0.031315 -0.03702,-0.058564 -0.09667,-0.088328 -0.132566,-0.066145 -0.04512,0.027871 -0.05508,-0.049997 -0.03227,-0.252326 -0.04437,-0.7956245 -0.21532,-1.2846369 -0.282228,-2.1107135 -0.03508,-0.4571081 -0.09569,-0.8866683 -0.134718,-0.9545882 -0.03903,-0.067913 -0.05255,-0.1513729 -0.03007,-0.18546771 0.09218,-0.1397203 2.46482301,-0.1417086 3.38005121,-0.00284 0.3127793,0.047466 0.6770683,0.090394 0.8095245,0.0954 0.2499614,0.00944 0.8564364,0.1513232 0.9204365,0.2153233 0.020131,0.020131 0.00657,0.084685 -0.030143,0.1434732 -0.042041,0.067309 -0.049614,0.1942657 -0.02045,0.3429615 0.051082,1.1731674 0.2705153,1.5505007 0.2113291,2.5902603 C 5.2535229,4.4970866 5.0245336,4.5988386 4.967471,4.5089593 4.906847,4.4134703 3.6354359,4.4324793 3.2218171,4.5350553 2.8478708,4.6277893 1.3337876,4.705352 1.1025616,4.6436063 Z m 1.247502,-0.1414352 c 0.127287,-0.033729 0.06094,-0.042882 -0.225452,-0.031066 -0.223199,0.00923 -0.405815,-0.00664 -0.405815,-0.035256 0,-0.028617 0.0067,-0.055728 0.01502,-0.060265 0.0083,-0.00451 0.623755,-0.029611 1.3677491,-0.055703 1.6579404,-0.058153 1.5631402,-0.050398 1.5631402,-0.1278263 0,-0.035256 -0.1839694,-0.2838149 -0.4088221,-0.5523841 C 3.7861807,3.0786556 3.418959,2.6005325 3.3892064,2.511278 3.3598084,2.42311 2.758773,2.7018122 2.4190286,2.9611432 L 2.1342476,3.1785152 1.8308166,2.965244 C 1.6639316,2.8479411 1.4960526,2.7642467 1.4577576,2.7792615 c -0.0383,0.015018 -0.120072,0.1725157 -0.181722,0.3500091 -0.06165,0.1774899 -0.163103,0.4292443 -0.225452,0.559453 -0.06235,0.1302123 -0.11336201,0.2803638 -0.11336201,0.3336701 0,0.05331 -0.03011,0.1270346 -0.06691,0.1638349 -0.128437,0.1284371 0.01548,0.1976244 0.41114001,0.1976244 0.424342,0 0.471619,0.031173 0.136731,0.090181 -0.11372,0.020024 -0.218863,0.048524 -0.233643,0.063308 -0.04607,0.04607 0.975333,0.015267 1.165516,-0.035185 z m 2.821561,-0.6102846 c 0.00767,-0.1096836 0.021729,-0.2264788 0.031208,-0.2595476 0.036087,-0.1259837 3.55e-4,-0.2760606 -0.057141,-0.2404817 -0.033055,0.02045 -0.06012,0.2023962 -0.06012,0.4043522 0,0.3795665 0.061394,0.4478166 0.086066,0.095677 z M 1.0571316,3.3587566 C 1.1320616,3.1455102 1.2330946,2.892815 1.2816436,2.7972301 1.3692336,2.6247712 1.3670736,2.6205994 1.0003676,2.2561435 0.79711559,2.0541308 0.60654259,1.849054 0.57687159,1.8004166 c -0.08663,-0.1420353 -0.123403,-0.040756 -0.06241,0.1718944 0.03089,0.1076528 0.07457,0.4981511 0.09709,0.8677729 0.02251,0.3696147 0.06317,0.715232 0.09032,0.7680305 0.02975,0.057837 0.02063,0.1265518 -0.02297,0.1728459 -0.05591,0.059399 -0.05604,0.082846 -3.55e-4,0.1032751 0.03948,0.014557 0.05689,0.072024 0.0387,0.127759 -0.09411,0.2882706 0.223901,-0.322543 0.34010001,-0.6532378 z m 3.9081863,0.510535 c 0,-0.1273435 -0.024356,-0.1989274 -0.06012,-0.1768153 -0.035512,0.021942 -0.059743,-0.044274 -0.0592,-0.1617863 7.101e-4,-0.1505669 0.015089,-0.177007 0.0592,-0.108757 0.045584,0.070533 0.058479,0.054936 0.0592,-0.071605 C 4.9647529,3.261351 4.9371309,3.1711268 4.9026909,3.1498384 4.8682519,3.1285354 4.8455329,2.9984478 4.8522179,2.8607157 4.8588879,2.7229871 4.8134579,2.4141595 4.7512293,2.1744269 4.6227958,1.6796593 4.5696777,1.6512345 4.2186957,1.8894191 4.0964257,1.9723961 3.8915762,2.0937503 3.76348,2.1591032 3.3544909,2.3677517 3.3519453,2.3607219 4.2052892,3.3787351 c 0.5304069,0.6327588 0.5452939,0.6449262 0.625058,0.511025 0.080815,-0.1356622 0.08133,-0.1353497 0.047075,0.028155 -0.019882,0.094857 -0.00852,0.1653296 0.026628,0.1653296 0.033694,0 0.061266,-0.096288 0.061266,-0.2139671 z M 1.6357746,2.6088723 c -0.05353,-0.053541 -0.09734,-0.073764 -0.09734,-0.044949 0,0.068087 0.13444,0.202524 0.168482,0.1684824 0.01441,-0.014415 -0.01761,-0.069997 -0.07114,-0.1235339 z M 2.9292808,2.4038346 C 3.2720399,2.2352741 3.6056283,2.0639797 3.6705836,2.0231674 3.7355386,1.9823654 3.9573062,1.8460006 4.1633984,1.7201412 4.5061931,1.5107968 4.6104481,1.3451298 4.4066176,1.3336584 c -0.03991,-0.00213 -0.26809,-0.024108 -0.5070628,-0.048584 -1.0038913,0.027232 -2.0287292,0.018001 -2.95451021,-0.074321 -0.585219,-0.060276 -0.613839,0.019527 -0.150936,0.4208936 0.19445,0.1686067 0.52939801,0.4921403 0.74432801,0.7189671 0.47214,0.4982754 0.484822,0.4987618 1.3908442,0.053214 z M 4.867624,1.806186 C 4.846499,1.700557 4.816682,1.6266617 4.801362,1.6419819 4.78606,1.6572839 4.792202,1.7548609 4.815031,1.8587928 4.869186,2.1053529 4.9177594,2.0567901 4.867638,1.8061858 Z M 2.8796741,1.1485457 c 0.096987,-0.00643 0.1528037,-0.037212 0.131114,-0.072305 -0.02077,-0.033623 -0.057205,-0.049088 -0.080968,-0.034404 -0.023752,0.014699 -0.4131245,0.00213 -0.8652485,-0.028013 -0.49847,-0.033161 -0.876212,-0.032984 -0.959662,7.101e-4 -0.11578601,0.046482 -0.0947,0.056328 0.132925,0.06209 0.325234,0.00824 1.045583,0.068012 1.068348,0.088658 0.01534,0.013918 0.190314,0.00888 0.5734912,-0.016545 z" />
    <path
       id="path419-0"
       style="fill:#000000;stroke:#000000;stroke-width:0.369;stroke-miterlimit:4;stroke-dasharray:none"
       d="m 14.160916,14.80102 c -0.6792,-0.15392 -0.78073,-0.20278 -1.01584,-0.48892 -0.13615,-0.16569 -0.22869,-0.31709 -0.20565,-0.33646 0.023,-0.0194 0.15036,0.10028 0.28297,0.26588 0.23148,0.28908 0.26765,0.30481 0.90649,0.39438 0.56146,0.0787 2.29139,0.0888 2.84239,0.0165 0.15494,-0.0203 -1.17565,-0.0691 -1.6734,-0.0614 -0.377,0.006 -1.52514,-0.32059 -1.90775,-0.54244 -0.19089,-0.11069 -0.39061,-0.20208 -0.44381,-0.20309 -0.0532,-0.001 -0.1369,-0.15338 -0.18599,-0.3386 -0.0491,-0.18521 -0.14834,-0.55683 -0.22056,-0.82582 -0.0722,-0.26899 -0.1332,-0.63263 -0.13551,-0.80808 -0.002,-0.17545 -0.0227,-0.49981 -0.0453,-0.72079 -0.0226,-0.22099 -0.0463,-0.60552 -0.0527,-0.85453 -0.008,-0.32136 -0.0624,-0.51764 -0.18675,-0.67638 -0.0963,-0.123 -0.1846,-0.30357 -0.19612,-0.40127 -0.0115,-0.0977 -0.0422,-0.35867 -0.0683,-0.57993 -0.0883,-0.75082 0.068,-3.03586 0.25492,-3.7271 0.16469,-0.60896 0.52287,-1.30518 0.75248,-1.46266 0.19698,-0.1351 1.22953,-0.30415 1.85054,-0.30297 0.32968,4.7e-4 1.05181,-0.0312 1.60472,-0.0708 2.11569,-0.15127 3.80402,-0.14095 5.43274,0.0332 1.68196,0.17984 2.18467,0.31455 2.68183,0.71861 0.67554,0.54901 1.03082,2.48865 0.88546,4.83424 -0.0995,1.60525 -0.1183,2.63934 -0.0545,2.99444 0.10327,0.57503 0.0103,1.18938 -0.27796,1.83685 -0.31056,0.69753 -0.36633,0.7701 -0.69674,0.90648 -0.34653,0.14302 -3.71961,0.41715 -4.75907,0.38677 -0.95936,-0.028 -1.02719,-0.0268 -1.81321,0.0348 -0.93126,0.073 -3.19978,0.0595 -3.55531,-0.021 z m 5.39557,-0.39811 c 1.64234,-0.23812 2.76039,-0.37396 3.19386,-0.38804 0.60285,-0.0196 1.40762,-0.29384 1.85623,-0.63256 l 0.37955,-0.28656 0.0547,-0.59285 c 0.0301,-0.32606 0.0391,-0.88094 0.0202,-1.23306 -0.0308,-0.57155 -0.0329,-1.34954 -0.005,-1.85257 0.006,-0.10648 -0.04,-0.18262 -0.11386,-0.18887 -0.0779,-0.007 -0.0985,-0.0452 -0.0557,-0.10428 0.0542,-0.0748 0.0416,-0.076 -0.0618,-0.006 -0.1764,0.11916 -1.28296,0.13672 -1.54462,0.0245 -0.13073,-0.0561 -0.43449,-0.0756 -0.80899,-0.052 -0.74406,0.0468 -1.15077,0.0156 -1.14198,-0.0878 0.004,-0.0435 0.008,-0.10363 0.009,-0.13365 0.004,-0.0904 0.23836,-0.0936 1.40273,-0.0196 0.61218,0.0389 1.27627,0.055 1.47575,0.0357 0.19948,-0.0193 0.42133,-0.0219 0.493,-0.006 0.15116,0.034 0.18687,-0.007 0.28363,-0.32383 l 0.0711,-0.23298 -0.14034,0.20721 c -0.0772,0.11397 -0.17492,0.20429 -0.21717,0.20072 -0.10334,-0.009 -0.10052,-0.0184 0.12831,-0.44061 0.45088,-0.83189 0.22411,-3.35428 -0.36022,-4.00695 -0.34719,-0.3878 -1.43651,-0.84159 -2.23511,-0.93112 -0.34313,-0.0384 -0.69488,-0.0937 -0.78169,-0.12269 -0.0868,-0.029 -0.33801,-0.0283 -0.55821,0.002 -0.27939,0.0381 -0.40666,0.0286 -0.42119,-0.0314 -0.0262,-0.10775 -0.12545,-0.1158 -0.51834,-0.0419 -0.4058,0.0762 -0.35789,0.12633 0.0803,0.084 0.18839,-0.0182 0.34024,-0.006 0.33741,0.0271 -0.0104,0.12131 -0.86512,0.16107 -3.65149,0.16983 -0.52771,0.002 -1.10388,0.009 -1.28039,0.0169 -0.23745,0.0103 -0.28813,-0.005 -0.19485,-0.0586 0.0966,-0.0556 0.0519,-0.0784 -0.19153,-0.0976 -0.37864,-0.0301 -1.38206,0.0688 -1.47212,0.14487 -0.0665,0.0562 0.77873,0.059 1.05983,0.003 0.11058,-0.0218 0.13499,-0.008 0.0763,0.0426 -0.0474,0.0411 -0.28456,0.0798 -0.52689,0.0861 -1.1078,0.0285 -1.18292,0.0611 -1.576,0.68451 -0.47186,0.74835 -0.58686,1.35407 -0.51268,2.70036 0.0807,1.4649 0.30117,2.60411 0.4942,2.55386 0.0506,-0.0132 0.17831,0.0179 0.28391,0.0685 0.19412,0.0935 1.70064,0.23659 1.82584,0.17337 0.0373,-0.0188 0.0241,-0.14378 -0.0293,-0.27768 -0.24325,-0.61024 -0.13371,-1.61525 0.24162,-2.21672 0.55287,-0.88601 1.86504,-1.66876 2.7785,-1.65748 0.98747,0.0122 1.98509,0.34637 2.43629,0.81608 0.28251,0.2941 0.58397,1.00278 0.76973,1.80954 0.10545,0.45801 0.21604,0.8348 0.24573,0.83731 0.0297,0.002 0.0528,0.0672 0.0512,0.14374 -0.001,0.0765 0.002,0.37261 0.008,0.65792 0.008,0.39069 -0.0256,0.58734 -0.13732,0.79669 -0.377,0.70631 -1.92025,1.3396 -3.03489,1.2454 -1.10084,-0.093 -2.16038,-0.67029 -2.7196,-1.48165 l -0.26442,-0.38366 -0.76611,0.003 c -0.42136,0.002 -0.98046,-0.0143 -1.24245,-0.0353 -0.43466,-0.0349 -0.47994,-0.0227 -0.51736,0.13978 -0.0532,0.23113 0.0837,1.45611 0.22604,2.02296 0.0611,0.24322 0.0866,0.50124 0.0567,0.57338 -0.10738,0.2589 0.3196,1.03509 0.62459,1.13542 0.0428,0.0141 0.21615,0.0901 0.3853,0.16892 0.25052,0.11676 0.72842,0.17427 2.57756,0.31014 2.10226,0.15449 2.33534,0.15735 3.15413,0.0386 z m -6.46238,-1.05071 c -0.13627,-0.26449 -0.24385,-0.51753 -0.23906,-0.56231 0.01,-0.0944 0.2874,0.30685 0.28152,0.40731 -0.002,0.0369 0.0624,0.17882 0.14352,0.31545 0.0811,0.13663 0.12817,0.26463 0.10462,0.28444 -0.0235,0.0198 -0.15433,-0.1804 -0.2906,-0.44489 z m 8.92115,-7.79051 c -0.27187,-0.32115 -0.2565,-0.56222 0.0414,-0.64868 0.7087,-0.20569 1.46412,0.50392 0.89024,0.83627 -0.30497,0.17661 -0.68871,0.0993 -0.93161,-0.18759 z m 0.72635,0.0524 c 0.36192,-0.15539 0.0944,-0.54686 -0.40245,-0.58885 -0.39004,-0.0329 -0.48421,0.0424 -0.35924,0.28754 0.0732,0.14367 0.18151,0.21142 0.57676,0.36096 0.0135,0.005 0.0967,-0.0217 0.18493,-0.0597 z m -7.83098,-2.1474 c 0.0592,-0.018 0.12745,-0.009 0.15158,0.0191 0.0241,0.0285 -0.0243,0.0433 -0.1077,0.0327 -0.0921,-0.0115 -0.10934,-0.032 -0.0439,-0.0518 z m 6.47008,11.03285 c 1.09189,-0.0716 2.07986,-0.15742 2.57696,-0.22389 0.31449,-0.0421 0.52243,-0.19857 0.6903,-0.51962 0.0744,-0.14234 0.13673,-0.27528 0.13844,-0.29543 0.002,-0.0201 -0.18258,0.0765 -0.40955,0.21474 -0.40688,0.24785 -1.26171,0.49697 -1.60553,0.46791 -0.097,-0.008 -0.53715,0.0413 -0.97816,0.11007 -0.441,0.0687 -1.0836,0.16027 -1.42799,0.2034 -0.61921,0.0775 -0.87649,0.17128 -0.37122,0.13524 0.14376,-0.0103 0.7678,-0.0518 1.38675,-0.0924 z m -2.22496,-2.94033 c 0.22844,-0.0832 0.53077,-0.25436 0.67184,-0.38029 l 0.25648,-0.22896 -0.49885,0.22608 c -0.45963,0.2083 -0.55184,0.22135 -1.17318,0.16599 -0.44797,-0.0397 -0.76392,-0.11091 -0.94122,-0.21143 -0.14679,-0.0833 -0.48998,-0.19115 -0.76265,-0.23977 -0.27266,-0.0486 -0.56425,-0.13277 -0.64798,-0.18696 -0.31498,-0.20387 -0.33123,-0.0413 -0.0224,0.22399 0.50741,0.43597 1.62854,0.80786 2.38224,0.79019 0.1762,-0.004 0.50728,-0.0756 0.73573,-0.15884 z m -0.92555,-0.42862 c -0.21343,-0.11358 -0.44757,-0.13337 -0.39682,-0.0336 0.0233,0.0458 0.1565,0.0904 0.29604,0.0991 0.21387,0.0134 0.2297,0.003 0.10078,-0.0655 z m 2.26702,-0.10308 c 0.35013,-0.21497 0.546,-0.52668 0.57045,-0.90782 l 0.0193,-0.30106 -0.10319,0.23026 c -0.0568,0.12665 -0.1887,0.31266 -0.29321,0.41336 -0.28871,0.27819 -0.70542,0.84306 -0.57904,0.7849 0.0613,-0.0282 0.23487,-0.12705 0.38568,-0.21964 z m -3.69254,-0.35599 c -0.0487,-0.0589 -0.28183,-0.23094 -0.518,-0.38234 -0.23617,-0.1514 -0.441,-0.32606 -0.45517,-0.38813 -0.0178,-0.0778 0.007,-0.0896 0.0782,-0.0378 0.0817,0.059 0.0818,0.0401 4.7e-4,-0.0884 -0.16023,-0.25336 -0.16951,-0.25959 -0.12781,-0.0858 0.0341,0.14213 0.0212,0.13758 -0.10305,-0.0362 -0.0279,0.31442 -0.2724,-0.75477 -0.23066,-1.43798 0.0222,-0.31142 0.0164,-0.5543 -0.0128,-0.53969 -0.0293,0.0146 -0.11435,0.18309 -0.18919,0.37442 -0.0748,0.19133 -0.16207,0.34567 -0.19384,0.34299 -0.17075,-0.0144 0.50307,-1.27139 0.74761,-1.39461 0.0595,-0.03 0.11227,-0.10164 0.11717,-0.15919 0.005,-0.0576 0.18132,-0.23802 0.39205,-0.40104 0.21073,-0.16303 0.36662,-0.29781 0.34642,-0.29952 -0.0725,-0.006 -0.91896,0.42971 -1.10481,0.56885 -0.29227,0.21883 -0.66243,0.85378 -0.72912,1.25072 -0.0724,0.43096 -0.0186,1.06217 0.12639,1.4815 0.0856,0.24765 0.14885,0.31131 0.32393,0.32611 0.23529,0.0199 0.33962,0.19583 0.19048,0.32123 -0.0659,0.0554 -0.0285,0.1096 0.13008,0.18859 0.1224,0.061 0.29071,0.1552 0.37403,0.2094 0.14253,0.0927 0.55722,0.23329 0.81189,0.27523 0.0903,0.0149 0.0957,-0.004 0.0257,-0.0882 z m 2.93227,0.13054 c 0.11603,-0.10159 0.11248,-0.10897 -0.034,-0.0706 -0.0899,0.0235 -0.3422,0.0613 -0.56059,0.084 -0.57106,0.0592 -0.58136,0.13394 -0.0159,0.11564 0.26451,-0.009 0.53924,-0.0666 0.61049,-0.12901 z m -0.57087,-0.33656 c 0.36444,-0.14295 0.80149,-0.46709 1.1381,-0.84409 0.0867,-0.097 0.0948,-0.2364 0.0401,-0.68481 -0.14755,-1.20984 -0.59793,-1.79189 -1.55783,-2.01326 -0.42993,-0.0992 -2.06921,0.084 -2.56875,0.28692 -0.2998,0.12181 -0.34346,0.17548 -0.45984,0.56511 -0.16346,0.54732 -0.12956,0.69579 0.0779,0.34108 0.16002,-0.27364 0.48802,-0.52909 0.56404,-0.43928 0.0218,0.0257 -0.0482,0.10186 -0.15552,0.16916 -0.10733,0.0673 -0.27397,0.26429 -0.37031,0.43774 -0.41288,0.74335 0.13241,1.49093 1.64694,2.25795 0.25776,0.13054 1.23293,0.0852 1.64518,-0.0765 z m 0.85365,-0.0694 c 0.58171,-0.30038 0.70929,-0.44964 0.74522,-0.87197 0.0172,-0.20206 -0.007,-0.5319 -0.0529,-0.73298 -0.13567,-0.58962 -0.67069,-1.47887 -1.01952,-1.69452 -0.0835,-0.0517 -0.0301,0.0281 0.11886,0.17713 0.1489,0.14907 0.33537,0.39815 0.41436,0.55353 0.13622,0.26794 0.36505,1.32501 0.34588,1.59775 -0.0132,0.18832 -0.59136,0.792 -0.99296,1.03689 -0.44998,0.27437 -0.12344,0.22563 0.44102,-0.0658 z m -7.77983,-0.98839 c -0.0166,-0.0571 -0.0682,-0.38411 -0.11461,-0.72665 -0.0971,-0.71613 -0.17661,-0.82423 -0.15485,-0.21052 0.0204,0.57428 0.11438,1.02536 0.2155,1.03391 0.0462,0.004 0.0705,-0.0396 0.054,-0.0967 z m 8.43703,-1.63522 c -0.0196,-0.12215 -0.16235,-0.47231 -0.31716,-0.77815 -0.22798,-0.45035 -0.3555,-0.60158 -0.67086,-0.79557 -0.38755,-0.23839 -1.3658,-0.50273 -1.13287,-0.30611 0.0615,0.0519 0.1629,0.0993 0.22528,0.10524 0.17929,0.017 1.07569,0.72988 1.33937,1.06503 0.1317,0.16741 0.30362,0.44424 0.38202,0.61517 0.16917,0.3688 0.22299,0.39796 0.17422,0.0944 z m -3.5243,-0.88705 c 0.52643,-0.0775 1.05232,-0.0986 1.50395,-0.0604 0.38195,0.0323 0.69537,0.0478 0.69649,0.0345 9.4e-4,-0.0133 -0.19061,-0.13254 -0.42606,-0.26501 -0.35609,-0.20034 -0.49941,-0.23854 -0.85212,-0.22715 -0.62477,0.0202 -1.35621,0.20128 -1.70387,0.4219 -0.31698,0.20114 -0.43388,0.3884 -0.17303,0.27715 0.0798,-0.034 0.50942,-0.1155 0.95464,-0.18101 z m 0.492,-0.6153 0.44679,-0.0839 -0.50029,-0.0203 c -0.35742,-0.0145 -0.54272,0.0172 -0.64891,0.11087 -0.14163,0.125 -0.1391,0.12991 0.0535,0.10426 0.11118,-0.0148 0.40318,-0.0647 0.64891,-0.11087 z m 0.61952,-0.23508 c -0.0233,-0.0458 -0.17454,-0.0897 -0.33613,-0.0976 l -0.29382,-0.0143 0.27281,0.0817 c 0.40171,0.12037 0.40305,0.12048 0.35714,0.0302 z m -1.72876,-2.73335 c 0.10933,-0.0122 0.69042,-0.0155 1.29133,-0.007 0.64034,0.009 1.20691,-0.0252 1.36883,-0.0821 l 0.27627,-0.097 -0.28065,0.0103 c -0.15435,0.006 -0.80348,0.0252 -1.4425,0.0433 -1.27665,0.0362 -2.67899,0.15304 -1.85163,0.15423 0.24177,3.5e-4 0.52903,-0.009 0.63835,-0.0216 z m 7.86045,0.65871 c 0.005,-0.0627 -0.6229,-0.40387 -0.76403,-0.41497 -0.0655,-0.005 0.0702,0.0911 0.30153,0.21399 0.23135,0.12286 0.42922,0.2281 0.43972,0.23388 0.0105,0.006 0.0208,-0.009 0.0228,-0.0329 z" />
    <path
       id="path7775-6"
       style="fill:#000000;stroke-width:0.362463"
       d="m 46.499346,17.35639 c -0.0591,-0.0591 -1.77137,-0.20641 -3.805,-0.32728 -3.3957,-0.20185 -5.7274,-0.56044 -7.41146,-1.1398 -0.36047,-0.12399 -0.95351,-0.32937 -1.31783,-0.45636 -0.54258,-0.18911 -0.73569,-0.45089 -1.06719,-1.44666 -0.22261,-0.66869 -0.43717,-1.87505 -0.4768,-2.68083 -0.0396,-0.80577 -0.22377,-1.82814 -0.40918,-2.27192 -0.18543,-0.44378 -0.39905,-1.33374 -0.47475,-1.97768 -0.11212,-0.95409 -0.0773,-1.17082 0.18859,-1.17082 0.17938,0 0.42365,0.31951 0.54279,0.71003 0.18905,0.61963 0.23841,0.42435 0.38779,-1.53398 0.0942,-1.23421 0.23218,-2.28173 0.30678,-2.32783 0.0746,-0.0461 0.6101,-0.0303 1.19003,0.0351 0.83262,0.0938 1.09371,0.22223 1.24127,0.61034 0.16765,0.44094 0.38503,0.50673 2.11314,0.63951 1.05945,0.0814 3.30261,0.1245 4.98482,0.0959 2.39716,-0.0409 3.3302,0.0302 4.31475,0.32879 0.69091,0.20951 1.26438,0.44769 1.27439,0.52927 0.0103,0.0815 0.0636,0.39412 0.11896,0.69453 0.20726,1.12309 0.26998,9.00702 0.0757,9.51794 -0.16182,0.42566 -0.13255,0.53159 0.14694,0.53159 0.27634,0 0.29555,0.0645 0.0923,0.30945 -0.20389,0.24567 -0.17562,0.33051 0.13709,0.41159 0.25548,0.0663 0.18203,0.11108 -0.20901,0.12747 -0.33161,0.0139 -0.77127,0.22198 -0.97704,0.46228 -0.36143,0.42213 -0.74405,0.55248 -0.96707,0.32946 z m 0.21945,-2.60256 c 0.47064,-0.29087 0.90755,-1.69721 0.90755,-2.92124 0,-1.28692 -0.009,-1.307 -0.68271,-1.44164 -0.3755,-0.0751 -1.14969,-0.13654 -1.72045,-0.13654 -1.87047,0 -2.40314,0.19382 -2.40314,0.87444 0,0.84872 -0.45058,1.12661 -2.01871,1.245 -1.1515,0.087 -1.52286,0.02 -2.35066,-0.42396 -0.54071,-0.28999 -1.08142,-0.71636 -1.20157,-0.94751 -0.18606,-0.35794 -0.46148,-0.42026 -1.85699,-0.42026 -1.49178,0 -1.64431,0.0406 -1.7033,0.45332 -0.0356,0.24932 0.18555,0.95178 0.49155,1.56101 0.30599,0.60922 0.55635,1.21283 0.55635,1.34135 0,0.49889 0.90806,0.65117 4.59147,0.77004 2.10075,0.0677 4.31112,0.20369 4.9119,0.302 0.99496,0.16282 1.96275,0.0628 2.47871,-0.25601 z m -12.34002,-0.89469 c -0.0691,-0.18024 -0.16437,-0.3277 -0.21161,-0.3277 -0.0472,0 -0.0859,0.14746 -0.0859,0.3277 0,0.18024 0.0952,0.3277 0.21161,0.3277 0.11637,0 0.15503,-0.14746 0.0859,-0.3277 z m 7.14428,-2.85674 c 0.23326,-0.28106 0.23389,-0.37642 0.004,-0.51887 -0.18616,-0.11508 -0.20442,-0.22267 -0.0536,-0.31587 0.42017,-0.25969 -0.16784,-1.36604 -0.94984,-1.78718 -1.45502,-0.78358 -2.61303,0.24628 -1.89262,1.68316 0.58621,1.16917 2.2526,1.70997 2.89265,0.93876 z m -4.65628,-1.75721 c 0,-0.81371 1.11514,-1.84376 2.2135,-2.04462 0.49483,-0.0904 0.89968,-0.0861 0.89968,0.0103 0,0.0959 0.19716,0.23698 0.43812,0.31346 0.24096,0.0765 0.73251,0.38678 1.09234,0.68955 0.35982,0.30277 0.65423,0.47436 0.65423,0.3813 0,-0.3071 -0.94342,-1.18013 -1.29427,-1.1977 -0.20655,-0.0103 -0.23984,-0.0597 -0.0832,-0.12334 0.4204,-0.17101 1.1274,0.31959 1.50062,1.0413 0.19034,0.36808 0.29558,0.71973 0.23385,0.78143 -0.0617,0.0617 -0.004,0.22809 0.12838,0.36973 0.16858,0.18045 0.67118,0.20952 1.68,0.0971 2.01066,-0.22395 2.46942,-0.21688 2.31332,0.0357 -0.0773,0.12502 0.11754,0.21846 0.45557,0.21846 h 0.59061 l -0.12799,-1.69259 c -0.11444,-1.51232 -0.19336,-1.74653 -0.74155,-2.19891 -0.33744,-0.27847 -0.81482,-0.5882 -1.0608,-0.6883 -0.53328,-0.21701 -10.34112,-0.13559 -11.50724,0.0955 l -0.81261,0.16105 0.10257,1.98484 c 0.0587,1.13706 0.2085,2.05034 0.35062,2.13817 0.13643,0.0844 0.86149,0.16251 1.61124,0.17376 1.32657,0.0199 1.36317,0.005 1.36317,-0.54582 z m 7.52473,-1.95398 c -0.31672,-0.22373 -0.47902,-0.53082 -0.4368,-0.82647 0.0561,-0.39318 0.19276,-0.46066 0.83168,-0.41082 0.80073,0.0625 1.36721,0.57377 1.26052,1.13771 -0.0883,0.46609 -1.05427,0.52419 -1.6554,0.0996 z" />
  </g>
</svg>
