<?xml version="1.0" encoding="UTF-8" standalone="no"?>
<svg
   xmlns:dc="http://purl.org/dc/elements/1.1/"
   xmlns:cc="http://creativecommons.org/ns#"
   xmlns:rdf="http://www.w3.org/1999/02/22-rdf-syntax-ns#"
   xmlns:svg="http://www.w3.org/2000/svg"
   xmlns="http://www.w3.org/2000/svg"
   xmlns:sodipodi="http://sodipodi.sourceforge.net/DTD/sodipodi-0.dtd"
   xmlns:inkscape="http://www.inkscape.org/namespaces/inkscape"
   width="20"
   height="20"
   viewBox="0 0 5.2916665 5.2916668"
   version="1.1"
   id="svg1021"
   sodipodi:docname="ikona_email_1.svg"
   inkscape:version="1.0.2 (e86c8708, 2021-01-15)">
  <sodipodi:namedview
     pagecolor="#ffffff"
     bordercolor="#666666"
     borderopacity="1"
     objecttolerance="10"
     gridtolerance="10"
     guidetolerance="10"
     inkscape:pageopacity="0"
     inkscape:pageshadow="2"
     inkscape:window-width="1254"
     inkscape:window-height="480"
     id="namedview841"
     showgrid="false"
     inkscape:zoom="8.304653"
     inkscape:cx="5.9567814"
     inkscape:cy="11.759978"
     inkscape:window-x="0"
     inkscape:window-y="25"
     inkscape:window-maximized="0"
     inkscape:current-layer="svg1021"
     inkscape:document-rotation="0" />
  <defs
     id="defs1015" />
  <metadata
     id="metadata1018">
    <rdf:RDF>
      <cc:Work
         rdf:about="">
        <dc:format>image/svg+xml</dc:format>
        <dc:type
           rdf:resource="http://purl.org/dc/dcmitype/StillImage" />
        <dc:title />
      </cc:Work>
    </rdf:RDF>
  </metadata>
  <path
     id="path4178-1"
     style="fill:#000000;stroke:#000000;stroke-width:0.05741458;stroke-miterlimit:4;stroke-dasharray:none;stroke-opacity:1"
     d="m 0.42008341,0.98867341 c 0.03303,0.12735569 0.04776,0.34071549 0.03272,0.47413019 -0.02621,0.2325909 -0.03008,0.237631 -0.09391,0.1224794 -0.06025,-0.1086876 -0.100058,-0.068864 -0.07435,0.074372 0.0043,0.023741 -0.0126,0.069126 -0.0375,0.1008831 -0.02487,0.031757 -0.0575,0.1712336 -0.07248,0.3099475 -0.02699,0.2497846 -0.02669,0.250428 0.03086,0.067181 0.178177,-0.5673817 0.153656,-0.1028671 -0.06168,1.1686262 -0.07283,0.4300082 -0.125366,0.8797032 -0.116751,0.9993171 0.01376,0.1911617 0.02904,0.2155819 0.126101,0.2017663 0.07309,-0.010396 0.116344,-0.057548 0.127895,-0.139408 0.01525,-0.1081812 0.0074,-0.1153125 -0.06305,-0.056877 -0.07008,0.058164 -0.08051,0.050404 -0.08051,-0.05994 0,-0.069716 0.05497,-0.3392023 0.122149,-0.5988586 0.06718,-0.2596564 0.136465,-0.630991 0.153962,-0.8251911 0.0393,-0.4361832 0.07825,-0.6460518 0.113391,-0.6109109 0.03781,0.037813 0.333525,-0.1198611 0.38289,-0.2041583 0.03381,-0.057726 0.06509,-0.05285 0.17835299,0.027792 0.07555,0.053791 0.169556,0.1621422 0.208909,0.2407737 0.03936,0.078634 0.113689,0.1912957 0.165184,0.2503595 0.09302,0.1066918 0.09068,0.1103914 -0.3634,0.5732022 -0.25136599,0.2561979 -0.45634899,0.4916038 -0.45552099,0.5231255 8.93e-4,0.031519 0.08594,-0.037208 0.189154,-0.1527292 C 0.93570541,3.3590321 1.1105824,3.1887934 1.2211174,3.096248 L 1.4220844,2.9279783 1.2629934,3.1297416 C 1.0818404,3.3594908 0.55513441,3.8752617 0.61911241,3.760256 c 0.03627,-0.065206 0.0303,-0.066094 -0.04325,-0.00643 -0.04694,0.038075 -0.08535,0.093579 -0.08535,0.1233433 0,0.029758 -0.06099,0.1177789 -0.135538,0.1955882 -0.12301,0.1283954 -0.126507,0.1420264 -0.03783,0.1474478 0.05374,0.00331 0.126081,0.00238 0.16076,-0.00209 0.09119,-0.011826 0.07755,0.1344304 -0.01749,0.1876229 -0.05114,0.028626 0.257329,0.057848 0.84488599,0.080058 0.508992,0.019243 1.18647,0.066478 1.505509,0.1049701 0.319038,0.038495 0.614119,0.070213 0.655732,0.07049 0.04161,2.502e-4 0.243786,0.01692 0.44927,0.036982 0.277955,0.027137 0.364361,0.021537 0.337498,-0.021924 -0.01987,-0.032132 -0.144928,-0.05842 -0.277934,-0.05842 -0.133007,0 -0.387024,-0.017009 -0.564484,-0.037813 l -0.322658,-0.037813 0.504413,-0.027763 c 0.313495,-0.017247 0.599869,-0.00506 0.756616,0.032237 0.138711,0.032999 0.202472,0.06251 0.141687,0.065578 -0.06078,0.00307 -0.125107,0.029192 -0.142938,0.058039 -0.02148,0.034751 0.01585,0.039695 0.110514,0.014656 0.07862,-0.020792 0.194012,-0.035457 0.256433,-0.032579 0.06242,0.00298 0.114213,-0.020732 0.115095,-0.05248 8.94e-4,-0.031742 0.03493,-0.013643 0.07566,0.040199 0.06213,0.082137 0.07406,0.084649 0.07406,0.015579 0,-0.045281 -0.02478,-0.097639 -0.05506,-0.1163551 -0.06706,-0.041444 -0.0272,-0.5488922 0.083,-1.0564088 0.161451,-0.7436434 0.182246,-0.8633198 0.249805,-1.4375705 0.01796,-0.1525832 0.04264,-0.3586747 0.05486,-0.4579761 0.01594,-0.1294856 -0.003,-0.2031812 -0.06692,-0.260556 -0.228739,-0.205305 -1.632441,-0.40668999 -3.266925,-0.46870279 -0.443884,-0.01683 -0.98963599,-0.046434 -1.21278399,-0.065766 l -0.405725,-0.035147 0.06006,0.2315573 z m 2.11329399,0.045927 c 0.05549,0.024426 0.407312,0.059701 0.781837,0.078402 1.175907,0.058712 1.281374,0.068629 1.484955,0.1396135 l 0.198707,0.06929 -0.955323,0.5465895 c -0.525429,0.3006238 -1.057467,0.6003838 -1.182308,0.6661319 -0.124842,0.065745 -0.317779,0.1759848 -0.428748,0.2449709 -0.398243,0.2475743 -0.415252,0.2513753 -0.527749,0.1179755 -0.05608,-0.066502 -0.115956,-0.1719842 -0.133054,-0.234405 -0.0171,-0.062421 -0.04951,-0.1134924 -0.07202,-0.1134924 -0.03903,0 -0.293746,-0.3261671 -0.81824399,-1.0477703 -0.361317,-0.4970938 -0.353161,-0.50989661 0.33563899,-0.52691151 0.727787,-0.017992 1.187304,0.00298 1.316304,0.059606 z m 2.525313,1.0735786 c -0.06941,0.3758326 -0.16429,1.0318188 -0.210834,1.4577459 -0.04654,0.4259242 -0.09069,0.7819061 -0.0981,0.7910719 -0.02815,0.034804 -0.757444,-0.7648614 -0.837329,-0.9181268 -0.07115,-0.1365155 -0.76437,-0.8387536 -0.827977,-0.8387536 -0.0118,0 -0.02145,0.036827 -0.02145,0.08184 0,0.067077 -0.01367,0.070496 -0.07577,0.018945 -0.06475,-0.053738 -0.04456,-0.080443 0.138711,-0.1835181 0.11797,-0.066347 0.362026,-0.1905005 0.542354,-0.2758938 0.531007,-0.2514647 1.282455,-0.6858606 1.387786,-0.8022484 0.05371,-0.059344 0.104657,-0.086862 0.113227,-0.061152 0.0086,0.025707 -0.04121,0.3542482 -0.110624,0.7300808 z M 4.2233294,2.032654 c 1.02e-4,0.020792 0.130615,0.1059263 0.290037,0.189154 0.159423,0.083228 0.304047,0.1707688 0.321387,0.1945397 0.01734,0.023771 0.04524,0.02103 0.062,-0.00608 C 4.9135234,2.3831607 4.7937614,2.2785808 4.6306394,2.1778973 4.3402834,1.9986776 4.2229784,1.9568522 4.2233324,2.0326627 Z m -0.06597,0.5261222 c -0.124461,0.045379 -0.139608,0.073681 -0.126102,0.2356114 0.0129,0.1546923 0.03581,0.1864225 0.143641,0.1989931 0.151529,0.017664 0.378615,-0.1562919 0.322518,-0.2470561 -0.02392,-0.038695 -0.01641,-0.047786 0.02058,-0.024932 0.08288,0.05122 0.07226,-0.064024 -0.01382,-0.1501109 -0.08256,-0.08256 -0.148222,-0.084932 -0.346822,-0.012511 z M 0.83855541,1.6961416 c 0.06314,0.085411 0.107135,0.1609566 0.09776,0.1678853 -0.0094,0.00694 -0.10657,0.078912 -0.215981,0.1599677 -0.13191,0.097726 -0.188508,0.1198075 -0.167993,0.065552 0.01701,-0.045004 0.04669,-0.1868693 0.06594,-0.3152587 0.01924,-0.1283894 0.05086,-0.2334339 0.07023,-0.2334339 0.01936,0 0.08689,0.06988 0.150037,0.155288 z M 2.8318964,2.7820584 c 0.04388,0.01683 0.07979,0.062948 0.07979,0.1024649 0,0.039517 0.03405,0.084914 0.07566,0.1008801 0.04161,0.015966 0.07566,0.050646 0.07566,0.077056 0,0.026422 -0.0227,0.033994 -0.05044,0.01686 -0.02773,-0.017158 -0.05044,-0.00715 -0.05044,0.022252 0,0.029371 0.04948,0.053419 0.109944,0.053419 0.07397,0 0.306299,0.2003275 0.709983,0.6121858 L 4.3820894,4.379362 4.0378044,4.347569 C 3.8484484,4.330083 3.5232824,4.302637 3.3152124,4.286572 3.1071434,4.270516 2.8461104,4.249968 2.7351414,4.240928 2.6241694,4.231868 2.1212544,4.222191 1.6175484,4.219361 0.70554841,4.214271 0.70184041,4.213791 0.73016541,4.1054754 c 0.01948,-0.074527 0.01007,-0.09741 -0.02994,-0.072686 -0.03211,0.019839 -0.05839,0.081482 -0.05839,0.1369654 0,0.055486 -0.0227,0.086856 -0.05044,0.06971 -0.08059,-0.049812 -0.06083,-0.099543 0.113493,-0.285563 0.09016,-0.096212 0.34072399,-0.3643285 0.55680399,-0.5958114 l 0.392871,-0.4208781 0.164382,0.1593243 c 0.171916,0.1666283 0.278584,0.1966874 0.370784,0.1044905 0.03949,-0.039487 0.06435,-0.039433 0.08885,2.025e-4 0.0357,0.057774 0.215239,-0.1281332 0.324743,-0.3362741 0.06293,-0.1196049 0.09888,-0.1326431 0.228579,-0.082876 z m -0.979476,0.8257183 c 0,0.07576 0.209657,0.1928388 0.378308,0.2112568 0.08323,0.00909 0.165243,0.035621 0.182255,0.058959 0.04437,0.060872 0.318947,0.068253 0.33906,0.00912 0.0093,-0.027316 -0.149593,-0.1112732 -0.353087,-0.1865327 C 2.0035624,3.5543474 1.8524204,3.528685 1.8524204,3.6077808 Z m -0.353086,0.7073377 c 0,0.027733 -0.01001,0.05044 -0.02225,0.05044 -0.01224,0 -0.03627,-0.022699 -0.05342,-0.05044 -0.01716,-0.027733 -0.0071,-0.050443 0.02225,-0.050443 0.02937,0 0.05342,0.022698 0.05342,0.050443 z m 1.837787,0.095524 c 0.01534,0.024784 -0.02871,0.041819 -0.09787,0.037831 -0.06915,-0.00399 -0.12575,-0.024277 -0.125768,-0.045084 -5.1e-5,-0.053398 0.189961,-0.047235 0.223636,0.00724 z m -0.664073,0.038445 c -0.03415,0.013822 -0.102245,0.014656 -0.151323,0.00179 -0.04908,-0.012779 -0.02115,-0.024099 0.06209,-0.025111 0.08323,-8.936e-4 0.123382,0.00944 0.08923,0.023264 z M 0.14538741,2.4487632 c 0,0.069359 0.01144,0.097732 0.02544,0.063052 0.014,-0.034679 0.014,-0.091425 0,-0.1261017 -0.014,-0.034679 -0.02544,-0.00632 -0.02544,0.06305 z m 0.574969,0.1625474 c -0.102921,0.1469414 -0.09906,0.2067617 0.02031,0.3148029 0.06726,0.060869 0.139798,0.079183 0.226985,0.0573 0.10464799,-0.026273 0.12813599,-0.062495 0.12813599,-0.1976556 0,-0.2845501 -0.22507799,-0.38913 -0.37544799,-0.1744476 z m -0.629392,0.1695237 c 0.0024,0.05876 0.01436,0.070714 0.03048,0.030476 0.01457,-0.036413 0.01278,-0.079918 -0.004,-0.09668 -0.01677,-0.016771 -0.02869,0.013047 -0.02648,0.066204 z" />
</svg>
