<?xml version="1.0" encoding="UTF-8" standalone="no"?>
<svg
   xmlns:dc="http://purl.org/dc/elements/1.1/"
   xmlns:cc="http://creativecommons.org/ns#"
   xmlns:rdf="http://www.w3.org/1999/02/22-rdf-syntax-ns#"
   xmlns:svg="http://www.w3.org/2000/svg"
   xmlns="http://www.w3.org/2000/svg"
   width="20"
   height="20"
   viewBox="0 0 5.2916665 5.2916668"
   version="1.1"
   id="svg1021">
  <defs
     id="defs1015" />
  <metadata
     id="metadata1018">
    <rdf:RDF>
      <cc:Work
         rdf:about="">
        <dc:format>image/svg+xml</dc:format>
        <dc:type
           rdf:resource="http://purl.org/dc/dcmitype/StillImage" />
        <dc:title></dc:title>
      </cc:Work>
    </rdf:RDF>
  </metadata>
  <g
     id="layer1">
    <path
       id="path4178-1"
       style="fill:#000000;stroke:none;stroke-width:0.269;stroke-miterlimit:4;stroke-dasharray:none"
       d="m -11.840605,-6.2419889 c 0.03303,0.1273557 0.04776,0.3407155 0.03272,0.4741302 -0.02621,0.2325909 -0.03008,0.237631 -0.09391,0.1224794 -0.06025,-0.1086876 -0.100058,-0.068864 -0.07435,0.074372 0.0043,0.023741 -0.0126,0.069126 -0.0375,0.1008831 -0.02487,0.031757 -0.0575,0.1712336 -0.07248,0.3099475 -0.02699,0.2497846 -0.02669,0.250428 0.03086,0.067181 0.178177,-0.5673817 0.153656,-0.1028671 -0.06168,1.1686262 -0.07283,0.4300082 -0.125366,0.8797032 -0.116751,0.9993171 0.01376,0.1911617 0.02904,0.2155819 0.126101,0.2017663 0.07309,-0.010396 0.116344,-0.057548 0.127895,-0.139408 0.01525,-0.1081812 0.0074,-0.1153125 -0.06305,-0.056877 -0.07008,0.058164 -0.08051,0.050404 -0.08051,-0.05994 0,-0.069716 0.05497,-0.3392023 0.122149,-0.5988586 0.06718,-0.2596564 0.136465,-0.630991 0.153962,-0.8251911 0.0393,-0.4361832 0.07825,-0.6460518 0.113391,-0.6109109 0.03781,0.037813 0.333525,-0.1198611 0.38289,-0.2041583 0.03381,-0.057726 0.06509,-0.05285 0.178353,0.027792 0.07555,0.053791 0.169556,0.1621422 0.208909,0.2407737 0.03936,0.078634 0.113689,0.1912957 0.165184,0.2503595 0.09302,0.1066918 0.09068,0.1103914 -0.3634,0.5732022 -0.251366,0.2561979 -0.456349,0.4916038 -0.455521,0.5231255 8.93e-4,0.031519 0.08594,-0.037208 0.189154,-0.1527292 0.103206,-0.1155239 0.278083,-0.2857626 0.388618,-0.378308 l 0.200967,-0.1682697 -0.159091,0.2017633 c -0.181153,0.2297492 -0.707859,0.7455201 -0.643881,0.6305144 0.03627,-0.065206 0.0303,-0.066094 -0.04325,-0.00643 -0.04694,0.038075 -0.08535,0.093579 -0.08535,0.1233433 0,0.029758 -0.06099,0.1177789 -0.135538,0.1955882 -0.12301,0.1283954 -0.126507,0.1420264 -0.03783,0.1474478 0.05374,0.00331 0.126081,0.00238 0.16076,-0.00209 0.09119,-0.011826 0.07755,0.1344304 -0.01749,0.1876229 -0.05114,0.028626 0.257329,0.057848 0.844886,0.080058 0.508992,0.019243 1.1864701,0.066478 1.5055091,0.1049701 0.319038,0.038495 0.614119,0.070213 0.655732,0.07049 0.04161,2.502e-4 0.243786,0.01692 0.44927,0.036982 0.277955,0.027137 0.364361,0.021537 0.337498,-0.021924 -0.01987,-0.032132 -0.144928,-0.05842 -0.277934,-0.05842 -0.133007,0 -0.387024,-0.017009 -0.564484,-0.037813 l -0.322658,-0.037813 0.504413,-0.027763 c 0.313495,-0.017247 0.599869,-0.00506 0.756616,0.032237 0.138711,0.032999 0.202472,0.06251 0.141687,0.065578 -0.06078,0.00307 -0.125107,0.029192 -0.142938,0.058039 -0.02148,0.034751 0.01585,0.039695 0.110514,0.014656 0.07862,-0.020792 0.194012,-0.035457 0.256433,-0.032579 0.06242,0.00298 0.114213,-0.020732 0.115095,-0.05248 8.94e-4,-0.031742 0.03493,-0.013643 0.07566,0.040199 0.06213,0.082137 0.07406,0.084649 0.07406,0.015579 0,-0.045281 -0.02478,-0.097639 -0.05506,-0.1163551 -0.06706,-0.041444 -0.0272,-0.5488922 0.083,-1.0564088 0.161451,-0.7436434 0.182246,-0.8633198 0.249805,-1.4375705 0.01796,-0.1525832 0.04264,-0.3586747 0.05486,-0.4579761 0.01594,-0.1294856 -0.003,-0.2031812 -0.06692,-0.260556 -0.228739,-0.205305 -1.632441,-0.40669 -3.2669251,-0.4687028 -0.443884,-0.01683 -0.989636,-0.046434 -1.212784,-0.065766 l -0.405725,-0.035147 0.06006,0.2315573 z m 2.1132941,0.045927 c 0.05549,0.024426 0.407312,0.059701 0.781837,0.078402 1.175907,0.058712 1.281374,0.068629 1.484955,0.1396135 l 0.198707,0.06929 -0.955323,0.5465895 c -0.525429,0.3006238 -1.057467,0.6003838 -1.182308,0.6661319 -0.124842,0.065745 -0.317779,0.1759848 -0.428748,0.2449709 -0.3982431,0.2475743 -0.4152521,0.2513753 -0.5277491,0.1179755 -0.05608,-0.066502 -0.115956,-0.1719842 -0.133054,-0.234405 -0.0171,-0.062421 -0.04951,-0.1134924 -0.07202,-0.1134924 -0.03903,0 -0.293746,-0.3261671 -0.818244,-1.0477703 -0.361317,-0.4970938 -0.353161,-0.5098967 0.335639,-0.5269116 0.727787,-0.017992 1.1873041,0.00298 1.3163041,0.059606 z m 2.525313,1.0735786 c -0.06941,0.3758326 -0.16429,1.0318188 -0.210834,1.4577459 -0.04654,0.4259242 -0.09069,0.7819061 -0.0981,0.7910719 -0.02815,0.034804 -0.757444,-0.7648614 -0.837329,-0.9181268 -0.07115,-0.1365155 -0.76437,-0.8387536 -0.827977,-0.8387536 -0.0118,0 -0.02145,0.036827 -0.02145,0.08184 0,0.067077 -0.01367,0.070496 -0.07577,0.018945 -0.06475,-0.053738 -0.04456,-0.080443 0.138711,-0.1835181 0.11797,-0.066347 0.362026,-0.1905005 0.542354,-0.2758938 0.531007,-0.2514647 1.282455,-0.6858606 1.387786,-0.8022484 0.05371,-0.059344 0.104657,-0.086862 0.113227,-0.061152 0.0086,0.025707 -0.04121,0.3542482 -0.110624,0.7300808 z m -0.835361,-0.075525 c 1.02e-4,0.020792 0.130615,0.1059263 0.290037,0.189154 0.159423,0.083228 0.304047,0.1707688 0.321387,0.1945397 0.01734,0.023771 0.04524,0.02103 0.062,-0.00608 0.01677,-0.027107 -0.102992,-0.1316869 -0.266114,-0.2323704 -0.290356,-0.1792197 -0.407661,-0.2210451 -0.407307,-0.1452346 z m -0.06597,0.5261222 c -0.124461,0.045379 -0.139608,0.073681 -0.126102,0.2356114 0.0129,0.1546923 0.03581,0.1864225 0.143641,0.1989931 0.151529,0.017664 0.378615,-0.1562919 0.322518,-0.2470561 -0.02392,-0.038695 -0.01641,-0.047786 0.02058,-0.024932 0.08288,0.05122 0.07226,-0.064024 -0.01382,-0.1501109 -0.08256,-0.08256 -0.148222,-0.084932 -0.346822,-0.012511 z m -3.3188041,-0.8626346 c 0.06314,0.085411 0.107135,0.1609566 0.09776,0.1678853 -0.0094,0.00694 -0.10657,0.078912 -0.215981,0.1599677 -0.13191,0.097726 -0.188508,0.1198075 -0.167993,0.065552 0.01701,-0.045004 0.04669,-0.1868693 0.06594,-0.3152587 0.01924,-0.1283894 0.05086,-0.2334339 0.07023,-0.2334339 0.01936,0 0.08689,0.06988 0.150037,0.155288 z m 1.9933411,1.0859168 c 0.04388,0.01683 0.07979,0.062948 0.07979,0.1024649 0,0.039517 0.03405,0.084914 0.07566,0.1008801 0.04161,0.015966 0.07566,0.050646 0.07566,0.077056 0,0.026422 -0.0227,0.033994 -0.05044,0.01686 -0.02773,-0.017158 -0.05044,-0.00715 -0.05044,0.022252 0,0.029371 0.04948,0.053419 0.109944,0.053419 0.07397,0 0.306299,0.2003275 0.709983,0.6121858 l 0.600036,0.6121858 -0.344285,-0.031793 c -0.189356,-0.017486 -0.514522,-0.044932 -0.722592,-0.060997 -0.208069,-0.016056 -0.469102,-0.036604 -0.580071,-0.045644 -0.110972,-0.00906 -0.6138871,-0.018737 -1.1175931,-0.021567 -0.912,-0.00509 -0.915708,-0.00557 -0.887383,-0.1138856 0.01948,-0.074527 0.01007,-0.09741 -0.02994,-0.072686 -0.03211,0.019839 -0.05839,0.081482 -0.05839,0.1369654 0,0.055486 -0.0227,0.086856 -0.05044,0.06971 -0.08059,-0.049812 -0.06083,-0.099543 0.113493,-0.285563 0.09016,-0.096212 0.340724,-0.3643285 0.556804,-0.5958114 l 0.392871,-0.4208781 0.164382,0.1593243 c 0.171916,0.1666283 0.278584,0.1966874 0.370784,0.1044905 0.03949,-0.039487 0.06435,-0.039433 0.08885,2.025e-4 0.0357,0.057774 0.215239,-0.1281332 0.324743,-0.3362741 0.06293,-0.1196049 0.09888,-0.1326431 0.228579,-0.082876 z m -0.9794761,0.8257183 c 0,0.07576 0.209657,0.1928388 0.378308,0.2112568 0.08323,0.00909 0.1652431,0.035621 0.1822551,0.058959 0.04437,0.060872 0.318947,0.068253 0.33906,0.00912 0.0093,-0.027316 -0.149593,-0.1112732 -0.353087,-0.1865327 -0.3953941,-0.1462324 -0.5465361,-0.1718948 -0.5465361,-0.092799 z m -0.353086,0.7073377 c 0,0.027733 -0.01001,0.05044 -0.02225,0.05044 -0.01224,0 -0.03627,-0.022699 -0.05342,-0.05044 -0.01716,-0.027733 -0.0071,-0.050443 0.02225,-0.050443 0.02937,0 0.05342,0.022698 0.05342,0.050443 z m 1.8377871,0.095524 c 0.01534,0.024784 -0.02871,0.041819 -0.09787,0.037831 -0.06915,-0.00399 -0.12575,-0.024277 -0.125768,-0.045084 -5.1e-5,-0.053398 0.189961,-0.047235 0.223636,0.00724 z m -0.664073,0.038445 c -0.03415,0.013822 -0.102245,0.014656 -0.151323,0.00179 -0.04908,-0.012779 -0.02115,-0.024099 0.06209,-0.025111 0.08323,-8.936e-4 0.123382,0.00944 0.08923,0.023264 z m -2.5276611,-2.0003202 c 0,0.069359 0.01144,0.097732 0.02544,0.063052 0.014,-0.034679 0.014,-0.091425 0,-0.1261017 -0.014,-0.034679 -0.02544,-0.00632 -0.02544,0.06305 z m 0.574969,0.1625474 c -0.102921,0.1469414 -0.09906,0.2067617 0.02031,0.3148029 0.06726,0.060869 0.139798,0.079183 0.226985,0.0573 0.104648,-0.026273 0.128136,-0.062495 0.128136,-0.1976556 0,-0.2845501 -0.225078,-0.38913 -0.375448,-0.1744476 z m -0.629392,0.1695237 c 0.0024,0.05876 0.01436,0.070714 0.03048,0.030476 0.01457,-0.036413 0.01278,-0.079918 -0.004,-0.09668 -0.01677,-0.016771 -0.02869,0.013047 -0.02648,0.066204 z" />
    <path
       id="path1489-4"
       style="fill:#000000;stroke-width:0.169333"
       d="m -11.944695,2.1154321 c -0.05787,-0.015444 -0.105214,-0.053164 -0.105214,-0.083801 0,-0.083755 -0.225715,-0.067011 -0.262044,0.019421 -0.02254,0.053622 -0.05086,0.044654 -0.09888,-0.031315 -0.03702,-0.058564 -0.09667,-0.088328 -0.132566,-0.066145 -0.04512,0.027871 -0.05508,-0.049997 -0.03227,-0.252326 -0.04437,-0.7956245 -0.21532,-1.2846369 -0.282228,-2.1107135 -0.03508,-0.4571081 -0.09569,-0.8866683 -0.134718,-0.9545882 -0.03903,-0.067913 -0.05255,-0.1513729 -0.03007,-0.1854677 0.09218,-0.1397203 2.464823,-0.1417086 3.3800513,-0.00284 0.3127793,0.047466 0.6770683,0.090394 0.8095245,0.0954 0.2499614,0.00944 0.8564364,0.1513232 0.9204365,0.2153233 0.020131,0.020131 0.00657,0.084685 -0.030143,0.1434732 -0.042041,0.067309 -0.049614,0.19426569 -0.02045,0.34296149 0.051082,1.1731674 0.2705153,1.5505007 0.2113291,2.59026031 -0.041799,0.1338231 -0.2707883,0.2355751 -0.3278509,0.1456958 -0.060624,-0.095489 -1.3320351,-0.07648 -1.7456539,0.026096 -0.3739466,0.092734 -1.8880296,0.1702967 -2.1192556,0.108551 z m 1.247502,-0.1414352 c 0.127287,-0.033729 0.06094,-0.042882 -0.225452,-0.031066 -0.223199,0.00923 -0.405815,-0.00664 -0.405815,-0.035256 0,-0.028617 0.0067,-0.055728 0.01502,-0.060265 0.0083,-0.00451 0.623755,-0.029611 1.3677492,-0.055703 1.6579404,-0.058153 1.5631402,-0.050398 1.5631402,-0.1278263 0,-0.035256 -0.1839694,-0.2838149 -0.4088221,-0.5523841 -0.4697051,-0.5610294 -0.8369268,-1.0391525 -0.8666794,-1.128407 -0.029398,-0.088168 -0.6304339,0.1905342 -0.9701779,0.4498652 l -0.284781,0.217372 -0.303431,-0.2132712 c -0.166885,-0.1173029 -0.334764,-0.2009973 -0.373059,-0.1859825 -0.0383,0.015018 -0.120072,0.1725157 -0.181722,0.3500091 -0.06165,0.1774899 -0.163103,0.4292443 -0.225452,0.559453 -0.06235,0.1302123 -0.113362,0.2803638 -0.113362,0.3336701 0,0.05331 -0.03011,0.1270346 -0.06691,0.1638349 -0.128437,0.1284371 0.01548,0.1976244 0.41114,0.1976244 0.424342,0 0.471619,0.031173 0.136731,0.090181 -0.11372,0.020024 -0.218863,0.048524 -0.233643,0.063308 -0.04607,0.04607 0.975333,0.015267 1.165516,-0.035185 z m 2.8215611,-0.6102846 c 0.00767,-0.1096836 0.021729,-0.2264788 0.031208,-0.2595476 0.036087,-0.1259837 3.55e-4,-0.2760606 -0.057141,-0.2404817 -0.033055,0.02045 -0.06012,0.2023962 -0.06012,0.4043522 0,0.3795665 0.061394,0.4478166 0.086066,0.095677 z M -11.990127,0.8305681 c 0.07493,-0.2132464 0.175963,-0.4659416 0.224512,-0.5615265 0.08759,-0.1724589 0.08543,-0.1766307 -0.281276,-0.5410866 -0.203252,-0.2020127 -0.393825,-0.4070895 -0.423496,-0.4557269 -0.08663,-0.1420353 -0.123403,-0.040756 -0.06241,0.1718944 0.03089,0.1076528 0.07457,0.4981511 0.09709,0.8677729 0.02251,0.3696147 0.06317,0.715232 0.09032,0.7680305 0.02975,0.057837 0.02063,0.1265518 -0.02297,0.1728459 -0.05591,0.059399 -0.05604,0.082846 -3.55e-4,0.1032751 0.03948,0.014557 0.05689,0.072024 0.0387,0.127759 -0.09411,0.2882706 0.223901,-0.322543 0.3401,-0.6532378 z m 3.9081864,0.510535 c 0,-0.1273435 -0.024356,-0.1989274 -0.06012,-0.1768153 -0.035512,0.021942 -0.059743,-0.044274 -0.0592,-0.1617863 7.101e-4,-0.1505669 0.015089,-0.177007 0.0592,-0.108757 0.045584,0.070533 0.058479,0.054936 0.0592,-0.071605 3.55e-4,-0.088977 -0.027267,-0.1792012 -0.061707,-0.2004896 -0.034439,-0.021303 -0.057158,-0.1513906 -0.050473,-0.2891227 0.00667,-0.1377286 -0.03876,-0.4465562 -0.1009886,-0.6862888 -0.1284335,-0.4947676 -0.1815516,-0.5231924 -0.5325336,-0.2850078 -0.12227,0.082977 -0.3271195,0.2043312 -0.4552157,0.2696841 -0.4089891,0.2086485 -0.4115347,0.2016187 0.4418092,1.2196319 0.5304069,0.6327588 0.5452939,0.6449262 0.625058,0.511025 0.080815,-0.1356622 0.08133,-0.1353497 0.047075,0.028155 -0.019882,0.094857 -0.00852,0.1653296 0.026628,0.1653296 0.033694,0 0.061266,-0.096288 0.061266,-0.2139671 z M -11.411484,0.0806838 c -0.05353,-0.053541 -0.09734,-0.073764 -0.09734,-0.044949 0,0.068087 0.13444,0.202524 0.168482,0.1684824 0.01441,-0.014415 -0.01761,-0.069997 -0.07114,-0.1235339 z m 1.293506,-0.2050377 c 0.3427594,-0.1685605 0.6763478,-0.3398549 0.7413031,-0.3806672 0.064955,-0.040802 0.2867226,-0.1771668 0.4928148,-0.3030262 0.3427947,-0.2093444 0.4470497,-0.3750114 0.2432192,-0.3864828 -0.03991,-0.00213 -0.26809,-0.024108 -0.5070628,-0.048584 -1.0038913,0.027232 -2.0287293,0.018001 -2.9545103,-0.074321 -0.585219,-0.060276 -0.613839,0.019527 -0.150936,0.4208936 0.19445,0.1686067 0.529398,0.4921403 0.744328,0.7189671 0.47214,0.4982754 0.484822,0.4987618 1.390844,0.053214 z m 1.9383435,-0.5976486 c -0.021125,-0.105629 -0.050942,-0.1795243 -0.066262,-0.1642041 -0.015302,0.015302 -0.00916,0.112879 0.013669,0.2168109 0.054155,0.2465601 0.1027284,0.1979973 0.052607,-0.052607 z m -1.9879495,-0.6576403 c 0.09699,-0.00643 0.152803,-0.037212 0.131114,-0.072305 -0.02077,-0.033623 -0.0572,-0.049088 -0.08097,-0.034404 -0.02375,0.014699 -0.413125,0.00213 -0.865249,-0.028013 -0.49847,-0.033161 -0.876212,-0.032984 -0.959662,7.101e-4 -0.115786,0.046482 -0.0947,0.056328 0.132925,0.06209 0.325234,0.00824 1.045583,0.068012 1.068348,0.088658 0.01534,0.013918 0.190314,0.00888 0.573491,-0.016545 z" />
    <path
       id="path419-0"
       style="fill:#000000;stroke:#000000;stroke-width:0.132292;stroke-miterlimit:4;stroke-dasharray:none"
       d="m -10.510269,8.7597466 c -0.259123,-0.058386 -0.297858,-0.076919 -0.387555,-0.1854594 -0.05194,-0.06285 -0.08725,-0.1202799 -0.07846,-0.1276274 0.0088,-0.00736 0.05736,0.038038 0.107957,0.1008553 0.08831,0.1096552 0.102111,0.1156219 0.345836,0.149598 0.214204,0.029853 0.8741927,0.033684 1.0844058,0.00626 0.059111,-0.0077 -0.4485244,-0.026214 -0.6384218,-0.023293 -0.14383,0.00228 -0.581859,-0.1216069 -0.727829,-0.20576 -0.07283,-0.041988 -0.149023,-0.076654 -0.169319,-0.077037 -0.0203,-3.793e-4 -0.05223,-0.058181 -0.07096,-0.1284393 -0.01873,-0.070255 -0.05659,-0.2112193 -0.08415,-0.3132538 -0.02754,-0.1020345 -0.05082,-0.239972 -0.0517,-0.3065245 -7.63e-4,-0.066552 -0.0087,-0.1895902 -0.01728,-0.2734133 -0.0086,-0.083827 -0.01766,-0.2296886 -0.02011,-0.3241443 -0.003,-0.1218997 -0.02381,-0.1963536 -0.07125,-0.2565675 -0.03674,-0.046657 -0.07043,-0.1151516 -0.07482,-0.1522117 -0.0044,-0.03706 -0.0161,-0.1360522 -0.02606,-0.2199816 -0.03369,-0.2848045 0.02594,-1.1515764 0.09726,-1.4137806 0.06283,-0.2309935 0.199481,-0.4950869 0.28708,-0.5548229 0.07515,-0.051247 0.46908,-0.1153716 0.706003,-0.114924 0.125777,1.783e-4 0.4012777,-0.011835 0.6122195,-0.026856 0.8071608,-0.05738 1.4512788,-0.053466 2.0726549,0.012594 0.6416876,0.068218 0.8334776,0.1193165 1.0231499,0.2725864 0.2577266,0.208253 0.3932701,0.9440062 0.3378136,1.8337461 -0.037961,0.6089107 -0.045133,1.0011665 -0.020793,1.1358647 0.039399,0.2181229 0.00393,0.4511609 -0.106045,0.6967622 -0.1184818,0.2645903 -0.1397587,0.2921179 -0.265814,0.3438502 -0.1322054,0.054251 -1.4190754,0.1582352 -1.8156418,0.1467113 -0.3660072,-0.010621 -0.3918852,-0.010166 -0.6917612,0.0132 -0.3552867,0.027691 -1.2207539,0.02257 -1.3563929,-0.00797 z m 2.0584742,-0.1510129 c 0.6265722,-0.090325 1.0531216,-0.1418522 1.2184955,-0.1471931 0.2299944,-0.00743 0.5370237,-0.1114607 0.7081738,-0.2399455 l 0.1448029,-0.1086993 0.020869,-0.2248826 c 0.011484,-0.1236825 0.014917,-0.3341621 0.00771,-0.4677298 -0.01175,-0.216803 -0.012551,-0.5119137 -0.00191,-0.7027254 0.00229,-0.040391 -0.015261,-0.069273 -0.043439,-0.071643 -0.029719,-0.00265 -0.037579,-0.017146 -0.02125,-0.039556 0.020678,-0.028373 0.015871,-0.028828 -0.023578,-0.00228 -0.067299,0.0452 -0.4894645,0.051861 -0.5892908,0.00929 -0.049875,-0.02128 -0.1657631,-0.028676 -0.3086393,-0.019725 -0.2838678,0.017752 -0.4390324,0.00591 -0.4356789,-0.033304 0.00153,-0.016501 0.00305,-0.03931 0.00343,-0.050697 0.00153,-0.034291 0.090937,-0.035505 0.5351582,-0.00744 0.2335539,0.014756 0.4869121,0.020862 0.5630161,0.013542 0.076104,-0.00732 0.1607424,-0.00831 0.1880853,-0.00228 0.05767,0.012897 0.071294,-0.00265 0.1082083,-0.1228366 l 0.027125,-0.088376 -0.053542,0.0786 c -0.029453,0.043232 -0.066735,0.077493 -0.082853,0.076138 -0.039426,-0.00342 -0.03835,-0.00698 0.048952,-0.1671342 C -6.2659298,5.9743171 -6.3524447,5.0175127 -6.575374,4.7699388 -6.7078311,4.6228367 -7.1234197,4.450703 -7.428095,4.4167421 -7.5590032,4.4021761 -7.6932,4.3811991 -7.7263191,4.3702031 c -0.033115,-0.011 -0.1289547,-0.010735 -0.2129637,7.587e-4 -0.1065906,0.014452 -0.1551456,0.010849 -0.160689,-0.011911 -0.00999,-0.040872 -0.047861,-0.043926 -0.1977529,-0.015894 -0.1548175,0.028905 -0.1365393,0.04792 0.030636,0.031863 0.071873,-0.0069 0.1298056,-0.00228 0.1287259,0.01028 -0.00396,0.046016 -0.3300536,0.061098 -1.3930869,0.064421 -0.2013276,7.586e-4 -0.4211432,0.00341 -0.4884843,0.00641 -0.09059,0.00391 -0.109925,-0.0019 -0.07434,-0.022228 0.03685,-0.021091 0.0198,-0.029739 -0.07307,-0.037022 -0.144455,-0.011418 -0.527272,0.026098 -0.561631,0.054953 -0.02537,0.021318 0.297095,0.02238 0.404338,0.00114 0.04219,-0.00827 0.0515,-0.00304 0.02911,0.016159 -0.01808,0.01559 -0.108563,0.03027 -0.201015,0.03266 -0.422639,0.010811 -0.451298,0.023177 -0.601263,0.2596514 -0.18002,0.2838678 -0.223894,0.5136321 -0.195593,1.024313 0.03079,0.5556726 0.1149,0.9878029 0.188543,0.9687419 0.01931,-0.005 0.06803,0.00679 0.108315,0.025983 0.07406,0.035467 0.648814,0.089744 0.69658,0.065764 0.01423,-0.00713 0.0092,-0.054539 -0.01118,-0.1053309 -0.0928,-0.2314789 -0.05101,-0.6127038 0.09218,-0.8408562 0.210926,-0.3360854 0.7115345,-0.6330016 1.0600304,-0.6287229 0.3767315,0.00462 0.7573353,0.1313867 0.9294736,0.3095592 0.1077809,0.1115594 0.2227915,0.3803791 0.2936612,0.686403 0.04023,0.1737344 0.082422,0.3166601 0.093749,0.3176123 0.011331,7.586e-4 0.020144,0.02549 0.019534,0.054525 -3.816e-4,0.029018 7.629e-4,0.1413402 0.00305,0.2495652 0.00305,0.1481983 -0.00976,0.2227925 -0.052389,0.3022041 -0.1438304,0.2679178 -0.7325987,0.5081403 -1.1578471,0.472408 C -9.4496773,7.6283353 -9.8539044,7.409355 -10.067253,7.1015863 l -0.10088,-0.1455317 -0.29228,0.00114 c -0.160754,7.587e-4 -0.374057,-0.00542 -0.474009,-0.01339 -0.165828,-0.013238 -0.183103,-0.00861 -0.197379,0.053022 -0.0203,0.087674 0.03193,0.5523383 0.08624,0.7673583 0.02331,0.092259 0.03304,0.1901326 0.02163,0.2174971 -0.04097,0.098207 0.121931,0.3926351 0.238288,0.4306928 0.01633,0.00535 0.08246,0.034177 0.146997,0.064075 0.09558,0.04429 0.277901,0.066105 0.9833695,0.1176436 0.8020372,0.058602 0.89096,0.059686 1.2033381,0.014642 z M -10.917269,8.2101736 c -0.05199,-0.1003278 -0.09303,-0.1963119 -0.0912,-0.213298 0.0038,-0.035808 0.109646,0.1163957 0.107403,0.1545027 -7.63e-4,0.013997 0.02381,0.067831 0.05476,0.1196579 0.03094,0.051827 0.0489,0.1003802 0.03991,0.1078951 -0.009,0.00751 -0.05888,-0.068431 -0.110867,-0.1687577 z m 3.4035241,-2.9551317 c -0.1037215,-0.12182 -0.097858,-0.2132638 0.015795,-0.2460602 0.2703774,-0.078023 0.5585791,0.1911492 0.3396371,0.3172176 -0.1163497,0.066993 -0.262751,0.037667 -0.3554202,-0.071157 z m 0.2771112,0.019877 c 0.1380768,-0.058944 0.036015,-0.2074378 -0.1535394,-0.2233656 -0.148805,-0.01248 -0.1847319,0.016083 -0.1370544,0.1090709 0.027926,0.054497 0.069248,0.080196 0.2200408,0.1369209 0.00515,0.0019 0.036893,-0.00823 0.070553,-0.022646 z M -10.224246,4.4603568 c 0.02259,-0.00683 0.04862,-0.00341 0.05783,0.00724 0.0092,0.010811 -0.0093,0.016425 -0.04109,0.012404 -0.03514,-0.00436 -0.04171,-0.012138 -0.01675,-0.019649 z m 2.4684128,4.1850311 c 0.416569,-0.02716 0.7934913,-0.059714 0.9831409,-0.084927 0.1199816,-0.015969 0.1993132,-0.075323 0.2633576,-0.1971047 0.028385,-0.053993 0.052164,-0.104421 0.052817,-0.1120638 7.63e-4,-0.00762 -0.069657,0.029018 -0.1562481,0.081456 -0.1552296,0.094016 -0.4813574,0.1885129 -0.6125288,0.1774897 -0.037007,-0.00303 -0.2049291,0.015666 -0.3731797,0.041752 -0.1682467,0.02606 -0.4134062,0.060794 -0.5447951,0.077155 -0.236236,0.029398 -0.3343914,0.064971 -0.1416248,0.0513 0.054846,-0.00391 0.2929248,-0.019649 0.5290615,-0.03505 z M -8.6046819,7.5300485 c 0.087152,-0.031559 0.2024951,-0.096485 0.256315,-0.1442533 l 0.09785,-0.086851 -0.1903172,0.085758 c -0.1753542,0.079014 -0.2105334,0.083964 -0.447582,0.062965 -0.1709058,-0.015059 -0.2914445,-0.042071 -0.3590866,-0.080201 -0.056002,-0.031598 -0.1869332,-0.072508 -0.29096,-0.090951 -0.1040231,-0.018435 -0.2152681,-0.050363 -0.2472121,-0.070918 -0.1201686,-0.077333 -0.1263682,-0.015666 -0.00855,0.084965 0.193583,0.1653743 0.6213074,0.3064412 0.9088529,0.2997386 0.067222,-0.00152 0.1935334,-0.028676 0.28069,-0.060252 z m -0.3531083,-0.162586 c -0.081426,-0.043084 -0.1707533,-0.050591 -0.1513916,-0.012745 0.00889,0.017373 0.059707,0.034291 0.1129428,0.037591 0.081594,0.00509 0.087633,0.00114 0.038449,-0.024845 z m 0.8648951,-0.039101 c 0.1335788,-0.081543 0.2083054,-0.1997826 0.2176334,-0.3443584 l 0.00736,-0.1141995 -0.039368,0.087343 c -0.021669,0.048042 -0.07199,0.1186002 -0.1118624,0.1567982 -0.1101463,0.1055243 -0.2691261,0.3197933 -0.2209106,0.2977318 0.023387,-0.010697 0.089606,-0.048193 0.1471415,-0.083315 z m -1.408748,-0.1350356 c -0.018579,-0.022342 -0.1075214,-0.087601 -0.197623,-0.145031 -0.090102,-0.05743 -0.1682469,-0.1236825 -0.1736528,-0.1472272 -0.00679,-0.029511 0.00267,-0.033987 0.029835,-0.014338 0.03117,0.02238 0.031207,0.015211 1.793e-4,-0.033532 -0.06113,-0.096106 -0.06467,-0.098468 -0.048761,-0.032546 0.01301,0.053913 0.00808,0.052188 -0.039315,-0.013731 -0.010644,0.1192672 -0.1039234,-0.2863028 -0.087999,-0.5454612 0.0085,-0.1181292 0.0063,-0.2102596 -0.0049,-0.2047176 -0.01118,0.00554 -0.04363,0.06945 -0.07218,0.1420266 -0.02854,0.072576 -0.06183,0.1311212 -0.07395,0.1301046 -0.06514,-0.00546 0.1919276,-0.4822695 0.2852226,-0.5290099 0.0227,-0.01138 0.042833,-0.038554 0.044702,-0.060385 0.00191,-0.021849 0.069176,-0.090287 0.1495718,-0.1521243 0.080396,-0.061842 0.1398698,-0.1129666 0.1321633,-0.1136152 -0.02766,-0.00228 -0.3505941,0.1629994 -0.4214982,0.2157787 -0.1115045,0.083008 -0.2527245,0.3238597 -0.2781675,0.4744288 -0.02762,0.1634738 -0.0071,0.4029072 0.04822,0.5619694 0.03266,0.09394 0.05679,0.1180876 0.123583,0.1237015 0.089766,0.00755 0.1295688,0.074284 0.07267,0.1218505 -0.02514,0.021014 -0.01087,0.041574 0.049627,0.071537 0.046697,0.023139 0.1109092,0.058871 0.1426968,0.079431 0.054377,0.035164 0.2125861,0.088493 0.3097456,0.1044011 0.034451,0.00565 0.036511,-0.00152 0.0098,-0.033457 z m 1.1186959,0.049517 c 0.044267,-0.038536 0.042912,-0.041335 -0.012972,-0.02678 -0.034298,0.00891 -0.1305534,0.023252 -0.2138718,0.031864 -0.2178661,0.022457 -0.2217957,0.050807 -0.00607,0.043865 0.1009135,-0.00342 0.2057265,-0.025263 0.2329092,-0.048937 z M -8.6007409,7.1151775 c 0.1390382,-0.054225 0.3057781,-0.1771787 0.4341988,-0.3201842 0.033077,-0.036795 0.036167,-0.089672 0.015299,-0.2597652 -0.056292,-0.458922 -0.2281175,-0.6797079 -0.5943307,-0.763679 -0.1640234,-0.037629 -0.7894282,0.031863 -0.9800087,0.1088359 -0.1143772,0.046205 -0.131034,0.066564 -0.1754344,0.21436 -0.062362,0.207612 -0.049429,0.2639303 0.029719,0.1293801 0.061049,-0.1037981 0.1861854,-0.2006968 0.2151879,-0.1666298 0.00832,0.00975 -0.018389,0.038638 -0.059333,0.064167 -0.040947,0.025528 -0.104522,0.1002508 -0.141277,0.1660451 -0.157519,0.2819708 0.050515,0.5655463 0.6283271,0.8564959 0.098338,0.049517 0.4703774,0.032319 0.6276557,-0.029018 z m 0.3256776,-0.026325 c 0.2219294,-0.1139416 0.2706027,-0.1705596 0.2843104,-0.3307597 0.00656,-0.076646 -0.00267,-0.2017627 -0.020182,-0.2780374 -0.05176,-0.2236574 -0.2558761,-0.5609717 -0.3889589,-0.642773 -0.031856,-0.019611 -0.011484,0.010659 0.045347,0.06719 0.056807,0.056545 0.1279476,0.1510281 0.1580832,0.2099676 0.05197,0.1016366 0.1392709,0.5026088 0.1319573,0.6060658 -0.00503,0.071434 -0.2256107,0.300425 -0.378826,0.3933179 -0.1716727,0.1040749 -0.047094,0.085587 0.1682545,-0.02496 z M -11.243161,6.7139317 c -0.0063,-0.021659 -0.02602,-0.1457023 -0.04373,-0.2756362 -0.03704,-0.2716457 -0.06738,-0.3126507 -0.05908,-0.079855 0.0078,0.2178385 0.04364,0.3889442 0.08222,0.3921874 0.01763,0.00152 0.0269,-0.015021 0.0206,-0.03668 z M -8.0243336,6.0936526 C -8.0318113,6.0473181 -8.0862721,5.9144938 -8.1453339,5.7984812 -8.2323109,5.6276523 -8.2809614,5.5702871 -8.4012751,5.4967019 -8.5491299,5.4062747 -8.9223439,5.3060041 -8.8334783,5.3805868 c 0.023462,0.019687 0.062148,0.037667 0.085947,0.03992 0.068402,0.00645 0.4103886,0.2768615 0.5109857,0.4039921 0.050245,0.063503 0.1158346,0.1685112 0.1457451,0.2333491 0.06454,0.1398949 0.085073,0.1509561 0.066467,0.035808 z M -9.368896,5.7571727 c 0.2008393,-0.029398 0.4014726,-0.037402 0.5737748,-0.022912 0.1457184,0.012252 0.2652919,0.018131 0.2657192,0.013087 3.586e-4,-0.00504 -0.07272,-0.050276 -0.1625469,-0.1005249 -0.1358526,-0.075993 -0.1905309,-0.090483 -0.3250939,-0.086163 -0.2383573,0.00766 -0.5174102,0.076351 -0.6500467,0.1600371 -0.1209316,0.076297 -0.1655303,0.1473296 -0.066013,0.1051298 0.030445,-0.012897 0.1943497,-0.043812 0.3642064,-0.068662 z m 0.1877039,-0.2333984 0.1704556,-0.031825 -0.1908666,-0.0077 c -0.1363598,-0.0055 -0.2070541,0.00652 -0.2475668,0.042056 -0.054033,0.047415 -0.053069,0.049278 0.020411,0.039549 0.042416,-0.00561 0.153818,-0.024542 0.2475669,-0.042055 z m 0.2363542,-0.089171 c -0.00889,-0.017373 -0.066589,-0.034025 -0.1282376,-0.037022 l -0.1120958,-0.00542 0.1040801,0.030991 c 0.1532572,0.04566 0.1537684,0.045702 0.1362531,0.011455 z M -9.6043804,4.3977758 c 0.041711,-0.00463 0.2634035,-0.00588 0.4926577,-0.00265 0.2442973,0.00341 0.4604505,-0.00956 0.522225,-0.031143 l 0.1054002,-0.036795 -0.1070713,0.00391 c -0.058886,0.00228 -0.3065371,0.00956 -0.5503308,0.016425 -0.4870572,0.013732 -1.0220664,0.058052 -0.7064189,0.058503 0.092238,1.328e-4 0.2018312,-0.00341 0.2435381,-0.00819 z m 2.9988551,0.2498649 c 0.00191,-0.023784 -0.2376438,-0.1531978 -0.2914865,-0.1574083 -0.024989,-0.0019 0.026782,0.034557 0.1150373,0.081172 0.088263,0.046603 0.1637525,0.086524 0.1677584,0.088716 0.00401,0.00228 0.00794,-0.00342 0.0087,-0.01248 z" />
    <path
       id="path7775-6"
       style="fill:#000000;stroke-width:0.362464"
       d="M 4.5897661,4.961894 C 4.5717148,4.9438428 4.0487258,4.898849 3.4275818,4.8619309 2.3904126,4.8002786 1.6782273,4.6907523 1.1638547,4.5137949 1.0537541,4.4759239 0.87261848,4.4131934 0.76134198,4.3744061 0.59561848,4.3166451 0.53663578,4.236688 0.43538368,3.932544 0.36739058,3.7283019 0.30185618,3.3598361 0.28975178,3.1137218 0.27765648,2.8676106 0.22140438,2.5553419 0.16477348,2.4197954 0.10813648,2.284249 0.04288918,2.0124231 0.01976768,1.8157406 c -0.034245,-0.2914135 -0.02361,-0.3576106 0.057602,-0.3576106 0.054789,0 0.129398,0.09759 0.1657876,0.2168687 0.057743,0.1892574 0.072819,0.1296118 0.1184451,-0.4685328 0.028772,-0.37697218 0.070916,-0.69692258 0.093702,-0.71100318 0.022785,-0.014081 0.1863465,-0.00925 0.363478,0.010721 0.25431212,0.02865 0.33405842,0.067877 0.37912852,0.1864198 0.051206,0.134679 0.117602,0.1547737 0.6454291,0.1953295 0.3235943,0.024862 1.0087362,0.038027 1.5225438,0.029291 0.7321792,-0.012492 1.0171632,0.00922 1.3178803,0.10042428 0.2110288,0.063992 0.3861873,0.1367407 0.3892447,0.1616581 0.00315,0.024893 0.019426,0.1203785 0.036335,0.2121345 0.063305,0.3430322 0.082462,2.7510689 0.023122,2.9071223 -0.049426,0.1300119 -0.040486,0.1623667 0.044881,0.1623667 0.084404,0 0.090272,0.019701 0.028192,0.094517 -0.062275,0.075036 -0.053641,0.1009497 0.041872,0.1257144 0.078033,0.02025 0.055599,0.033928 -0.063839,0.038934 -0.101287,0.00425 -0.2355751,0.067801 -0.2984246,0.1411972 -0.1103938,0.1289338 -0.2272597,0.1687474 -0.2953781,0.100629 z m 0.067028,-0.7949157 c 0.1437504,-0.088842 0.2771985,-0.5183891 0.2771985,-0.892252 0,-0.3930718 -0.00275,-0.3992049 -0.2085243,-0.4403288 -0.1146912,-0.022938 -0.3511567,-0.041704 -0.5254874,-0.041704 -0.571309,0 -0.7340057,0.0592 -0.7340057,0.2670855 0,0.2592297 -0.1376233,0.3441074 -0.6165868,0.3802679 C 2.4976787,3.4666196 2.3842519,3.4461554 2.131412,3.310554 1.9662596,3.2219806 1.8011073,3.0917518 1.7644092,3.0211502 1.7075797,2.9118225 1.6234565,2.8927877 1.1972175,2.8927877 c -0.45564332,0 -0.50223142,0.012401 -0.52024912,0.1384603 -0.010873,0.076151 0.056674,0.2907079 0.1501371,0.4767887 0.09346,0.1860778 0.1699293,0.370442 0.1699293,0.4096967 0,0.152379 0.27735412,0.1988908 1.40240042,0.2351979 0.6416448,0.020678 1.3167715,0.062214 1.5002714,0.092242 0.3038966,0.049731 0.5994946,0.019181 0.7570875,-0.078195 z M 0.88770708,3.8937078 c -0.021106,-0.055052 -0.050204,-0.1000914 -0.064633,-0.1000914 -0.014417,0 -0.026237,0.04504 -0.026237,0.1000914 0,0.055052 0.029077,0.1000914 0.064633,0.1000914 0.035544,0 0.047352,-0.04504 0.026237,-0.1000914 z M 3.0698276,3.0211564 c 0.071246,-0.085846 0.071438,-0.1149723 0.00122,-0.1584817 -0.05686,-0.03515 -0.062437,-0.068011 -0.016371,-0.096478 C 3.183013,2.686878 3.0034136,2.3489587 2.7645626,2.2203273 2.320147,1.9809937 1.966449,2.2955501 2.1864882,2.7344252 2.3655379,3.0915319 2.8745135,3.2567117 3.0700078,3.0211564 Z M 1.6476318,2.484441 c 0,-0.2485364 0.340604,-0.5631509 0.6760827,-0.6245007 0.1511389,-0.027611 0.2747947,-0.026298 0.2747947,0.00315 0,0.029291 0.06022,0.072382 0.1338177,0.095742 0.073598,0.023366 0.2237349,0.1181366 0.33364,0.2106135 0.109902,0.092477 0.1998254,0.1448866 0.1998254,0.1164627 0,-0.093799 -0.2881545,-0.3604542 -0.3953167,-0.3658207 -0.063088,-0.00315 -0.073256,-0.018235 -0.025412,-0.037673 0.1284053,-0.052233 0.3443486,0.097614 0.4583435,0.3180506 0.058137,0.1124249 0.090281,0.2198314 0.071426,0.2386769 -0.018845,0.018845 -0.00122,0.069667 0.039212,0.112929 0.05149,0.055116 0.2050026,0.063995 0.5131326,0.029658 0.6141281,-0.068402 0.7542499,-0.066243 0.7065714,0.010904 -0.02361,0.038186 0.035901,0.066725 0.1391475,0.066725 H 4.9532899 L 4.9141972,2.142377 C 4.8792431,1.6804599 4.8551381,1.6089237 4.6877011,1.4707506 4.5846347,1.3856958 4.4388257,1.2910931 4.3636945,1.2605189 4.2008116,1.1942363 1.2051435,1.2191049 0.84896858,1.2896881 l -0.2482004,0.04919 0.031329,0.6062417 c 0.017929,0.3472991 0.063683,0.6262479 0.107092,0.6530743 0.041671,0.025779 0.26313012,0.049636 0.49213062,0.053073 0.4051823,0.00608 0.4163613,0.00153 0.4163613,-0.1667132 z M 3.9459557,1.887625 C 3.849218,1.8192898 3.7996457,1.7254934 3.8125412,1.6351912 3.8296762,1.5150999 3.8714171,1.4944891 4.0665663,1.509712 c 0.2445718,0.01909 0.4175952,0.17525 0.3850083,0.3474977 -0.02697,0.1423606 -0.3220121,0.1601065 -0.5056189,0.030421 z" />
  </g>
</svg>
