<?xml version="1.0" encoding="UTF-8" standalone="no"?>
<svg
   xmlns:dc="http://purl.org/dc/elements/1.1/"
   xmlns:cc="http://creativecommons.org/ns#"
   xmlns:rdf="http://www.w3.org/1999/02/22-rdf-syntax-ns#"
   xmlns:svg="http://www.w3.org/2000/svg"
   xmlns="http://www.w3.org/2000/svg"
   width="20"
   height="20"
   viewBox="0 0 5.2916665 5.2916668"
   version="1.1"
   id="svg1021">
  <defs
     id="defs1015" />
  <metadata
     id="metadata1018">
    <rdf:RDF>
      <cc:Work
         rdf:about="">
        <dc:format>image/svg+xml</dc:format>
        <dc:type
           rdf:resource="http://purl.org/dc/dcmitype/StillImage" />
        <dc:title></dc:title>
      </cc:Work>
    </rdf:RDF>
  </metadata>
  <g
     id="layer1">
    <path
       id="path4178-1"
       style="fill:#000000;stroke:none;stroke-width:0.269;stroke-miterlimit:4;stroke-dasharray:none"
       d="m -11.840605,-6.2419889 c 0.03303,0.1273557 0.04776,0.3407155 0.03272,0.4741302 -0.02621,0.2325909 -0.03008,0.237631 -0.09391,0.1224794 -0.06025,-0.1086876 -0.100058,-0.068864 -0.07435,0.074372 0.0043,0.023741 -0.0126,0.069126 -0.0375,0.1008831 -0.02487,0.031757 -0.0575,0.1712336 -0.07248,0.3099475 -0.02699,0.2497846 -0.02669,0.250428 0.03086,0.067181 0.178177,-0.5673817 0.153656,-0.1028671 -0.06168,1.1686262 -0.07283,0.4300082 -0.125366,0.8797032 -0.116751,0.9993171 0.01376,0.1911617 0.02904,0.2155819 0.126101,0.2017663 0.07309,-0.010396 0.116344,-0.057548 0.127895,-0.139408 0.01525,-0.1081812 0.0074,-0.1153125 -0.06305,-0.056877 -0.07008,0.058164 -0.08051,0.050404 -0.08051,-0.05994 0,-0.069716 0.05497,-0.3392023 0.122149,-0.5988586 0.06718,-0.2596564 0.136465,-0.630991 0.153962,-0.8251911 0.0393,-0.4361832 0.07825,-0.6460518 0.113391,-0.6109109 0.03781,0.037813 0.333525,-0.1198611 0.38289,-0.2041583 0.03381,-0.057726 0.06509,-0.05285 0.178353,0.027792 0.07555,0.053791 0.169556,0.1621422 0.208909,0.2407737 0.03936,0.078634 0.113689,0.1912957 0.165184,0.2503595 0.09302,0.1066918 0.09068,0.1103914 -0.3634,0.5732022 -0.251366,0.2561979 -0.456349,0.4916038 -0.455521,0.5231255 8.93e-4,0.031519 0.08594,-0.037208 0.189154,-0.1527292 0.103206,-0.1155239 0.278083,-0.2857626 0.388618,-0.378308 l 0.200967,-0.1682697 -0.159091,0.2017633 c -0.181153,0.2297492 -0.707859,0.7455201 -0.643881,0.6305144 0.03627,-0.065206 0.0303,-0.066094 -0.04325,-0.00643 -0.04694,0.038075 -0.08535,0.093579 -0.08535,0.1233433 0,0.029758 -0.06099,0.1177789 -0.135538,0.1955882 -0.12301,0.1283954 -0.126507,0.1420264 -0.03783,0.1474478 0.05374,0.00331 0.126081,0.00238 0.16076,-0.00209 0.09119,-0.011826 0.07755,0.1344304 -0.01749,0.1876229 -0.05114,0.028626 0.257329,0.057848 0.844886,0.080058 0.508992,0.019243 1.1864701,0.066478 1.5055091,0.1049701 0.319038,0.038495 0.614119,0.070213 0.655732,0.07049 0.04161,2.502e-4 0.243786,0.01692 0.44927,0.036982 0.277955,0.027137 0.364361,0.021537 0.337498,-0.021924 -0.01987,-0.032132 -0.144928,-0.05842 -0.277934,-0.05842 -0.133007,0 -0.387024,-0.017009 -0.564484,-0.037813 l -0.322658,-0.037813 0.504413,-0.027763 c 0.313495,-0.017247 0.599869,-0.00506 0.756616,0.032237 0.138711,0.032999 0.202472,0.06251 0.141687,0.065578 -0.06078,0.00307 -0.125107,0.029192 -0.142938,0.058039 -0.02148,0.034751 0.01585,0.039695 0.110514,0.014656 0.07862,-0.020792 0.194012,-0.035457 0.256433,-0.032579 0.06242,0.00298 0.114213,-0.020732 0.115095,-0.05248 8.94e-4,-0.031742 0.03493,-0.013643 0.07566,0.040199 0.06213,0.082137 0.07406,0.084649 0.07406,0.015579 0,-0.045281 -0.02478,-0.097639 -0.05506,-0.1163551 -0.06706,-0.041444 -0.0272,-0.5488922 0.083,-1.0564088 0.161451,-0.7436434 0.182246,-0.8633198 0.249805,-1.4375705 0.01796,-0.1525832 0.04264,-0.3586747 0.05486,-0.4579761 0.01594,-0.1294856 -0.003,-0.2031812 -0.06692,-0.260556 -0.228739,-0.205305 -1.632441,-0.40669 -3.2669251,-0.4687028 -0.443884,-0.01683 -0.989636,-0.046434 -1.212784,-0.065766 l -0.405725,-0.035147 0.06006,0.2315573 z m 2.1132941,0.045927 c 0.05549,0.024426 0.407312,0.059701 0.781837,0.078402 1.175907,0.058712 1.281374,0.068629 1.484955,0.1396135 l 0.198707,0.06929 -0.955323,0.5465895 c -0.525429,0.3006238 -1.057467,0.6003838 -1.182308,0.6661319 -0.124842,0.065745 -0.317779,0.1759848 -0.428748,0.2449709 -0.3982431,0.2475743 -0.4152521,0.2513753 -0.5277491,0.1179755 -0.05608,-0.066502 -0.115956,-0.1719842 -0.133054,-0.234405 -0.0171,-0.062421 -0.04951,-0.1134924 -0.07202,-0.1134924 -0.03903,0 -0.293746,-0.3261671 -0.818244,-1.0477703 -0.361317,-0.4970938 -0.353161,-0.5098967 0.335639,-0.5269116 0.727787,-0.017992 1.1873041,0.00298 1.3163041,0.059606 z m 2.525313,1.0735786 c -0.06941,0.3758326 -0.16429,1.0318188 -0.210834,1.4577459 -0.04654,0.4259242 -0.09069,0.7819061 -0.0981,0.7910719 -0.02815,0.034804 -0.757444,-0.7648614 -0.837329,-0.9181268 -0.07115,-0.1365155 -0.76437,-0.8387536 -0.827977,-0.8387536 -0.0118,0 -0.02145,0.036827 -0.02145,0.08184 0,0.067077 -0.01367,0.070496 -0.07577,0.018945 -0.06475,-0.053738 -0.04456,-0.080443 0.138711,-0.1835181 0.11797,-0.066347 0.362026,-0.1905005 0.542354,-0.2758938 0.531007,-0.2514647 1.282455,-0.6858606 1.387786,-0.8022484 0.05371,-0.059344 0.104657,-0.086862 0.113227,-0.061152 0.0086,0.025707 -0.04121,0.3542482 -0.110624,0.7300808 z m -0.835361,-0.075525 c 1.02e-4,0.020792 0.130615,0.1059263 0.290037,0.189154 0.159423,0.083228 0.304047,0.1707688 0.321387,0.1945397 0.01734,0.023771 0.04524,0.02103 0.062,-0.00608 0.01677,-0.027107 -0.102992,-0.1316869 -0.266114,-0.2323704 -0.290356,-0.1792197 -0.407661,-0.2210451 -0.407307,-0.1452346 z m -0.06597,0.5261222 c -0.124461,0.045379 -0.139608,0.073681 -0.126102,0.2356114 0.0129,0.1546923 0.03581,0.1864225 0.143641,0.1989931 0.151529,0.017664 0.378615,-0.1562919 0.322518,-0.2470561 -0.02392,-0.038695 -0.01641,-0.047786 0.02058,-0.024932 0.08288,0.05122 0.07226,-0.064024 -0.01382,-0.1501109 -0.08256,-0.08256 -0.148222,-0.084932 -0.346822,-0.012511 z m -3.3188041,-0.8626346 c 0.06314,0.085411 0.107135,0.1609566 0.09776,0.1678853 -0.0094,0.00694 -0.10657,0.078912 -0.215981,0.1599677 -0.13191,0.097726 -0.188508,0.1198075 -0.167993,0.065552 0.01701,-0.045004 0.04669,-0.1868693 0.06594,-0.3152587 0.01924,-0.1283894 0.05086,-0.2334339 0.07023,-0.2334339 0.01936,0 0.08689,0.06988 0.150037,0.155288 z m 1.9933411,1.0859168 c 0.04388,0.01683 0.07979,0.062948 0.07979,0.1024649 0,0.039517 0.03405,0.084914 0.07566,0.1008801 0.04161,0.015966 0.07566,0.050646 0.07566,0.077056 0,0.026422 -0.0227,0.033994 -0.05044,0.01686 -0.02773,-0.017158 -0.05044,-0.00715 -0.05044,0.022252 0,0.029371 0.04948,0.053419 0.109944,0.053419 0.07397,0 0.306299,0.2003275 0.709983,0.6121858 l 0.600036,0.6121858 -0.344285,-0.031793 c -0.189356,-0.017486 -0.514522,-0.044932 -0.722592,-0.060997 -0.208069,-0.016056 -0.469102,-0.036604 -0.580071,-0.045644 -0.110972,-0.00906 -0.6138871,-0.018737 -1.1175931,-0.021567 -0.912,-0.00509 -0.915708,-0.00557 -0.887383,-0.1138856 0.01948,-0.074527 0.01007,-0.09741 -0.02994,-0.072686 -0.03211,0.019839 -0.05839,0.081482 -0.05839,0.1369654 0,0.055486 -0.0227,0.086856 -0.05044,0.06971 -0.08059,-0.049812 -0.06083,-0.099543 0.113493,-0.285563 0.09016,-0.096212 0.340724,-0.3643285 0.556804,-0.5958114 l 0.392871,-0.4208781 0.164382,0.1593243 c 0.171916,0.1666283 0.278584,0.1966874 0.370784,0.1044905 0.03949,-0.039487 0.06435,-0.039433 0.08885,2.025e-4 0.0357,0.057774 0.215239,-0.1281332 0.324743,-0.3362741 0.06293,-0.1196049 0.09888,-0.1326431 0.228579,-0.082876 z m -0.9794761,0.8257183 c 0,0.07576 0.209657,0.1928388 0.378308,0.2112568 0.08323,0.00909 0.1652431,0.035621 0.1822551,0.058959 0.04437,0.060872 0.318947,0.068253 0.33906,0.00912 0.0093,-0.027316 -0.149593,-0.1112732 -0.353087,-0.1865327 -0.3953941,-0.1462324 -0.5465361,-0.1718948 -0.5465361,-0.092799 z m -0.353086,0.7073377 c 0,0.027733 -0.01001,0.05044 -0.02225,0.05044 -0.01224,0 -0.03627,-0.022699 -0.05342,-0.05044 -0.01716,-0.027733 -0.0071,-0.050443 0.02225,-0.050443 0.02937,0 0.05342,0.022698 0.05342,0.050443 z m 1.8377871,0.095524 c 0.01534,0.024784 -0.02871,0.041819 -0.09787,0.037831 -0.06915,-0.00399 -0.12575,-0.024277 -0.125768,-0.045084 -5.1e-5,-0.053398 0.189961,-0.047235 0.223636,0.00724 z m -0.664073,0.038445 c -0.03415,0.013822 -0.102245,0.014656 -0.151323,0.00179 -0.04908,-0.012779 -0.02115,-0.024099 0.06209,-0.025111 0.08323,-8.936e-4 0.123382,0.00944 0.08923,0.023264 z m -2.5276611,-2.0003202 c 0,0.069359 0.01144,0.097732 0.02544,0.063052 0.014,-0.034679 0.014,-0.091425 0,-0.1261017 -0.014,-0.034679 -0.02544,-0.00632 -0.02544,0.06305 z m 0.574969,0.1625474 c -0.102921,0.1469414 -0.09906,0.2067617 0.02031,0.3148029 0.06726,0.060869 0.139798,0.079183 0.226985,0.0573 0.104648,-0.026273 0.128136,-0.062495 0.128136,-0.1976556 0,-0.2845501 -0.225078,-0.38913 -0.375448,-0.1744476 z m -0.629392,0.1695237 c 0.0024,0.05876 0.01436,0.070714 0.03048,0.030476 0.01457,-0.036413 0.01278,-0.079918 -0.004,-0.09668 -0.01677,-0.016771 -0.02869,0.013047 -0.02648,0.066204 z" />
    <path
       id="path1489-4"
       style="fill:#000000;stroke-width:0.169333"
       d="m -11.944695,2.1154321 c -0.05787,-0.015444 -0.105214,-0.053164 -0.105214,-0.083801 0,-0.083755 -0.225715,-0.067011 -0.262044,0.019421 -0.02254,0.053622 -0.05086,0.044654 -0.09888,-0.031315 -0.03702,-0.058564 -0.09667,-0.088328 -0.132566,-0.066145 -0.04512,0.027871 -0.05508,-0.049997 -0.03227,-0.252326 -0.04437,-0.7956245 -0.21532,-1.2846369 -0.282228,-2.1107135 -0.03508,-0.4571081 -0.09569,-0.8866683 -0.134718,-0.9545882 -0.03903,-0.067913 -0.05255,-0.1513729 -0.03007,-0.1854677 0.09218,-0.1397203 2.464823,-0.1417086 3.3800513,-0.00284 0.3127793,0.047466 0.6770683,0.090394 0.8095245,0.0954 0.2499614,0.00944 0.8564364,0.1513232 0.9204365,0.2153233 0.020131,0.020131 0.00657,0.084685 -0.030143,0.1434732 -0.042041,0.067309 -0.049614,0.19426569 -0.02045,0.34296149 0.051082,1.1731674 0.2705153,1.5505007 0.2113291,2.59026031 -0.041799,0.1338231 -0.2707883,0.2355751 -0.3278509,0.1456958 -0.060624,-0.095489 -1.3320351,-0.07648 -1.7456539,0.026096 -0.3739466,0.092734 -1.8880296,0.1702967 -2.1192556,0.108551 z m 1.247502,-0.1414352 c 0.127287,-0.033729 0.06094,-0.042882 -0.225452,-0.031066 -0.223199,0.00923 -0.405815,-0.00664 -0.405815,-0.035256 0,-0.028617 0.0067,-0.055728 0.01502,-0.060265 0.0083,-0.00451 0.623755,-0.029611 1.3677492,-0.055703 1.6579404,-0.058153 1.5631402,-0.050398 1.5631402,-0.1278263 0,-0.035256 -0.1839694,-0.2838149 -0.4088221,-0.5523841 -0.4697051,-0.5610294 -0.8369268,-1.0391525 -0.8666794,-1.128407 -0.029398,-0.088168 -0.6304339,0.1905342 -0.9701779,0.4498652 l -0.284781,0.217372 -0.303431,-0.2132712 c -0.166885,-0.1173029 -0.334764,-0.2009973 -0.373059,-0.1859825 -0.0383,0.015018 -0.120072,0.1725157 -0.181722,0.3500091 -0.06165,0.1774899 -0.163103,0.4292443 -0.225452,0.559453 -0.06235,0.1302123 -0.113362,0.2803638 -0.113362,0.3336701 0,0.05331 -0.03011,0.1270346 -0.06691,0.1638349 -0.128437,0.1284371 0.01548,0.1976244 0.41114,0.1976244 0.424342,0 0.471619,0.031173 0.136731,0.090181 -0.11372,0.020024 -0.218863,0.048524 -0.233643,0.063308 -0.04607,0.04607 0.975333,0.015267 1.165516,-0.035185 z m 2.8215611,-0.6102846 c 0.00767,-0.1096836 0.021729,-0.2264788 0.031208,-0.2595476 0.036087,-0.1259837 3.55e-4,-0.2760606 -0.057141,-0.2404817 -0.033055,0.02045 -0.06012,0.2023962 -0.06012,0.4043522 0,0.3795665 0.061394,0.4478166 0.086066,0.095677 z M -11.990127,0.8305681 c 0.07493,-0.2132464 0.175963,-0.4659416 0.224512,-0.5615265 0.08759,-0.1724589 0.08543,-0.1766307 -0.281276,-0.5410866 -0.203252,-0.2020127 -0.393825,-0.4070895 -0.423496,-0.4557269 -0.08663,-0.1420353 -0.123403,-0.040756 -0.06241,0.1718944 0.03089,0.1076528 0.07457,0.4981511 0.09709,0.8677729 0.02251,0.3696147 0.06317,0.715232 0.09032,0.7680305 0.02975,0.057837 0.02063,0.1265518 -0.02297,0.1728459 -0.05591,0.059399 -0.05604,0.082846 -3.55e-4,0.1032751 0.03948,0.014557 0.05689,0.072024 0.0387,0.127759 -0.09411,0.2882706 0.223901,-0.322543 0.3401,-0.6532378 z m 3.9081864,0.510535 c 0,-0.1273435 -0.024356,-0.1989274 -0.06012,-0.1768153 -0.035512,0.021942 -0.059743,-0.044274 -0.0592,-0.1617863 7.101e-4,-0.1505669 0.015089,-0.177007 0.0592,-0.108757 0.045584,0.070533 0.058479,0.054936 0.0592,-0.071605 3.55e-4,-0.088977 -0.027267,-0.1792012 -0.061707,-0.2004896 -0.034439,-0.021303 -0.057158,-0.1513906 -0.050473,-0.2891227 0.00667,-0.1377286 -0.03876,-0.4465562 -0.1009886,-0.6862888 -0.1284335,-0.4947676 -0.1815516,-0.5231924 -0.5325336,-0.2850078 -0.12227,0.082977 -0.3271195,0.2043312 -0.4552157,0.2696841 -0.4089891,0.2086485 -0.4115347,0.2016187 0.4418092,1.2196319 0.5304069,0.6327588 0.5452939,0.6449262 0.625058,0.511025 0.080815,-0.1356622 0.08133,-0.1353497 0.047075,0.028155 -0.019882,0.094857 -0.00852,0.1653296 0.026628,0.1653296 0.033694,0 0.061266,-0.096288 0.061266,-0.2139671 z M -11.411484,0.0806838 c -0.05353,-0.053541 -0.09734,-0.073764 -0.09734,-0.044949 0,0.068087 0.13444,0.202524 0.168482,0.1684824 0.01441,-0.014415 -0.01761,-0.069997 -0.07114,-0.1235339 z m 1.293506,-0.2050377 c 0.3427594,-0.1685605 0.6763478,-0.3398549 0.7413031,-0.3806672 0.064955,-0.040802 0.2867226,-0.1771668 0.4928148,-0.3030262 0.3427947,-0.2093444 0.4470497,-0.3750114 0.2432192,-0.3864828 -0.03991,-0.00213 -0.26809,-0.024108 -0.5070628,-0.048584 -1.0038913,0.027232 -2.0287293,0.018001 -2.9545103,-0.074321 -0.585219,-0.060276 -0.613839,0.019527 -0.150936,0.4208936 0.19445,0.1686067 0.529398,0.4921403 0.744328,0.7189671 0.47214,0.4982754 0.484822,0.4987618 1.390844,0.053214 z m 1.9383435,-0.5976486 c -0.021125,-0.105629 -0.050942,-0.1795243 -0.066262,-0.1642041 -0.015302,0.015302 -0.00916,0.112879 0.013669,0.2168109 0.054155,0.2465601 0.1027284,0.1979973 0.052607,-0.052607 z m -1.9879495,-0.6576403 c 0.09699,-0.00643 0.152803,-0.037212 0.131114,-0.072305 -0.02077,-0.033623 -0.0572,-0.049088 -0.08097,-0.034404 -0.02375,0.014699 -0.413125,0.00213 -0.865249,-0.028013 -0.49847,-0.033161 -0.876212,-0.032984 -0.959662,7.101e-4 -0.115786,0.046482 -0.0947,0.056328 0.132925,0.06209 0.325234,0.00824 1.045583,0.068012 1.068348,0.088658 0.01534,0.013918 0.190314,0.00888 0.573491,-0.016545 z" />
    <path
       id="path419-0"
       style="fill:#000000;stroke:#000000;stroke-width:0.132292;stroke-miterlimit:4;stroke-dasharray:none"
       d="M 0.9826456,4.8646584 C 0.72352279,4.8062728 0.68478793,4.787739 0.59509064,4.679199 0.54314784,4.616349 0.50784264,4.5589191 0.51663274,4.5515716 c 0.008776,-0.00736 0.0573646,0.038038 0.10795639,0.1008553 0.0883129,0.1096552 0.10211193,0.1156219 0.34583665,0.149598 0.21420372,0.029853 0.87419252,0.033684 1.08440562,0.00626 0.059111,-0.0077 -0.4485244,-0.026214 -0.638422,-0.023293 C 1.2725794,4.7872719 0.83455041,4.663385 0.68858015,4.5792319 0.61575335,4.5372444 0.53955785,4.5025779 0.51926139,4.5021948 0.49896494,4.5018155 0.46703241,4.444014 0.44830397,4.3737555 0.42957176,4.3035008 0.39171056,4.1625362 0.36415775,4.0605017 0.33661261,3.9584672 0.31334034,3.8205297 0.31245902,3.7539772 0.31169599,3.6874247 0.30379876,3.564387 0.29517655,3.4805639 0.28655445,3.3967369 0.27751261,3.2508753 0.27507094,3.1564196 0.27201879,3.0345199 0.25126453,2.960066 0.20382358,2.8998521 0.16708392,2.8531951 0.13339642,2.7847005 0.12900148,2.7476404 0.1246141,2.7105805 0.11290168,2.6115882 0.10294413,2.5276588 0.06925673,2.2428543 0.12888698,1.3760824 0.20019924,1.1138782 0.26303042,0.88288478 0.39968035,0.61879136 0.48727926,0.55905532 0.56242956,0.50780861 0.9563595,0.44368373 1.1932822,0.44413134 1.3190591,0.44430962 1.5945601,0.43229643 1.8055019,0.41727515 2.6126627,0.35989473 3.2567807,0.36380933 3.8781568,0.42986872 4.5198444,0.4980865 4.7116344,0.54918528 4.9013067,0.70245515 5.1590333,0.91070818 5.2945768,1.6464613 5.2391203,2.5362012 5.2011593,3.1451119 5.1939871,3.5373677 5.2183273,3.6720659 5.2577259,3.8901888 5.2222594,4.1232268 5.1122823,4.3688281 4.9938005,4.6334184 4.9725236,4.660946 4.8464683,4.7126783 4.7142629,4.7669293 3.4273929,4.8709135 3.0308265,4.8593896 2.6648193,4.8487685 2.6389413,4.8492237 2.3390653,4.8725901 1.9837786,4.9002808 1.1183113,4.8951599 0.9826724,4.8646242 Z M 3.0411197,4.7136455 C 3.6676919,4.6233207 4.0942413,4.5717933 4.2596152,4.5664524 4.4896096,4.5590176 4.7966389,4.4549917 4.967789,4.3265069 L 5.1125919,4.2178076 5.1334605,3.992925 c 0.011484,-0.1236825 0.014917,-0.3341621 0.00771,-0.4677298 -0.01175,-0.216803 -0.012551,-0.5119137 -0.00191,-0.7027254 0.00229,-0.040391 -0.015261,-0.069273 -0.043439,-0.071643 -0.029719,-0.00265 -0.037579,-0.017146 -0.02125,-0.039556 0.020678,-0.028373 0.015871,-0.028828 -0.023578,-0.00228 -0.067299,0.0452 -0.4894645,0.051861 -0.5892908,0.00929 -0.049875,-0.02128 -0.1657631,-0.028676 -0.3086393,-0.019725 -0.2838678,0.017752 -0.4390324,0.00591 -0.4356789,-0.033304 0.00153,-0.016501 0.00305,-0.03931 0.00343,-0.050697 0.00153,-0.034291 0.090937,-0.035505 0.5351582,-0.00744 0.2335539,0.014756 0.4869121,0.020862 0.5630161,0.013542 0.076104,-0.00732 0.1607424,-0.00831 0.1880853,-0.00228 0.05767,0.012897 0.071294,-0.00265 0.1082083,-0.1228366 l 0.027125,-0.088376 -0.053542,0.0786 c -0.029453,0.043232 -0.066735,0.077493 -0.082853,0.076138 -0.039426,-0.00342 -0.03835,-0.00698 0.048952,-0.1671342 C 5.2269843,2.0792289 5.1404689,1.1224245 4.9175401,0.87485068 4.785083,0.72774852 4.3694944,0.55561484 4.0648191,0.52165391 3.9339109,0.50708785 3.7997141,0.48611119 3.766595,0.47511458 3.7334798,0.46411417 3.6376403,0.46437969 3.5536313,0.47587323 c -0.1065906,0.0144523 -0.1551456,0.0108487 -0.160689,-0.0119108 -0.00999,-0.0408723 -0.047861,-0.0439258 -0.1977529,-0.0158937 -0.1548175,0.0289046 -0.1365393,0.04792 0.030636,0.0318632 0.071873,-0.006904 0.1298056,-0.002276 0.1287259,0.0102797 -0.00396,0.0460159 -0.3300536,0.0610979 -1.3930869,0.0644206 -0.2013276,7.5864e-4 -0.4211432,0.003414 -0.488484,0.006411 -0.09059,0.003908 -0.1099249,-0.001896 -0.074338,-0.0222285 0.036854,-0.0210905 0.0198,-0.029739 -0.073071,-0.0370221 -0.1444558,-0.0114176 -0.52727232,0.0260975 -0.56163133,0.0549527 -0.025371,0.0213181 0.29709473,0.0223801 0.40433773,0.001138 0.042188,-0.008269 0.0515,-0.003035 0.029109,0.0161592 -0.018083,0.0155902 -0.1085629,0.03027 -0.2010147,0.0326597 C 0.57373337,0.61751302 0.54507413,0.62987892 0.39510948,0.86635368 0.21508933,1.1502214 0.17121548,1.3799857 0.19951601,1.8906666 c 0.0307878,0.5556726 0.11489985,0.9878029 0.18854316,0.9687419 0.019305,-0.005 0.0680274,0.00679 0.108315,0.025983 0.0740588,0.035467 0.64881433,0.089744 0.69657963,0.065764 0.01423,-0.00713 0.0092,-0.054539 -0.011179,-0.1053309 C 1.0889726,2.6143457 1.1307629,2.2331208 1.2739564,2.0049684 1.4848829,1.668883 1.9854912,1.3719668 2.3339871,1.3762455 c 0.3767315,0.00462 0.7573353,0.1313867 0.9294736,0.3095592 0.1077809,0.1115594 0.2227915,0.3803791 0.2936612,0.686403 0.04023,0.1737344 0.082422,0.3166601 0.093749,0.3176123 0.011331,7.586e-4 0.020144,0.02549 0.019534,0.054525 -3.816e-4,0.029018 7.629e-4,0.1413402 0.00305,0.2495652 0.00305,0.1481983 -0.00976,0.2227925 -0.052389,0.3022041 C 3.4772363,3.5640345 2.888468,3.804257 2.4632196,3.7685247 2.0432372,3.7332471 1.6390101,3.5142668 1.425661,3.2064981 L 1.3247817,3.0609664 1.0325016,3.0621043 c -0.1607537,7.587e-4 -0.37405706,-0.00542 -0.47400938,-0.01339 -0.16582789,-0.013238 -0.18310281,-0.00861 -0.19737896,0.053022 -0.020297,0.087674 0.0319328,0.5523383 0.0862367,0.7673583 0.0233105,0.092259 0.0330391,0.1901326 0.0216318,0.2174971 -0.0409672,0.098207 0.12193129,0.3926351 0.23828854,0.4306928 0.0163282,0.00535 0.082464,0.034177 0.14699648,0.064075 0.0955762,0.04429 0.27790092,0.066105 0.98336972,0.1176436 0.8020372,0.058602 0.89096,0.059686 1.2033381,0.014642 z M 0.57564499,4.3150854 c -0.0519886,-0.1003278 -0.0930316,-0.1963119 -0.0912042,-0.213298 0.003815,-0.035808 0.10964646,0.1163957 0.10740317,0.1545027 -7.6303e-4,0.013997 0.0238065,0.067831 0.0547548,0.1196579 0.0309409,0.051827 0.0488985,0.1003802 0.0399134,0.1078951 -0.008965,0.00751 -0.0588787,-0.068431 -0.11086717,-0.1687577 z M 3.9791696,1.3599537 C 3.8754481,1.2381337 3.8813116,1.1466899 3.9949646,1.1138935 4.265342,1.0358702 4.5535437,1.3050427 4.3346017,1.4311111 4.218252,1.4981041 4.0718507,1.4687781 3.9791815,1.3599536 Z m 0.2771112,0.019877 C 4.3943576,1.320887 4.2922956,1.1723929 4.1027414,1.1564651 3.9539364,1.1439853 3.9180095,1.1725484 3.965687,1.265536 c 0.027926,0.054497 0.069248,0.080196 0.2200408,0.1369209 0.00515,0.0019 0.036893,-0.00823 0.070553,-0.022646 z M 1.2686689,0.56526865 c 0.022585,-0.006828 0.048624,-0.003414 0.057829,0.007245 0.0092,0.0108107 -0.00927,0.0164248 -0.041089,0.012404 -0.035137,-0.004363 -0.041715,-0.0121384 -0.016749,-0.019649 z M 3.7370813,4.7502997 c 0.416569,-0.02716 0.7934913,-0.059714 0.9831409,-0.084927 0.1199816,-0.015969 0.1993132,-0.075323 0.2633576,-0.1971047 0.028385,-0.053993 0.052164,-0.104421 0.052817,-0.1120638 7.63e-4,-0.00762 -0.069657,0.029018 -0.1562481,0.081456 -0.1552296,0.094016 -0.4813574,0.1885129 -0.6125288,0.1774897 -0.037007,-0.00303 -0.2049291,0.015666 -0.3731797,0.041752 -0.1682467,0.02606 -0.4134062,0.060794 -0.5447951,0.077155 -0.236236,0.029398 -0.3343914,0.064971 -0.1416248,0.0513 0.054846,-0.00391 0.2929248,-0.019649 0.5290615,-0.03505 z M 2.8882326,3.6349603 C 2.9753846,3.6034013 3.0907277,3.5384753 3.1445476,3.490707 L 3.2423976,3.403856 3.0520804,3.489614 C 2.8767262,3.5686278 2.841547,3.5735781 2.6044984,3.5525786 2.4335926,3.5375195 2.3130539,3.5105078 2.2454118,3.472378 2.1894097,3.4407803 2.0584786,3.3998701 1.9544518,3.3814274 1.8504287,3.3629922 1.7391837,3.3310644 1.7072397,3.3105089 c -0.1201686,-0.077333 -0.1263682,-0.015666 -0.00855,0.084965 0.193583,0.1653743 0.6213074,0.3064412 0.9088529,0.2997386 0.067222,-0.00152 0.1935334,-0.028676 0.28069,-0.060252 z M 2.5351243,3.4723743 C 2.4536983,3.4292903 2.364371,3.4217833 2.3837327,3.4596293 c 0.00889,0.017373 0.059707,0.034291 0.1129428,0.037591 0.081594,0.00509 0.087633,0.00114 0.038449,-0.024845 z M 3.4000194,3.4332734 C 3.5335982,3.3517301 3.6083248,3.2334908 3.6176528,3.088915 l 0.00736,-0.1141995 -0.039368,0.087343 C 3.563976,3.1101003 3.5136546,3.1806587 3.4737824,3.2188567 3.3636361,3.324381 3.2046563,3.53865 3.2528718,3.5165885 3.2762589,3.5058915 3.3424775,3.4683952 3.4000133,3.4332732 Z M 1.9912714,3.2982377 C 1.9726919,3.2758955 1.88375,3.2106365 1.7936484,3.1532067 1.7035466,3.095777 1.6254015,3.0295242 1.6199956,3.0059795 c -0.00679,-0.029511 0.00267,-0.033987 0.029835,-0.014338 0.03117,0.02238 0.031207,0.015211 1.793e-4,-0.033532 -0.06113,-0.096106 -0.06467,-0.098468 -0.048761,-0.032546 0.01301,0.053913 0.00808,0.052188 -0.039315,-0.013731 C 1.5512899,3.0310997 1.45801,2.6255297 1.4739349,2.3663713 c 0.00847,-0.1181292 0.00626,-0.2102596 -0.00489,-0.2047176 -0.011179,0.00554 -0.043626,0.06945 -0.072179,0.1420266 -0.028538,0.072576 -0.061832,0.1311212 -0.073952,0.1301046 C 1.2577709,2.4283249 1.5148411,1.9515154 1.6081361,1.904775 1.6308361,1.893395 1.6509691,1.866221 1.6528381,1.84439 1.6547481,1.822541 1.7220141,1.754103 1.8024099,1.6922657 1.8828059,1.6304237 1.9422797,1.5792991 1.9345732,1.5786505 1.9069132,1.5763705 1.5839791,1.7416499 1.513075,1.7944292 1.4015706,1.8774372 1.2603501,2.1182889 1.2349071,2.268858 c -0.027621,0.1634738 -0.0071,0.4029072 0.048219,0.5619694 0.032657,0.09394 0.056788,0.1180876 0.1235832,0.1237015 0.089766,0.00755 0.129569,0.074284 0.072671,0.1218505 -0.025141,0.021014 -0.010874,0.041574 0.049627,0.071537 0.046697,0.023139 0.1109092,0.058871 0.1426968,0.079431 0.054377,0.035164 0.2125861,0.088493 0.3097456,0.1044011 0.034451,0.00565 0.036511,-0.00152 0.0098,-0.033457 z m 1.1186959,0.049517 c 0.044267,-0.038536 0.042912,-0.041335 -0.012972,-0.02678 -0.034298,0.00891 -0.1305534,0.023252 -0.2138718,0.031864 -0.2178661,0.022457 -0.2217957,0.050807 -0.00607,0.043865 C 2.977967,3.3932837 3.08278,3.3714407 3.1099627,3.3477667 Z M 2.8921736,3.2200893 C 3.0312118,3.1658648 3.1979517,3.0429106 3.3263724,2.8999051 3.3594494,2.8631106 3.3625396,2.8102328 3.341671,2.6401399 3.2853789,2.1812179 3.1135535,1.960432 2.7473403,1.8764609 2.5833169,1.8388319 1.9579121,1.9083242 1.7673316,1.9852968 c -0.1143772,0.046205 -0.131034,0.066564 -0.1754344,0.21436 -0.062362,0.207612 -0.049429,0.2639303 0.029719,0.1293801 0.061049,-0.1037981 0.1861854,-0.2006968 0.2151879,-0.1666298 0.00832,0.00975 -0.018389,0.038638 -0.059333,0.064167 -0.040947,0.025528 -0.104522,0.1002508 -0.141277,0.1660451 -0.1575187,0.2819708 0.050515,0.5655463 0.6283271,0.8564959 0.098338,0.049517 0.4703774,0.032319 0.6276557,-0.029018 z M 3.2178512,3.1937642 C 3.4397806,3.0798226 3.4884539,3.0232046 3.5021616,2.8630045 3.5087236,2.7863582 3.499491,2.6612418 3.4819795,2.5849671 3.4302199,2.3613097 3.2261034,2.0239954 3.0930206,1.9421941 c -0.031856,-0.019611 -0.011484,0.010659 0.045347,0.06719 0.056807,0.056545 0.1279476,0.1510281 0.1580832,0.2099676 0.05197,0.1016366 0.1392709,0.5026088 0.1319573,0.6060658 -0.00503,0.071434 -0.2256107,0.300425 -0.378826,0.3933179 -0.1716727,0.1040749 -0.047094,0.085587 0.1682545,-0.02496 z M 0.24975377,2.8188435 C 0.24342067,2.7971841 0.22373469,2.6731412 0.20602871,2.5432073 0.16898392,2.2715616 0.13864991,2.2305566 0.14695157,2.4633519 c 0.00778,0.2178385 0.0436369,0.3889442 0.0822155,0.3921874 0.0176263,0.00152 0.0268966,-0.015021 0.0206021,-0.03668 z M 3.4685809,2.1985644 C 3.4611032,2.1522299 3.4066424,2.0194056 3.3475806,1.903393 3.2606036,1.7325641 3.2119531,1.6751989 3.0916394,1.6016137 2.9437846,1.5111865 2.5705706,1.4109159 2.6594362,1.4854986 c 0.023462,0.019687 0.062148,0.037667 0.085947,0.03992 0.068402,0.00645 0.4103886,0.2768615 0.5109857,0.4039921 0.050245,0.063503 0.1158346,0.1685112 0.1457451,0.2333491 0.06454,0.1398949 0.085073,0.1509561 0.066467,0.035808 z M 2.1240185,1.8620845 c 0.2008393,-0.029398 0.4014726,-0.037402 0.5737748,-0.022912 0.1457184,0.012252 0.2652919,0.018131 0.2657192,0.013087 3.586e-4,-0.00504 -0.07272,-0.050276 -0.1625469,-0.1005249 C 2.665113,1.6757413 2.6104347,1.6612511 2.4758717,1.6655716 2.2375144,1.673234 1.9584615,1.7419221 1.825825,1.8256087 1.7048934,1.901906 1.6602947,1.9729383 1.7598121,1.9307385 1.7902567,1.9178414 1.9541618,1.8869264 2.1240185,1.8620769 Z M 2.3117224,1.6286861 2.482178,1.5968611 2.2913114,1.5891611 c -0.1363598,-0.0055 -0.2070541,0.00652 -0.2475668,0.042056 -0.054033,0.047415 -0.053069,0.049278 0.020411,0.039549 0.042416,-0.00561 0.153818,-0.024542 0.2475669,-0.042055 z M 2.5480766,1.5395151 C 2.5391866,1.5221421 2.4814876,1.5054901 2.419839,1.5024931 l -0.1120958,-0.00542 0.1040801,0.030991 c 0.1532572,0.04566 0.1537684,0.045702 0.1362531,0.011455 z M 1.8885341,0.50268768 c 0.041711,-0.004628 0.2634035,-0.005879 0.4926577,-0.002655 0.2442973,0.003414 0.4604505,-0.009559 0.522225,-0.0311426 l 0.1054002,-0.0367945 -0.1070713,0.003907 c -0.058886,0.002276 -0.3065371,0.009559 -0.5503308,0.0164248 -0.4870572,0.0137316 -1.0220665,0.0580518 -0.7064189,0.0585032 0.092238,1.3277e-4 0.2018312,-0.003414 0.2435381,-0.008194 z m 2.9988551,0.24986488 c 0.00191,-0.0237842 -0.2376438,-0.15319784 -0.2914865,-0.15740828 -0.024989,-0.001898 0.026782,0.0345567 0.1150373,0.0811717 0.088263,0.0466035 0.1637525,0.0865244 0.1677584,0.0887163 0.00401,0.002276 0.00794,-0.003419 0.0087,-0.0124799 z" />
    <path
       id="path7775-6"
       style="fill:#000000;stroke-width:0.362463"
       d="m 46.499346,17.35639 c -0.0591,-0.0591 -1.77137,-0.20641 -3.805,-0.32728 -3.3957,-0.20185 -5.7274,-0.56044 -7.41146,-1.1398 -0.36047,-0.12399 -0.95351,-0.32937 -1.31783,-0.45636 -0.54258,-0.18911 -0.73569,-0.45089 -1.06719,-1.44666 -0.22261,-0.66869 -0.43717,-1.87505 -0.4768,-2.68083 -0.0396,-0.80577 -0.22377,-1.82814 -0.40918,-2.27192 -0.18543,-0.44378 -0.39905,-1.33374 -0.47475,-1.97768 -0.11212,-0.95409 -0.0773,-1.17082 0.18859,-1.17082 0.17938,0 0.42365,0.31951 0.54279,0.71003 0.18905,0.61963 0.23841,0.42435 0.38779,-1.53398 0.0942,-1.23421 0.23218,-2.28173 0.30678,-2.32783 0.0746,-0.0461 0.6101,-0.0303 1.19003,0.0351 0.83262,0.0938 1.09371,0.22223 1.24127,0.61034 0.16765,0.44094 0.38503,0.50673 2.11314,0.63951 1.05945,0.0814 3.30261,0.1245 4.98482,0.0959 2.39716,-0.0409 3.3302,0.0302 4.31475,0.32879 0.69091,0.20951 1.26438,0.44769 1.27439,0.52927 0.0103,0.0815 0.0636,0.39412 0.11896,0.69453 0.20726,1.12309 0.26998,9.00702 0.0757,9.51794 -0.16182,0.42566 -0.13255,0.53159 0.14694,0.53159 0.27634,0 0.29555,0.0645 0.0923,0.30945 -0.20389,0.24567 -0.17562,0.33051 0.13709,0.41159 0.25548,0.0663 0.18203,0.11108 -0.20901,0.12747 -0.33161,0.0139 -0.77127,0.22198 -0.97704,0.46228 -0.36143,0.42213 -0.74405,0.55248 -0.96707,0.32946 z m 0.21945,-2.60256 c 0.47064,-0.29087 0.90755,-1.69721 0.90755,-2.92124 0,-1.28692 -0.009,-1.307 -0.68271,-1.44164 -0.3755,-0.0751 -1.14969,-0.13654 -1.72045,-0.13654 -1.87047,0 -2.40314,0.19382 -2.40314,0.87444 0,0.84872 -0.45058,1.12661 -2.01871,1.245 -1.1515,0.087 -1.52286,0.02 -2.35066,-0.42396 -0.54071,-0.28999 -1.08142,-0.71636 -1.20157,-0.94751 -0.18606,-0.35794 -0.46148,-0.42026 -1.85699,-0.42026 -1.49178,0 -1.64431,0.0406 -1.7033,0.45332 -0.0356,0.24932 0.18555,0.95178 0.49155,1.56101 0.30599,0.60922 0.55635,1.21283 0.55635,1.34135 0,0.49889 0.90806,0.65117 4.59147,0.77004 2.10075,0.0677 4.31112,0.20369 4.9119,0.302 0.99496,0.16282 1.96275,0.0628 2.47871,-0.25601 z m -12.34002,-0.89469 c -0.0691,-0.18024 -0.16437,-0.3277 -0.21161,-0.3277 -0.0472,0 -0.0859,0.14746 -0.0859,0.3277 0,0.18024 0.0952,0.3277 0.21161,0.3277 0.11637,0 0.15503,-0.14746 0.0859,-0.3277 z m 7.14428,-2.85674 c 0.23326,-0.28106 0.23389,-0.37642 0.004,-0.51887 -0.18616,-0.11508 -0.20442,-0.22267 -0.0536,-0.31587 0.42017,-0.25969 -0.16784,-1.36604 -0.94984,-1.78718 -1.45502,-0.78358 -2.61303,0.24628 -1.89262,1.68316 0.58621,1.16917 2.2526,1.70997 2.89265,0.93876 z m -4.65628,-1.75721 c 0,-0.81371 1.11514,-1.84376 2.2135,-2.04462 0.49483,-0.0904 0.89968,-0.0861 0.89968,0.0103 0,0.0959 0.19716,0.23698 0.43812,0.31346 0.24096,0.0765 0.73251,0.38678 1.09234,0.68955 0.35982,0.30277 0.65423,0.47436 0.65423,0.3813 0,-0.3071 -0.94342,-1.18013 -1.29427,-1.1977 -0.20655,-0.0103 -0.23984,-0.0597 -0.0832,-0.12334 0.4204,-0.17101 1.1274,0.31959 1.50062,1.0413 0.19034,0.36808 0.29558,0.71973 0.23385,0.78143 -0.0617,0.0617 -0.004,0.22809 0.12838,0.36973 0.16858,0.18045 0.67118,0.20952 1.68,0.0971 2.01066,-0.22395 2.46942,-0.21688 2.31332,0.0357 -0.0773,0.12502 0.11754,0.21846 0.45557,0.21846 h 0.59061 l -0.12799,-1.69259 c -0.11444,-1.51232 -0.19336,-1.74653 -0.74155,-2.19891 -0.33744,-0.27847 -0.81482,-0.5882 -1.0608,-0.6883 -0.53328,-0.21701 -10.34112,-0.13559 -11.50724,0.0955 l -0.81261,0.16105 0.10257,1.98484 c 0.0587,1.13706 0.2085,2.05034 0.35062,2.13817 0.13643,0.0844 0.86149,0.16251 1.61124,0.17376 1.32657,0.0199 1.36317,0.005 1.36317,-0.54582 z m 7.52473,-1.95398 c -0.31672,-0.22373 -0.47902,-0.53082 -0.4368,-0.82647 0.0561,-0.39318 0.19276,-0.46066 0.83168,-0.41082 0.80073,0.0625 1.36721,0.57377 1.26052,1.13771 -0.0883,0.46609 -1.05427,0.52419 -1.6554,0.0996 z" />
  </g>
</svg>
