<?xml version="1.0" encoding="UTF-8" standalone="no"?>
<svg
   xmlns:dc="http://purl.org/dc/elements/1.1/"
   xmlns:cc="http://creativecommons.org/ns#"
   xmlns:rdf="http://www.w3.org/1999/02/22-rdf-syntax-ns#"
   xmlns:svg="http://www.w3.org/2000/svg"
   xmlns="http://www.w3.org/2000/svg"
   xmlns:sodipodi="http://sodipodi.sourceforge.net/DTD/sodipodi-0.dtd"
   xmlns:inkscape="http://www.inkscape.org/namespaces/inkscape"
   width="78"
   height="150"
   viewBox="0 0 20.6375 39.687501"
   version="1.1"
   id="svg79"
   sodipodi:docname="kaktus.svg"
   inkscape:version="1.0.2 (e86c8708, 2021-01-15)">
  <sodipodi:namedview
     pagecolor="#ffffff"
     bordercolor="#666666"
     borderopacity="1"
     objecttolerance="10"
     gridtolerance="10"
     guidetolerance="10"
     inkscape:pageopacity="0"
     inkscape:pageshadow="2"
     inkscape:window-width="1123"
     inkscape:window-height="691"
     id="namedview839"
     showgrid="false"
     inkscape:zoom="2.1508826"
     inkscape:cx="26.043634"
     inkscape:cy="56.952203"
     inkscape:window-x="189"
     inkscape:window-y="1075"
     inkscape:window-maximized="0"
     inkscape:current-layer="svg79"
     inkscape:document-rotation="0" />
  <defs
     id="defs73" />
  <metadata
     id="metadata76">
    <rdf:RDF>
      <cc:Work
         rdf:about="">
        <dc:format>image/svg+xml</dc:format>
        <dc:type
           rdf:resource="http://purl.org/dc/dcmitype/StillImage" />
        <dc:title />
      </cc:Work>
    </rdf:RDF>
  </metadata>
  <g
     id="g885">
    <path
       id="path965"
       style="fill:#000000;fill-opacity:1;fill-rule:nonzero;stroke:#000000;stroke-width:0;stroke-linecap:butt;stroke-linejoin:miter;stroke-miterlimit:4;stroke-dasharray:none;stroke-opacity:1"
       d="m 16.543158,6.2868965 c 0.459729,-0.042879 0.56327,-0.5145307 0.117151,-0.5362792 -0.392792,-0.019157 -0.738562,0.2477844 -0.568625,0.4375192 0.06489,0.07198 0.268088,0.1162902 0.451474,0.098757 z M 15.695294,6.0308864 C 15.951422,5.4713861 16.799223,5.2783281 17.118656,5.7062027 17.345902,6.0101862 17.058022,6.568437 16.574102,6.7618806 16.2927,6.8743246 16.13591,6.8610959 15.8719,6.7023743 15.498038,6.4774071 15.495283,6.4678632 15.695294,6.0309036 Z m -0.802807,0.5640285 c 0.415681,0.6072519 1.11349,0.8800633 2.109736,0.8254045 1.575196,-0.086422 2.195838,-1.3704253 1.104394,-2.2838224 -0.285029,-0.2379876 -1.600639,-0.5215044 -2.094679,-0.4514837 -0.43084,0.061635 -1.421363,0.9038314 -1.436654,1.2224604 -0.0055,0.1144238 0.137052,0.424572 0.317203,0.6874412 z M 8.8223353,2.3965357 C 9.0921603,2.4096844 9.669583,2.0749394 9.564105,1.9662821 9.3410371,1.7395514 8.8794438,1.7055802 8.6671422,1.8996121 8.3937472,2.1494872 8.4650912,2.3791164 8.8223353,2.39653 Z M 8.3546048,1.8270349 C 8.9519248,1.3150436 10.011134,1.6160598 9.7457614,2.222165 9.5305154,2.7148465 8.3609691,2.8325204 8.1488646,2.3834078 8.0494528,2.1727061 8.0950098,2.0511175 8.3546048,1.8270349 Z M 7.5789005,2.9643738 c 0.3530276,0.2757066 1.844467,0.3887012 2.6612905,0.2020767 0.933111,-0.2118346 1.261,-1.0069308 0.747323,-1.8118753 C 10.419881,0.46288879 9.495201,0.26165552 8.2935502,0.76830161 7.4445949,1.1254002 6.9950173,2.5086113 7.5789005,2.9643738 Z M 2.8400731,8.2588792 c 1.1631397,0.5575217 3.6116519,3.0754198 4.8327243,4.9697198 0.6832365,1.277259 2.1233222,3.519506 2.2486192,4.711419 -0.0052,0.107672 0.0441,0.219181 0.1089704,0.248813 0.259098,0.11497 1.006408,2.277615 1.112158,3.214424 0.145232,1.29487 0.04067,4.045616 -0.427366,11.230171 -0.319265,4.918257 -0.414429,5.878796 -0.59471,6.002049 -0.3351577,0.228342 -0.2626564,0.312157 0.235384,0.274386 0.252946,-0.01852 1.473661,-0.08873 2.713863,-0.157083 2.56556,-0.140197 2.661147,-0.154062 2.539483,-0.375851 -0.06419,-0.116939 -0.118797,-0.117249 -0.198581,-6.64e-4 -0.252886,0.370271 -0.476301,-0.938695 -0.498901,-2.920444 -0.0084,-0.700913 -0.04803,-1.944759 -0.08848,-2.763394 -0.115829,-2.34566 -0.140042,-5.261489 -0.04893,-5.876092 0.408853,-2.743855 0.594572,-3.619401 0.934936,-4.412715 1.213805,-2.82313 1.926561,-5.454535 1.869292,-6.902446 -0.02255,-0.552502 -0.06689,-1.67365 -0.100577,-2.493133 -0.0787,-1.975071 0.151892,-3.2622005 0.828038,-4.6076045 0.291376,-0.5819148 0.58033,-1.2777418 0.642322,-1.5470377 l 0.11264,-0.4909239 -0.225252,0.4395538 c -0.33852,0.6575371 -0.84698,0.8880143 -2.008242,0.9060996 -0.827793,0.013469 -1.126186,-0.04344 -1.593189,-0.2994027 L 14.65966,7.0945713 14.63936,7.5173571 c -0.01112,0.2326617 0.204341,1.0186615 0.478819,1.7443104 1.141851,3.0217745 1.60952,7.0676195 1.089645,9.4349275 -0.234986,1.068419 -1.394758,3.672448 -1.671325,3.751011 -0.07964,0.02228 -0.311724,-0.302513 -0.513787,-0.723493 -0.724474,-2.887056 0.522322,-5.295067 0.04377,-7.740755 -0.314545,-1.594851 -0.60336,-2.399129 -1.677746,-4.6903525 -0.785643,-1.6742794 -1.475855,-4.4546547 -1.341298,-5.4082758 0.0402,-0.2900636 0.05396,-0.5281874 0.02892,-0.5294095 -0.02389,-0.00115 -0.242312,0.1317001 -0.485244,0.2945414 -0.367856,0.2461548 -0.6219144,0.2878848 -1.524639,0.2438776 l -1.0849547,-0.050558 0.668044,0.8930482 c 0.3677503,0.4922823 0.7625861,1.08352 0.8793188,1.3168307 0.1153448,0.2317737 0.5745279,1.0767076 1.0189109,1.8770964 0.445243,0.8007322 0.922695,1.7153709 1.061346,2.0335601 0.137792,0.3178564 0.296012,0.6117104 0.350959,0.6535024 0.156385,0.11908 0.863793,2.066279 1.110601,3.058192 0.182679,0.733523 0.203145,1.353857 0.108442,3.36988 -0.101532,2.163906 -0.166125,2.633938 -0.518954,3.778364 -0.222632,0.719651 -0.374575,1.360103 -0.340016,1.425018 0.03578,0.06379 9.91e-4,0.151787 -0.07776,0.196185 -0.0786,0.04323 -0.164399,-0.06772 -0.191126,-0.247232 C 11.350274,16.66765 9.2330812,13.048715 5.5504862,9.4269256 4.9970087,8.8853048 4.3700279,8.1104189 4.1578798,7.7048271 3.945662,7.3007082 3.7313272,6.9650044 3.6815594,6.9614019 3.6326672,6.9576255 3.545443,7.1076902 3.4897522,7.2943616 3.4220298,7.518681 3.2188682,7.6866972 2.8885859,7.789111 2.6143749,7.873381 2.3885609,7.9655965 2.3872382,7.9931732 2.3859782,8.0195852 2.590143,8.1409915 2.8399963,8.2599205 Z M 2.1408852,6.5176494 C 2.3572301,6.4523183 2.5377381,6.3061399 2.5432291,6.1917149 2.5582542,5.8786601 1.9092169,5.8067341 1.6774777,6.0954062 1.3957036,6.4469204 1.6394963,6.6678972 2.1408852,6.5176528 Z M 1.6175028,5.8236853 C 1.9608975,5.539284 2.4163719,5.5547259 2.6904076,5.8574666 3.1357091,6.3526452 2.7616713,6.8008252 1.9157268,6.7848787 1.4529359,6.7758383 1.3878323,6.7326733 1.3666422,6.4134493 1.3519952,6.19541 1.4524041,5.9591549 1.6175017,5.8236911 Z M 0.46541365,6.9347374 C 0.53383519,7.0792336 0.85213859,7.3176629 1.1712982,7.4652626 1.6667813,7.6938025 1.8461167,7.7119587 2.3700251,7.5916324 2.7102234,7.5138164 3.0856949,7.3218478 3.2062051,7.1659824 3.5457134,6.7252339 3.5232431,5.8118928 3.1619431,5.3555101 2.4389509,4.4450768 1.8841578,4.3995053 1.0276107,5.18265 0.36052126,5.7912326 0.18466416,6.3396499 0.46540792,6.9347374 Z M 0.41519201,5.1998484 C 1.143541,4.3554603 2.2256099,4.1070671 2.9404132,4.6221517 3.5392575,5.0521788 3.7416328,5.424058 3.8748496,6.3301506 c 0.1210202,0.8316801 0.1656123,0.9006136 1.6486645,2.5212516 0.8388951,0.9175545 1.5910965,1.6697218 1.6721032,1.6736728 0.1431993,0.0648 0.2312808,0.29961 0.4229563,0.504383 0.3532981,0.246111 3.0018734,4.059985 2.9813454,4.487755 -0.0033,0.06631 0.154005,0.52774 0.350052,1.02547 0.195164,0.497694 0.531582,1.551615 0.746989,2.33967 0.466769,1.709316 0.616117,1.950686 0.658739,1.062576 0.01716,-0.357648 0.09697,-0.669606 0.178138,-0.693292 0.07964,-0.02229 0.216608,-0.685533 0.302344,-1.473907 0.167656,-1.546049 0.0634,-3.061832 -0.309387,-4.465427 C 12.018625,11.394524 9.5415809,6.2637851 8.921385,5.8465403 8.8164146,5.7758423 8.4922306,5.3556737 8.1995011,4.912926 7.9070064,4.4713683 7.5165178,3.95386 7.3316684,3.7645773 6.9088027,3.3313666 6.6704689,2.3272212 6.8308194,1.6515885 6.966859,1.0747627 7.6959689,0.31187086 8.2986802,0.11363348 c 0.9759777,-0.32002737 2.1711648,0.0931846 2.9729988,1.02835072 0.441694,0.5155869 0.446477,0.5375837 0.317828,1.4838466 -0.07207,0.5281875 -0.181751,1.2189324 -0.243605,1.5341169 -0.173624,0.8852494 0.21647,2.3117445 1.450453,5.2941953 1.186701,2.872216 1.296852,3.16961 1.435447,3.890691 0.07606,0.393071 0.219774,0.770033 0.321702,0.837056 0.107239,0.07198 0.145461,0.249414 0.09213,0.429732 -0.04899,0.168769 -0.05734,0.817404 -0.01663,1.44196 0.0593,0.931014 0.01301,1.37223 -0.25995,2.44674 -0.271731,1.073384 -0.311119,1.443772 -0.216537,2.041254 0.17994,1.143635 0.272768,1.205506 0.737338,0.489711 0.975876,-1.504594 1.497365,-4.434993 1.178084,-6.625004 C 15.887177,13.157914 15.103456,10.116835 14.51302,8.3673765 14.345259,7.8707274 14.190494,7.0544583 14.167615,6.5513461 14.119935,5.481794 14.301683,5.1392275 15.200232,4.6007454 c 0.50033,-0.2985112 0.683215,-0.3298859 1.449186,-0.2419619 1.072454,0.1222684 1.90358,0.5627378 2.160799,1.1428524 0.105097,0.2383332 0.245221,0.4771928 0.312163,0.5307473 0.226317,0.183362 -0.110815,1.743213 -0.631715,2.9206135 -0.47602,1.0760743 -0.76796,2.2358223 -0.671013,2.6622603 0.168775,0.743431 0.05792,5.286895 -0.144863,5.921638 -0.107537,0.335894 -0.232058,0.910051 -0.276699,1.274298 -0.045,0.365412 -0.39643,1.340809 -0.781971,2.168674 -0.385247,0.827884 -0.786859,1.777604 -0.893078,2.110324 -0.290557,1.353793 -0.802472,7.101593 -0.431107,12.245455 0.06538,0.159345 0.177221,0.822953 0.248481,1.474292 0.07331,0.6632 0.223523,1.28839 0.341715,1.418254 0.263164,0.291911 2.595885,0.70677 3.804141,0.677148 0.491295,-0.01281 0.895025,0.0401 0.94129,0.122937 0.09419,0.173392 -1.085238,0.217065 -5.33192,0.198258 -1.700686,-0.007 -3.142534,-0.01526 -3.205239,-0.01713 -0.06242,-0.0017 -0.08443,0.04882 -0.04756,0.114724 0.120598,0.219676 -8.0638131,0.499742 -8.8543798,0.303574 l -0.5558786,-0.138554 0.5051549,0.0087 c 0.2781284,0.0045 0.6923538,-0.04565 0.9192875,-0.112524 0.2278242,-0.06712 1.2072607,-0.17318 2.1768031,-0.237372 C 9.0917221,38.959662 9.5860225,38.83554 9.9520066,38.220518 10.16303,37.864374 10.892696,24.205706 10.770724,22.870509 10.648308,21.526169 9.7784569,17.991535 9.2690099,16.769784 9.0008296,16.125908 8.5909067,15.374247 8.3576786,15.097617 8.1235841,14.820647 7.8607423,14.400236 7.7740027,14.162802 7.5914216,13.664545 4.4904658,10.287593 3.0499106,9.0169271 2.5093758,8.5403339 1.8230952,8.0760506 1.508441,7.9745453 1.1961167,7.8731557 0.73838234,7.6188061 0.49165565,7.4103372 0.0850495,7.0643742 0.04642056,6.9625039 0.07876206,6.288574 0.12552251,5.8939395 0.1987496,5.4587124 0.41519545,5.1998152 Z M 2.140884,6.5176494 C 2.357229,6.4523183 2.5377369,6.3061399 2.5432279,6.1917149 2.5582531,5.8786601 1.9092158,5.8067341 1.6774765,6.0954062 1.3957025,6.4469204 1.6394951,6.6678972 2.140884,6.5176528 Z M 1.6175017,5.8236853 C 1.9608964,5.539284 2.4163707,5.5547259 2.6904064,5.8574666 3.135708,6.3526452 2.7616702,6.8008252 1.9157256,6.7848787 1.4529348,6.7758383 1.3878311,6.7326733 1.3666411,6.4134493 1.3519941,6.19541 1.4524029,5.9591549 1.6175006,5.8236911 Z" />
  </g>
</svg>
