<?xml version="1.0" encoding="UTF-8" standalone="no"?>
<svg
   xmlns:dc="http://purl.org/dc/elements/1.1/"
   xmlns:cc="http://creativecommons.org/ns#"
   xmlns:rdf="http://www.w3.org/1999/02/22-rdf-syntax-ns#"
   xmlns:svg="http://www.w3.org/2000/svg"
   xmlns="http://www.w3.org/2000/svg"
   width="200"
   height="150"
   viewBox="0 0 52.916 39.687"
   version="1.1"
   id="svg98">
  <defs
     id="defs92" />
  <metadata
     id="metadata95">
    <rdf:RDF>
      <cc:Work
         rdf:about="">
        <dc:format>image/svg+xml</dc:format>
        <dc:type
           rdf:resource="http://purl.org/dc/dcmitype/StillImage" />
        <dc:title></dc:title>
      </cc:Work>
    </rdf:RDF>
  </metadata>
  <g
     id="layer1">
    <path
       d="m 44.053676,27.617608 c -0.246306,0.431333 0.109593,0.654487 0.83042,0.520662 0.693825,-0.128815 1.455419,-0.573903 1.692497,-0.989123 0.246297,-0.431333 -0.109602,-0.654496 -0.83042,-0.520662 -0.693825,0.128842 -1.455446,0.573903 -1.692497,0.989123 z M 48.823158,9.5773034 c 1.539467,3.8184866 1.96289,5.5533666 2.740873,11.2303926 0.902671,6.586412 -0.06013,8.475474 -5.265347,10.331427 -3.091406,1.102235 -4.522556,1.211567 -12.004187,0.916864 C 27.888755,31.803649 25.34883,31.46465 23.964633,30.677303 22.581421,29.890521 20.463187,29.607285 15.368512,29.527876 9.214453,29.431961 8.4650732,29.550192 7.0158907,30.848383 5.1040158,32.560737 2.972893,32.80485 4.4937049,31.137329 5.8811112,29.616075 5.8111257,29.494611 3.3601525,29.169986 L 1.2083382,28.884974 3.3652897,28.839614 C 5.936345,28.785504 6.0633135,28.38131 3.9652617,26.929756 3.1022492,26.33269 2.8272719,25.850867 3.3542347,25.859092 c 0.5269519,0.0082 1.7303331,0.5492 2.6741894,1.202203 1.4088804,0.974749 2.9328699,1.206238 8.5138049,1.293253 6.582802,0.102573 6.88964,0.04318 9.703684,-1.879854 2.709807,-1.85179 3.391297,-2.003122 10.097441,-2.24279 3.955351,-0.141358 7.681139,-0.480274 8.279537,-0.75318 0.598416,-0.272906 1.679506,-3.881182 2.402437,-8.018409 0.72294,-4.1372 1.672947,-7.6500533 2.111164,-7.8062767 0.438199,-0.1562689 1.197205,0.7092218 1.686666,1.9233025 z"
       style="fill:#000000;fill-opacity:1;stroke:#000000;stroke-width:0.0999996"
       id="path1618" />
  </g>
</svg>
