<?xml version="1.0" encoding="UTF-8" standalone="no"?>
<svg
   xmlns:dc="http://purl.org/dc/elements/1.1/"
   xmlns:cc="http://creativecommons.org/ns#"
   xmlns:rdf="http://www.w3.org/1999/02/22-rdf-syntax-ns#"
   xmlns:svg="http://www.w3.org/2000/svg"
   xmlns="http://www.w3.org/2000/svg"
   width="60"
   height="150"
   viewBox="0 0 15.875 39.687501"
   version="1.1"
   id="svg862">
  <defs
     id="defs856" />
  <metadata
     id="metadata859">
    <rdf:RDF>
      <cc:Work
         rdf:about="">
        <dc:format>image/svg+xml</dc:format>
        <dc:type
           rdf:resource="http://purl.org/dc/dcmitype/StillImage" />
        <dc:title></dc:title>
      </cc:Work>
    </rdf:RDF>
  </metadata>
  <g
     id="layer1">
    <path
       id="path4337"
       style="fill:#000000;fill-opacity:1;stroke-width:0.264583"
       d="m 1.4996316,21.048989 0.02471,-0.512036 H 1.1054806 0.68662263 l -0.001,0.311174 c -6.97e-4,0.171144 -0.02366,0.39519 -0.05117,0.497877 -0.03932,0.146737 -0.01551,0.186703 0.111232,0.186703 0.131983,0 0.15463,-0.0452 0.124728,-0.248936 -0.03265,-0.222419 -0.01345,-0.248941 0.18032997,-0.248941 0.193488,0 0.216867,0.03206 0.216867,0.297343 0,0.20082 0.03366,0.286227 0.103725,0.263099 0.06422,-0.02122 0.113131,-0.229238 0.128429,-0.546283 z m -0.83375397,0.673224 c -0.22075897,-0.03345 -0.22815697,-0.05128 -0.22705997,-0.547681 0.0017,-0.86083 0.01976,-0.886722 0.61014794,-0.885248 0.279919,6.97e-4 0.552698,0.0291 0.606181,0.06313 0.06794,0.04322 0.08312,0.267842 0.05038,0.745542 l -0.04686,0.683696 -0.382296,-0.01244 c -0.21026,-0.0068 -0.48497997,-0.02798 -0.61048897,-0.047 z M 14.591164,21.325259 c 0.06715,-0.357945 0.252358,-0.378801 0.327457,-0.03687 0.03859,0.175678 0.09796,0.24555 0.193297,0.227485 0.175043,-0.03317 0.215738,-0.368723 0.09782,-0.806635 l -0.09108,-0.338243 h -0.462069 c -0.387251,0 -0.45391,0.02126 -0.4117,0.131255 0.0277,0.07219 0.05037,0.352248 0.05037,0.622347 0,0.374407 0.02868,0.491092 0.12071,0.491092 0.07225,0 0.14258,-0.116581 0.175194,-0.290429 z m -0.433083,0.411697 c -0.03094,-0.0806 -0.05939,-0.467312 -0.06325,-0.859366 -0.0065,-0.656191 0.0062,-0.713741 0.158941,-0.72439 0.797136,-0.05555 1.049307,-0.05212 1.115649,0.01519 0.04237,0.04298 0.08509,0.392605 0.09494,0.776954 0.02045,0.797927 0.03895,0.777106 -0.781219,0.879577 -0.404271,0.05051 -0.476571,0.0384 -0.525061,-0.08796 z m -0.280637,4.285224 c -0.0017,-0.02753 -0.04936,-0.386136 -0.10613,-0.796885 -0.05677,-0.410749 -0.102126,-0.802458 -0.100802,-0.870469 0.0048,-0.245494 0.98008,-0.323854 1.268408,-0.10191 0.160449,0.123508 0.193707,0.245069 0.232182,0.848696 0.02471,0.387499 0.01512,0.746417 -0.02133,0.7976 -0.06842,0.09615 -1.267149,0.212009 -1.272342,0.122968 z M 1.1511546,26.158815 c -0.02248,-0.148326 -0.06106,-0.587782 -0.08575,-0.97657 l -0.04488,-0.70689 0.642098,0.03042 c 0.353157,0.01673 0.673687,0.06023 0.712294,0.09665 0.0386,0.03642 0.08063,0.46218 0.0934,0.946139 l 0.02321,0.879923 h -0.649756 -0.649751 z m 4.4617688,13.069274 c 0.01432,-0.308062 0.122846,-1.008201 0.241169,-1.555868 0.243264,-1.125939 0.472529,-2.949795 0.479819,-3.817057 0.0028,-0.319471 0.03105,-0.728136 0.06299,-0.908149 l 0.05811,-0.32729 0.953611,-0.02718 c 0.5244858,-0.01495 0.9072668,0.0036 0.8506258,0.0413 -0.106367,0.07074 -0.103516,0.110649 0.1553687,2.175584 0.05436,0.433567 0.107667,0.937667 0.11847,1.120224 0.0108,0.182553 0.08124,1.004051 0.156536,1.825549 0.165238,1.802784 0.158171,1.708875 0.142064,1.887783 -0.01251,0.139141 -0.250707,0.211643 -0.272597,0.08298 -0.0058,-0.03422 -0.02342,-0.136918 -0.03913,-0.228196 -0.01568,-0.09128 -0.06604,-0.80075 -0.1118687,-1.576609 -0.04583,-0.775859 -0.120031,-1.653366 -0.164882,-1.950019 -0.07194,-0.475781 -0.337369,-2.96963 -0.337369,-3.169746 0,-0.04193 -0.04668,-0.04604 -0.1037248,-0.0091 -0.05705,0.03692 -0.327768,0.104472 -0.6016,0.150111 l -0.497877,0.08298 -0.05364,0.663836 c -0.09708,1.201505 -0.243622,2.564257 -0.328457,3.054573 -0.0812,0.469278 -0.211839,1.601336 -0.296266,2.567289 -0.03809,0.435783 -0.05885,0.477133 -0.239546,0.477133 -0.191502,0 -0.197008,-0.01795 -0.171806,-0.560111 z M 8.8186129,2.1984834 v -0.414899 h -0.405222 c -0.3663427,0 -0.4090307,0.0199 -0.4448817,0.207451 -0.02181,0.114097 -0.02181,0.3008 0,0.414896 0.03585,0.187544 0.07854,0.207448 0.4448817,0.207448 h 0.405222 z m -1.0787315,0.259311 c 0,-0.08557 -0.02272,-0.269197 -0.05049,-0.408052 -0.04703,-0.235161 -0.07279,-0.250874 -0.375763,-0.229297 -0.178897,0.01275 -0.346588,0.04449 -0.372643,0.07054 -0.02607,0.02607 -0.02171,0.199252 0.0097,0.384886 0.05661,0.335078 0.05966,0.337507 0.423137,0.337507 0.302657,0 0.366114,-0.02697 0.366114,-0.155585 z m -3.028751,0.487503 c 0.02819,-0.04564 -0.0047,-0.08298 -0.07319,-0.08298 -0.06846,0 -0.1475458,0.03734 -0.1757508,0.08298 -0.02819,0.04564 0.0047,0.08298 0.07319,0.08298 0.06846,0 0.147546,-0.03734 0.175754,-0.08298 z m 5.9745026,0.863875 c 0.105604,-0.02652 0.267664,-0.0077 0.360127,0.04178 0.139583,0.0747 0.177051,0.06182 0.22077,-0.07593 0.08246,-0.259819 -0.02126,-0.460768 -0.321175,-0.622287 -0.525776,-0.28315 -0.9994927,0.05371 -0.802855,0.570905 0.06216,0.163478 0.128666,0.21908 0.220097,0.183996 0.07206,-0.02767 0.217429,-0.07197 0.323036,-0.09847 z m -5.2094466,0.11579 c 0.164764,0.05057 0.330748,0.07267 0.368856,0.04912 0.212832,-0.131537 -0.08404,-0.820836 -0.386175,-0.896666 -0.233684,-0.05865 -0.787563,0.09765 -0.795394,0.22445 -0.0035,0.0549 -0.02216,0.186089 -0.04173,0.29153 -0.01955,0.105436 0.0031,0.264133 0.05057,0.352662 0.0814,0.152083 0.09767,0.153404 0.295224,0.02398 0.1725,-0.113027 0.261492,-0.120909 0.508648,-0.04505 z m -1.3371708,0.416579 c -0.009,-1.044296 -0.03946,-1.434143 -0.114201,-1.459056 -0.06342,-0.02115 -0.105558,0.05492 -0.111423,0.201113 -0.02164,0.539421 0.02708,2.561445 0.06312,2.619758 0.135332,0.218969 0.173323,-0.09942 0.162506,-1.361815 z m 7.7942454,0.657501 c -0.035,-0.467797 -0.06903,-1.093256 -0.07561,-1.389909 -0.01202,-0.541878 -0.07425,-0.746814 -0.22675,-0.746814 -0.05037,0 -0.06344,0.184766 -0.03377,0.477133 0.05152,0.507362 0.110905,1.573622 0.120163,2.157467 0.0043,0.270239 0.03761,0.352662 0.142598,0.352662 0.122581,0 0.130304,-0.08954 0.07336,-0.850539 z m -0.511258,3.348333 c 0.04085,-0.0047 0.04763,-0.814622 0.01551,-1.854705 -0.07813,-2.530655 -0.0447,-2.296016 -0.305776,-2.146181 -0.180392,0.103534 -0.274514,0.10796 -0.548712,0.02582 C 9.8668493,4.1577384 9.5899443,3.5019314 9.9970173,2.9844214 l 0.1826537,-0.232203 -0.4016847,0.05505 c -0.220924,0.03028 -1.2524374,0.05506 -2.2922479,0.05506 h -1.890563 l 0.242556,0.242557 c 0.3975,0.397496 0.313174,1.078226 -0.156641,1.264525 -0.325485,0.129067 -0.933674,0.09054 -1.111519,-0.0704 -0.1467968,-0.132848 -0.1510968,-0.06876 -0.1296098,1.930533 l 0.02223,2.067941 0.3734068,-0.01014 c 0.205374,-0.0056 0.658027,-0.01492 1.005894,-0.02073 l 0.632485,-0.01059 0.05039,-0.315114 c 0.05872,-0.367184 0.519162,-1.102571 0.723868,-1.156103 0.144116,-0.03769 0.293213,-0.620386 0.198108,-0.774263 -0.02648,-0.04287 -0.190421,-0.07795 -0.36428,-0.07795 h -0.316108 l -0.04257,-0.643092 c -0.0628,-0.948944 -0.08156,-0.933517 1.135007,-0.933517 0.8585225,0 1.0336425,0.02136 1.0758105,0.131255 0.0277,0.07219 0.05037,0.445599 0.05037,0.829795 v 0.69854 h -0.373407 c -0.3523067,0 -0.3733437,0.01289 -0.3722737,0.228193 0.0021,0.393301 0.09067,0.585824 0.2934047,0.636707 0.325029,0.08158 0.6421087,0.580921 0.6831517,1.07585 l 0.03608,0.435149 1.0489784,-0.01784 c 0.576938,-0.0098 1.081611,-0.02161 1.121493,-0.02624 z m -3.9949286,-3.0945 c 0.04279,-0.128377 0.7169908,-0.15147 0.7484478,-0.02565 0.0114,0.04564 -0.160471,0.09452 -0.3819548,0.108622 -0.303054,0.0193 -0.39374,-0.0014 -0.366493,-0.08298 z m -0.268051,3.164174 c 0,-0.258733 0.03185,-0.400118 0.08298,-0.368511 0.04564,0.02819 0.08298,0.105091 0.08298,0.170855 0,0.213887 0.153944,0.125986 0.19023,-0.108622 0.03405,-0.220052 0.03754,-0.221533 0.09817,-0.04149 0.07094,0.21065 0.209479,0.251812 0.209479,0.06223 0,-0.194718 0.1502188,-0.14581 0.1911428,0.06224 l 0.03673,0.186704 0.0617,-0.186704 c 0.07648,-0.231409 0.208305,-0.244539 0.208305,-0.02073 0,0.09127 0.03734,0.165959 0.08298,0.165959 0.04564,0 0.07856,-0.02802 0.07315,-0.06224 -0.04087,-0.258854 0.04289,-0.240472 0.09454,0.02073 0.03685,0.186369 0.03265,0.36649 -0.0095,0.410749 -0.04634,0.0486 -0.07517,0.02474 -0.07517,-0.06223 0,-0.07759 -0.03734,-0.141064 -0.08298,-0.141064 -0.04564,0 -0.08298,0.05601 -0.08298,0.124466 0,0.06846 -0.03734,0.124471 -0.08298,0.124471 -0.04564,0 -0.08298,-0.05601 -0.08298,-0.124471 0,-0.176033 -0.165391,-0.155682 -0.168597,0.02073 -0.0024,0.132649 -0.013,0.131548 -0.1221878,-0.01272 -0.107775,-0.142399 -0.124728,-0.144441 -0.172196,-0.02073 -0.06573,0.171277 -0.200855,0.179846 -0.200855,0.01275 0,-0.06846 -0.03734,-0.124466 -0.08298,-0.124466 -0.04564,0 -0.08298,0.07468 -0.08298,0.165959 0,0.09127 -0.03734,0.165959 -0.08298,0.165959 -0.04564,0 -0.08298,-0.18891 -0.08298,-0.419796 z m 1.0931798,0.813521 c 0.5135157,-0.313759 0.6881137,-0.607182 0.6881137,-1.156416 0,-0.430633 -0.0246,-0.499087 -0.240097,-0.667621 -0.5718457,-0.447269 -0.6141467,-0.509185 -0.6578037,-0.962837 -0.05769,-0.599471 -0.01526,-0.677096 0.3701767,-0.677096 h 0.323043 v -0.575959 c 0,-0.316777 -0.03849,-0.599745 -0.08553,-0.628814 -0.04704,-0.02906 -0.4577847,-0.02645 -0.9127755,0.0058 l -0.827248,0.05865 v 0.570167 0.570168 h 0.373407 0.373407 v 0.622343 c 0,0.515165 -0.02286,0.622348 -0.132767,0.622348 -0.252742,0 -0.666394,0.515481 -0.728627,0.907992 -0.04975,0.313759 -0.02049,0.445718 0.196548,0.886588 0.252592,0.513095 0.327206,0.569819 0.789316,0.600101 0.09128,0.006 0.3031518,-0.07295 0.4708328,-0.175402 z M 7.8228594,12.735102 c 0,-0.227374 0.3612038,-0.395023 0.5369088,-0.249202 0.06981,0.05794 0.1269267,0.154874 0.1269267,0.215418 0,0.08949 0.05381,0.08759 0.287764,-0.01018 0.158271,-0.06613 0.4169367,-0.120236 0.5748147,-0.120236 0.2741487,0 0.2855507,-0.01185 0.2537037,-0.263489 -0.01833,-0.144918 -0.08097,-0.293708 -0.1391717,-0.330646 -0.05821,-0.03694 -0.7499527,-0.06773 -1.5372204,-0.06843 l -1.4313978,-0.0014 1.85e-4,0.31117 c 1.84e-4,0.286317 0.02,0.312561 0.248379,0.328535 0.136517,0.0095 0.407163,0.09042 0.601435,0.179713 0.453894,0.208622 0.477694,0.209051 0.477694,0.0086 z m 3.0424306,0.485255 c -0.05418,-0.207204 0.0036,-0.342288 0.116525,-0.272486 0.09831,0.06076 0.101722,0.452844 0.0039,0.452844 -0.04031,0 -0.09453,-0.08116 -0.120466,-0.180358 z m -6.2255676,0.371721 c -0.08116,-0.08116 -0.06311,-0.606259 0.02084,-0.606259 0.04065,0 0.08942,0.132959 0.108395,0.295465 0.03352,0.287108 -0.02122,0.418788 -0.129233,0.310794 z m 0.09894,0.388837 0.636307,-6.97e-4 0.02303,-0.540429 c 0.01805,-0.42313 -0.0045,-0.550987 -0.103726,-0.589079 -0.266646,-0.102314 -0.108363,-0.196844 0.329612,-0.196844 h 0.456388 v -0.497877 -0.497877 l 0.352662,-0.01321 c 0.630808,-0.02366 3.0872869,0.02443 3.2258139,0.06312 0.09042,0.02526 0.152661,0.172096 0.188972,0.445819 l 0.05414,0.408146 0.3853977,0.0252 c 0.214915,0.01404 0.400504,0.07108 0.419544,0.128923 0.01878,0.05705 -0.02499,0.103726 -0.09724,0.103726 -0.103931,0 -0.131384,0.09535 -0.131384,0.456388 v 0.456385 h 0.456388 c 0.417701,0 0.456465,-0.01582 0.457301,-0.186704 3.49e-4,-0.102687 0.02405,-0.326733 0.05235,-0.497877 0.04274,-0.258561 0.02739,-0.311173 -0.09081,-0.311173 -0.07823,0 -0.126843,-0.04667 -0.108026,-0.103723 0.02063,-0.06252 0.221171,-0.113611 0.504791,-0.12861 l 0.470578,-0.02488 v -0.901845 c 0,-0.496016 0.01997,-0.953844 0.04434,-1.017394 0.03753,-0.09781 -0.462295,-0.111556 -3.2569464,-0.08956 -1.8157082,0.01429 -3.7909812,0.04812 -4.3894992,0.07516 l -1.0882178,0.04918 -0.05216,0.552214 c -0.02868,0.303719 -0.05243,0.746301 -0.05275,0.983519 l -6.97e-4,0.431309 0.429121,0.02509 c 0.442341,0.02586 0.6939818,0.23253 0.283122,0.23253 -0.199085,0 -0.215038,0.02809 -0.223826,0.394152 -0.0052,0.216783 -0.02188,0.500072 -0.03707,0.629529 -0.0215,0.183246 3.49e-4,0.224596 0.09923,0.186703 0.06976,-0.02676 0.413175,-0.04897 0.7631428,-0.04933 z m 5.5735836,0.50939 c 0,-0.09006 0.493982,-0.174698 1.02666,-0.175901 0.350032,-6.97e-4 0.390444,0.01579 0.301013,0.123554 -0.07474,0.09006 -0.272553,0.12447 -0.715487,0.12447 -0.336702,0 -0.612186,-0.03244 -0.612186,-0.07212 z m -6.4723994,0.238082 c 0.166907,-0.107862 1.6595898,-0.107862 1.6595898,0 0,0.05025 -0.351816,0.08248 -0.892028,0.08171 -0.6065928,-6.97e-4 -0.8522018,-0.02701 -0.7675618,-0.08171 z m 3.3814168,2.932563 0.7675578,-0.05278 v -0.527117 c 0,-0.399452 -0.02847,-0.527121 -0.1175528,-0.527121 -0.06466,0 -0.139336,0.04668 -0.165959,0.103726 -0.03872,0.08298 -0.05809,0.08298 -0.09681,0 -0.06829,-0.14633 -0.366494,-0.12945 -0.366494,0.02073 0,0.06846 -0.03734,0.12447 -0.08298,0.12447 -0.04564,0 -0.08298,-0.06058 -0.08298,-0.134631 0,-0.115867 -0.01924,-0.118759 -0.137963,-0.02073 -0.107558,0.08879 -0.14566,0.09102 -0.172876,0.01018 -0.05678,-0.168712 -0.245811,-0.118462 -0.312146,0.08298 -0.04964,0.150752 -0.0732,0.106809 -0.122354,-0.228193 -0.03349,-0.228195 -0.04492,-0.443512 -0.02544,-0.478488 0.06036,-0.108325 0.18992,0.02331 0.18992,0.192955 0,0.178466 0.207413,0.220411 0.283516,0.05734 0.03872,-0.08298 0.05808,-0.08298 0.09681,0 0.08212,0.175967 0.200534,0.11472 0.200534,-0.103723 0,-0.114096 0.03734,-0.207447 0.08298,-0.207447 0.04564,0 0.08298,0.07468 0.08298,0.165959 0,0.187205 0.16068,0.217909 0.325695,0.06223 0.08796,-0.08298 0.117553,-0.08298 0.147978,0 0.02091,0.05705 0.09232,0.103726 0.158679,0.103726 0.1029868,0 0.1126538,-0.209508 0.06606,-1.431398 -0.03443,-0.902936 -0.09029,-1.469709 -0.1513156,-1.535169 -0.134684,-0.144483 -0.943975,-0.417562 -1.293916,-0.436606 -0.665233,-0.0362 -0.63401,-0.06677 -0.691365,0.677019 -0.02868,0.371804 -0.07449,0.698363 -0.101809,0.725686 -0.02732,0.02732 -0.471101,0.06306 -0.986171,0.07941 C 3.820876,14.412358 3.771194,14.405038 3.595415,14.218382 3.427703,14.040311 3.416357,13.97001 3.466781,13.421479 3.517571,12.868934 3.509401,12.81988 3.366523,12.81988 c -0.146166,0 -0.153808,-0.0713 -0.126544,-1.180551 0.01596,-0.649302 0.04844,-1.200076 0.07217,-1.223947 0.08529,-0.08578 2.2076678,-0.135067 5.6309356,-0.130763 l 3.4851394,0.0044 0.01795,0.746817 c 0.0099,0.410749 0.03147,0.94102 0.04798,1.178384 l 0.03004,0.431566 -0.338407,0.02481 -0.338407,0.02481 -0.0547,0.612792 c -0.033,0.369465 -0.09888,0.640791 -0.165959,0.683308 -0.06119,0.03879 -0.335305,0.07748 -0.609137,0.08598 -0.273835,0.0085 -0.572561,0.01965 -0.663836,0.02478 -0.205001,0.01153 -0.271277,-0.177629 -0.28216,-0.805277 -0.0081,-0.468298 -0.01268,-0.477132 -0.2468347,-0.477132 -0.6432027,0 -1.1490314,0.307016 -1.3554034,0.822662 -0.088741,0.221738 -0.1069765,2.445457 -0.02119,2.58426 0.08233,0.133216 0.216272,0.08607 0.190338,-0.06699 -0.01352,-0.07987 0.01213,-0.156031 0.05702,-0.169248 0.04489,-0.01321 0.09355,0.05213 0.108134,0.145214 0.03324,0.2121 0.3457237,0.233583 0.3495327,0.02404 0.0024,-0.13451 0.01122,-0.1339 0.118947,0.0083 0.152713,0.20158 0.2933107,0.105754 0.2933107,-0.19991 0,-0.134221 0.03734,-0.244041 0.08298,-0.244041 0.04564,0 0.08298,0.10982 0.08298,0.244041 0,0.294966 0.158986,0.422893 0.222711,0.179208 0.07206,-0.275574 0.1921837,-0.202995 0.1921837,0.11612 0,0.159736 -0.03734,0.290429 -0.08298,0.290429 -0.04564,0 -0.08298,-0.03734 -0.08298,-0.08298 0,-0.152149 -0.180856,-0.08542 -0.224895,0.08298 -0.05057,0.193391 -0.19,0.223837 -0.19,0.04149 0,-0.150089 -0.3006677,-0.167405 -0.3601757,-0.02073 -0.03255,0.08022 -0.06022,0.07781 -0.122107,-0.01063 -0.09295,-0.13283 -0.2645347,-0.05548 -0.2645347,0.119254 0,0.187435 -0.140876,0.139931 -0.199095,-0.06713 -0.08519,-0.303009 -0.19268,-0.008 -0.182814,0.50178 l 0.0085,0.439543 1.9085261,0.03948 c 1.049694,0.02171 2.141664,0.01063 2.426609,-0.02464 l 0.518078,-0.06413 0.05134,-1.78406 c 0.02823,-0.981234 0.05648,-2.65224 0.06278,-3.713346 l 0.01143,-1.929289 -0.311173,1.4e-5 c -0.403874,1.8e-5 -0.404999,-0.1481276 -0.0014,-0.1816776 l 0.309797,-0.02575 0.0014,-0.642844 0.0014,-0.642845 -1.618101,-0.0031 c -0.889955,-0.0017 -1.8323097,-0.02492 -2.0941187,-0.05142 -0.4157917,-0.04209 -0.4823947,-0.02858 -0.5263997,0.106712 -0.140081,0.430688 -0.225195,0.592253 -0.4422537,0.839482 -0.130223,0.148323 -0.294997,0.269682 -0.3661625,0.269682 -0.07116,0 -0.152515,0.03742 -0.180783,0.08316 -0.05695,0.09214 -0.6463986,0.02554 -0.9126646,-0.103126 -0.284968,-0.137695 -0.628097,-0.580005 -0.721692,-0.930291 l -0.08976,-0.335929 -1.873847,0.0253 c -1.0306148,0.0139 -1.8905808,0.04203 -1.9110318,0.06248 -0.02045,0.02046 -0.0505,0.301259 -0.06677,0.624023 -0.02861,0.567547 -0.02338,0.586329 0.159289,0.571425 0.310982,-0.02537 0.408965,-0.0017 0.354837,0.08594 -0.02819,0.04564 -0.161105,0.08298 -0.295325,0.08298 H 2.595179 l -0.01526,0.7260696 c -0.0084,0.39934 -0.01958,1.323525 -0.02488,2.053745 -0.0094,1.2938 -0.0784,3.021544 -0.17703,4.431386 l -0.04879,0.69731 2.06225,-0.05518 c 1.1342398,-0.03035 2.4076548,-0.07893 2.8298168,-0.107956 z m 0.6845798,4.684958 c 0,-0.193021 -0.02492,-0.240622 -0.09122,-0.174312 -0.05017,0.05017 -0.06633,0.16966 -0.0359,0.265535 0.07923,0.249634 0.127122,0.215267 0.127122,-0.09122 z M 7.5586384,22.29117 c 0.01495,-0.151588 0.09524,-0.30911 0.186703,-0.366232 0.1432428,-0.08946 0.1605018,-0.200694 0.1605018,-1.034538 V 19.956098 H 7.6254754 7.3451064 l 0.01063,1.32769 c 0.0068,0.843887 0.04089,1.317796 0.09367,1.300537 0.04567,-0.01495 0.09483,-0.146853 0.109241,-0.293155 z m 1.4259362,-0.961015 c 0,-0.750344 -0.03122,-1.383549 -0.06934,-1.40712 -0.03814,-0.02356 -0.178166,-0.01383 -0.31117,0.02168 l -0.2418277,0.06452 -0.02645,0.927708 -0.02645,0.927709 h 0.2131377 c 0.187296,0 0.213139,0.03439 0.213139,0.283641 0,0.329475 0.06936,0.546154 0.174834,0.546154 0.04076,0 0.0741,-0.613918 0.0741,-1.364265 z m -0.08298,2.355012 c 0,-0.146765 -0.04396,-0.167325 -0.310484,-0.145215 -0.2169887,0.01798 -0.3187697,0.06948 -0.3380017,0.170967 -0.02255,0.119037 0.03342,0.145214 0.3104827,0.145214 0.285983,0 0.338003,-0.02631 0.338003,-0.170966 z m -1.1270125,0.20358 c 0.07219,-0.0277 0.1312578,-0.125052 0.1312578,-0.216327 0,-0.117243 -0.03853,-0.151174 -0.1312578,-0.115591 -0.07219,0.0277 -0.165541,0.05037 -0.207448,0.05037 -0.0419,0 -0.07619,0.07468 -0.07619,0.165959 0,0.173531 0.06433,0.199746 0.283641,0.115591 z m 3.1643509,-1.021343 c -0.07333,-0.11864 0.04869,-1.005438 0.131314,-0.954373 0.09676,0.0598 0.09197,0.925081 -0.0054,0.985293 -0.04249,0.02627 -0.09913,0.01234 -0.125864,-0.03091 z m -1.5936007,1.925163 c 0.04394,-0.02715 0.33548,-0.04109 0.647869,-0.03094 l 0.5679827,0.01843 v -0.369295 c 0,-0.413798 0.08248,-0.468392 0.710831,-0.470501 0.185581,-6.97e-4 0.540317,-0.03526 0.788302,-0.07698 0.247986,-0.04171 0.899155,-0.122389 1.447037,-0.179274 l 0.996159,-0.103426 0.0231,-0.56754 0.0231,-0.567539 h -0.417649 c -0.279058,0 -0.417488,-0.03443 -0.417164,-0.103726 2.75e-4,-0.05705 -0.01781,-0.653023 -0.04015,-1.32439 -0.02234,-0.671363 -0.02077,-1.272384 0.0035,-1.3356 0.02924,-0.07623 0.164733,-0.110862 0.402344,-0.102837 l 0.358238,0.01209 0.04684,-0.722944 c 0.07392,-1.140947 0.161858,-1.067465 -1.215294,-1.015491 -0.645722,0.02436 -1.995536,0.06888 -2.999591,0.0989 l -1.8255484,0.05458 -0.0237,0.853787 -0.0237,0.853791 0.4054137,-0.05378 0.405407,-0.05378 -0.02,1.647886 c -0.01934,1.591893 -0.02582,1.64877 -0.190742,1.673842 -0.0939,0.01429 -0.2515357,-0.01728 -0.3503027,-0.07015 -0.154118,-0.08248 -0.172089,-0.142963 -0.126735,-0.426583 0.04587,-0.286878 0.03342,-0.326754 -0.09438,-0.302291 -0.1223067,0.02342 -0.1509297,0.129868 -0.1690707,0.628822 l -0.02185,0.600634 h 0.4021617 c 0.221188,0 0.418893,0.01673 0.439341,0.03718 0.02046,0.02046 0.02276,0.18848 0.0051,0.373407 l -0.03206,0.336228 h -0.397306 c -0.2857377,0 -0.4114447,0.03686 -0.4476687,0.131255 -0.06734,0.175486 -0.06413,0.574136 0.0052,0.643447 0.06235,0.06235 1.0109577,-0.01052 1.1350067,-0.0872 z M 4.9056994,22.735069 c -0.07173,-0.12462 0.02234,-1.119388 0.10583,-1.119388 0.08447,0 0.08375,0.690289 -10e-4,0.994918 -0.03164,0.113636 -0.07878,0.16965 -0.104785,0.12447 z m 2.693738,2.121275 0.3159448,-0.0045 -0.02551,-0.352662 c -0.02547,-0.351868 -0.02627,-0.352663 -0.3574318,-0.352663 H 7.2005224 V 23.77322 c 0,-0.272848 0.03349,-0.375508 0.124467,-0.381512 0.06846,-0.0045 0.227157,-0.0139 0.352663,-0.02087 0.201747,-0.01119 0.2281948,-0.04536 0.2281948,-0.294945 v -0.282307 l -0.3734068,0.112378 c -0.205374,0.06181 -0.37341,0.09549 -0.37341,0.07486 0,-0.107513 -0.02028,-0.169785 -0.07978,-0.244971 -0.03612,-0.04564 -0.0377,-0.157658 -0.0035,-0.248937 0.0573,-0.153023 0.04221,-1.143014 -0.03511,-2.302682 l -0.03182,-0.477132 h 0.440774 0.4407758 l 0.05938,-0.79199 c 0.03265,-0.435595 0.04548,-0.805555 0.02851,-0.822132 -0.01697,-0.01659 -1.5503758,-0.04292 -3.4075308,-0.05855 l -3.3766398,-0.0284 -0.02551,0.87964 -0.02551,0.87964 0.547308,-0.03933 c 0.416004,-0.0299 0.557173,-0.01199 0.58843,0.07462 0.07261,0.2012 -0.0789,2.287206 -0.179817,2.475777 -0.08254,0.154233 -0.147097,0.175072 -0.422845,0.136503 l -0.325429,-0.04552 -0.0021,0.391698 c -10e-4,0.215435 -0.01045,0.54106 -0.02084,0.723617 l -0.01889,0.331918 1.82555,0.01059 c 2.5628978,0.01488 2.4853418,0.01024 2.3757968,0.142242 -0.05083,0.06125 -0.06826,0.135516 -0.03874,0.165042 0.02952,0.02951 0.07636,0.194123 0.104078,0.365772 0.04695,0.290712 0.07306,0.314934 0.38124,0.353579 0.181965,0.02283 0.554887,0.03415 0.828719,0.02519 0.273835,-0.009 0.640053,-0.01829 0.813821,-0.02073 z m 2.8766956,0.126234 c -0.111615,-0.111615 -0.194625,0.0014 -0.128185,0.174573 0.04767,0.12423 0.0676,0.128028 0.131262,0.02502 0.04528,-0.07325 0.04406,-0.152456 -0.0031,-0.19959 z m -0.246867,0.29099 c 0,-0.143584 -0.100722,-0.338706 -0.174838,-0.338706 -0.04076,0 -0.0741,0.09335 -0.0741,0.207448 0,0.12908 0.04702,0.207448 0.1244707,0.207448 0.06846,0 0.12447,-0.03429 0.12447,-0.07619 z m -0.4455747,-0.02753 c -0.02753,-0.102687 -0.05055,-0.21471 -0.05117,-0.248937 -6.97e-4,-0.03422 -0.05714,-0.06224 -0.125602,-0.06224 -0.08298,0 -0.124471,0.08298 -0.124471,0.24894 0,0.198193 0.03581,0.248937 0.175636,0.248937 0.14165,0 0.165956,-0.03613 0.125607,-0.186703 z m -0.4672017,0.02565 c 0,-0.151891 -0.138503,-0.308954 -0.209678,-0.237779 -0.057,0.057 0.05989,0.398842 0.136378,0.398842 0.04031,0 0.0733,-0.07248 0.0733,-0.161063 z m -0.3908537,-0.0049 c -0.02387,-0.09128 -0.07639,-0.165959 -0.1167,-0.165959 -0.04031,0 -0.0733,0.07468 -0.0733,0.165959 0,0.09128 0.05251,0.165959 0.116699,0.165959 0.07585,0 0.1015087,-0.0581 0.073301,-0.165959 z m -0.355959,0.131255 c 0,-0.0191 -0.02265,-0.09377 -0.05037,-0.165959 -0.07115,-0.185407 -0.1985727,-0.16314 -0.1985727,0.03471 0,0.0922 0.05532,0.165959 0.1244697,0.165959 0.06846,0 0.124471,-0.01561 0.124471,-0.03471 z M 6.0524244,25.147897 c -0.02746,-0.07153 -0.08842,-0.130049 -0.135489,-0.130049 -0.09547,0 -0.117277,0.272566 -0.02889,0.360963 0.0911,0.09109 0.218989,-0.08858 0.16437,-0.230914 z m 1.8521448,0.01516 c 6.96e-4,-0.07987 -0.03607,-0.145215 -0.08171,-0.145215 -0.04564,0 -0.08241,0.121359 -0.08171,0.269685 0.001,0.204646 0.02066,0.239668 0.08171,0.145215 0.04424,-0.06846 0.08101,-0.189816 0.08171,-0.269685 z m -0.3317788,0.290431 c -0.0043,-0.235649 -0.122494,-0.435643 -0.257485,-0.435643 -0.118326,0 -0.156282,0.06046 -0.156282,0.24894 0,0.210215 0.03227,0.248937 0.207452,0.248937 0.114096,0 0.206935,-0.02802 0.206315,-0.06223 z m -0.579726,-0.186687 c 0,-0.193617 -0.03688,-0.24894 -0.165959,-0.24894 -0.12908,0 -0.165959,0.05532 -0.165959,0.24894 0,0.193617 0.03688,0.248937 0.165959,0.248937 0.12908,0 0.165959,-0.05532 0.165959,-0.248937 z m -0.497877,0.04149 c 0,-0.12908 -0.04702,-0.207448 -0.124467,-0.207448 -0.07745,0 -0.12447,0.07837 -0.12447,0.207448 0,0.12908 0.04702,0.207448 0.12447,0.207448 0.07744,0 0.124467,-0.07837 0.124467,-0.207448 z m 4.3149336,1.127012 c 0,-0.142858 -0.100559,-0.338706 -0.173908,-0.338706 -0.04024,0 -0.06545,0.09335 -0.056,0.207448 0.01558,0.188289 0.229911,0.310647 0.229911,0.131258 z m 0.667648,0.03011 c 0.104112,-0.125449 0.08145,-0.141932 -0.314986,-0.229202 -0.13782,-0.03035 -0.186703,-0.0031 -0.186703,0.103262 0,0.0794 0.0168,0.161167 0.03735,0.18171 0.0874,0.0874 0.374096,0.05296 0.464339,-0.05577 z m -1.5804207,0.05287 c 0,-0.162045 -0.103862,-0.335594 -0.174654,-0.29184 -0.123212,0.07615 -0.08341,0.368033 0.05018,0.368033 0.06846,0 0.12447,-0.03429 0.12447,-0.07619 z m -0.9282627,-0.06902 c 0.02324,-0.240883 0.0031,-0.269684 -0.1867027,-0.269684 -0.188564,0 -0.212706,0.03363 -0.212706,0.2962 0,0.259708 0.023,0.292934 0.186703,0.269684 0.143099,-0.02032 0.1927767,-0.0895 0.2127057,-0.2962 z m -2.6398572,0.186704 c 0,-0.06915 -0.07376,-0.12447 -0.165959,-0.12447 -0.0922,0 -0.165959,0.05532 -0.165959,0.12447 0,0.06915 0.07376,0.12447 0.165959,0.12447 0.0922,0 0.165959,-0.05532 0.165959,-0.12447 z m -0.616103,-0.353335 c -0.100115,-0.100116 -0.147824,0.06485 -0.08307,0.287237 l 0.06757,0.232057 0.03161,-0.235779 c 0.01739,-0.129679 0.01014,-0.257261 -0.01613,-0.283515 z m -0.29667,0.353335 c 0,-0.06846 -0.03734,-0.12447 -0.08298,-0.12447 -0.04564,0 -0.08298,0.05601 -0.08298,0.12447 0,0.06846 0.03734,0.12447 0.08298,0.12447 0.04564,0 0.08298,-0.05601 0.08298,-0.12447 z m -0.331918,-0.08875 c 0,-0.173657 -0.03464,-0.208302 -0.186703,-0.186703 -0.119986,0.01704 -0.196182,0.09323 -0.213222,0.213218 -0.02161,0.152059 0.01303,0.186704 0.186703,0.186704 0.173653,0 0.213222,-0.03956 0.213222,-0.213219 z m 2.555692,0.06444 c -0.04374,-0.225401 -0.232266,-0.213396 -0.232266,0.01478 0,0.157122 0.03318,0.199032 0.128541,0.162436 0.0707,-0.02715 0.117375,-0.106879 0.103725,-0.177225 z m -0.481206,0.0658 c 0,-0.0922 -0.05532,-0.165959 -0.124467,-0.165959 -0.06915,0 -0.12447,0.07376 -0.12447,0.165959 0,0.0922 0.05532,0.165959 0.12447,0.165959 0.06915,0 0.124467,-0.07376 0.124467,-0.165959 z m -0.414896,-0.174835 c 0,-0.158069 -0.04251,-0.240061 -0.12447,-0.240061 -0.08672,0 -0.12447,0.0873 -0.12447,0.287823 0,0.221752 0.02857,0.276859 0.12447,0.240061 0.07095,-0.02722 0.12447,-0.150985 0.12447,-0.287823 z m 3.7874186,0.465264 c 0.11064,-0.110639 0.101308,-0.12447 -0.08401,-0.12447 -0.213246,0 -0.338703,0.100851 -0.243678,0.195875 0.08553,0.08553 0.194498,0.06178 0.327687,-0.07141 z m 1.07684,0.08695 c 0.02544,-0.06627 0.02307,-0.157993 -0.0053,-0.203824 -0.08018,-0.129735 -0.295123,-0.008 -0.295123,0.167238 0,0.184041 0.232914,0.21241 0.300385,0.03659 z m -4.8642586,0.03752 c 0,-0.04564 -0.05601,-0.08298 -0.12447,-0.08298 -0.06846,0 -0.12447,0.03734 -0.12447,0.08298 0,0.04564 0.05601,0.08298 0.12447,0.08298 0.06846,0 0.12447,-0.03734 0.12447,-0.08298 z m -1.244694,0 c 0,-0.04564 -0.07468,-0.08298 -0.165959,-0.08298 -0.09127,0 -0.165959,0.03734 -0.165959,0.08298 0,0.04564 0.07468,0.08298 0.165959,0.08298 0.09128,0 0.165959,-0.03734 0.165959,-0.08298 z m 4.5497116,-0.02924 c 0.02112,-0.109622 -0.01293,-0.143674 -0.1225637,-0.122564 -0.08349,0.01607 -0.164952,0.09754 -0.181031,0.18103 -0.02112,0.109622 0.01293,0.143675 0.122564,0.122564 0.08349,-0.01607 0.1649517,-0.09754 0.1810307,-0.18103 z m -1.1224261,0.07186 c 0.009,-0.04501 -0.04898,-0.09442 -0.12885,-0.109806 -0.09083,-0.01749 -0.145215,0.02321 -0.145215,0.10867 0,0.144368 0.245229,0.145385 0.274065,0.001 z m -2.5974905,-0.001 c 0,-0.06846 -0.05601,-0.12447 -0.124467,-0.12447 -0.06846,0 -0.12447,0.05601 -0.12447,0.12447 0,0.06846 0.05601,0.12447 0.12447,0.12447 0.06846,0 0.124467,-0.05601 0.124467,-0.12447 z m 2.1574665,0.04149 c 0,-0.180156 -0.06122,-0.203479 -0.2388237,-0.09099 -0.133882,0.0848 -0.05398,0.256945 0.119254,0.256945 0.06576,0 0.1195697,-0.07468 0.1195697,-0.165959 z m -1.1617125,0.08788 c 0,-0.04295 -0.03734,-0.101161 -0.08298,-0.129366 -0.04564,-0.02819 -0.08298,0.0069 -0.08298,0.07808 0,0.07115 0.03734,0.129366 0.08298,0.129366 0.04564,0 0.08298,-0.03514 0.08298,-0.07808 z m -2.345854,-0.08271 c -0.0067,-0.08844 -0.07902,-0.178295 -0.160801,-0.19968 -0.112511,-0.02941 -0.148689,0.0097 -0.148689,0.160794 0,0.142228 0.04627,0.199681 0.160801,0.199681 0.107929,0 0.156823,-0.05287 0.148689,-0.160795 z m 6.1771866,0.05707 c 0.06151,-0.341546 -0.01014,-0.489447 -0.20773,-0.428786 -0.242999,0.0746 -0.238622,0.05767 -0.09126,0.353081 0.154233,0.309166 0.252463,0.334037 0.298987,0.0757 z m -1.5908847,-0.07111 c 0,-0.201005 -0.02892,-0.24672 -0.1312587,-0.207451 -0.07219,0.0277 -0.165541,0.05037 -0.207448,0.05037 -0.08757,0 -0.103635,0.276814 -0.02087,0.359579 0.03042,0.03042 0.123777,0.05532 0.207451,0.05532 0.1148767,0 0.1521287,-0.06313 0.1521287,-0.257816 z m -1.7057969,0.07111 c -0.07445,-0.242194 -0.07287,-0.240978 -0.232346,-0.179779 -0.180009,0.06907 -0.174496,0.261363 0.0089,0.309281 0.2638408,0.06895 0.2813588,0.0588 0.223478,-0.129502 z m -1.945301,0.02073 c 0,-0.165959 -0.04149,-0.24894 -0.12447,-0.24894 -0.137266,0 -0.145755,0.03659 -0.07217,0.311173 0.07211,0.269093 0.196638,0.229684 0.196638,-0.06223 z m 1.100376,-0.0092 c -0.06173,-0.236029 -0.104775,-0.189 -0.103353,0.112911 6.97e-4,0.183355 0.02418,0.233542 0.07281,0.156774 0.03935,-0.0621 0.05309,-0.183456 0.03053,-0.269685 z m 0.867332,0.455395 c 0.01683,-0.05124 -0.04191,-0.112117 -0.130509,-0.135287 -0.249752,-0.06531 -0.592508,0.02718 -0.592508,0.15991 0,0.146009 0.674534,0.123038 0.723017,-0.02464 z m -0.05918,0.768503 v -0.444878 l -0.68458,0.0283 c -1.54715,0.06397 -3.3754968,0.06525 -3.4385318,0.0024 -0.03705,-0.03694 -0.08021,-0.460595 -0.09593,-0.941463 -0.03606,-1.103261 0.109426,-1.090451 0.19245,0.01694 l 0.05933,0.791314 1.2160708,-0.0053 c 0.668843,-0.0028 1.330543,-0.02523 1.470451,-0.0496 0.226725,-0.03951 0.250508,-0.07069 0.218776,-0.2869 -0.03303,-0.22515 -0.265705,-0.357018 -0.265705,-0.150598 0,0.0555 -0.07852,0.07227 -0.19798,0.04228 -0.149013,-0.0374 -0.20804,-0.01122 -0.238674,0.105932 -0.05354,0.20474 -0.443972,0.140642 -0.502317,-0.08247 -0.04982,-0.190534 -0.388701,-0.217052 -0.388701,-0.03042 0,0.09265 -0.06212,0.1171 -0.228192,0.0898 -0.125506,-0.02063 -0.252154,-0.04058 -0.281432,-0.04433 -0.08014,-0.01028 -0.1395378,-0.305132 -0.2360748,-1.171917 -0.04808,-0.431709 -0.110298,-0.910546 -0.138259,-1.064082 l -0.05084,-0.279156 -0.492469,0.05572 c -0.721267,0.0816 -0.694979,0.05134 -0.672325,0.773911 0.01105,0.352802 -2.4e-5,0.742433 -0.02464,0.865841 -0.04215,0.211343 -0.07456,0.225812 -0.557619,0.24894 l -0.512865,0.02457 -0.01795,0.975006 -0.01798,0.97501 h 2.9429918 2.942993 v -0.444878 z m 2.3941786,0.444495 c 0.883229,-0.04461 2.140054,-0.137207 2.792945,-0.205769 0.652887,-0.06856 1.302519,-0.101572 1.443622,-0.07335 0.244988,0.049 0.254808,0.04056 0.217811,-0.187257 -0.02129,-0.13121 -0.06213,-0.602638 -0.09072,-1.047617 l -0.05198,-0.809051 h -0.561654 -0.561651 l -0.05638,-0.550224 c -0.03101,-0.302622 -0.110684,-0.680218 -0.177068,-0.839096 -0.116692,-0.279285 -0.131032,-0.286568 -0.432218,-0.219477 -0.171336,0.03817 -0.473355,0.06555 -0.671158,0.06086 l -0.359631,-0.0085 0.04236,1.0529 c 0.0405,1.006612 0.0057,1.276276 -0.160488,1.244945 -0.178915,-0.03373 -0.282825,0.01401 -0.282825,0.129917 0,0.08194 -0.08198,0.12447 -0.239943,0.12447 -0.181254,0 -0.251672,-0.04674 -0.287899,-0.19108 -0.04103,-0.163454 -0.09032,-0.186139 -0.340916,-0.156882 -0.161126,0.01882 -0.292956,0.06745 -0.292956,0.108103 0,0.04064 -0.09335,0.0739 -0.2074467,0.0739 -0.114097,0 -0.207448,0.04766 -0.207448,0.105917 0,0.07352 -0.10151,0.09623 -0.3319177,0.07426 -0.182557,-0.01742 -0.331946,-0.05574 -0.331978,-0.08517 -3.1e-5,-0.02945 -0.09338,-0.0589 -0.2074477,-0.06548 -0.114064,-0.0066 -0.207392,0.02049 -0.207392,0.06018 0,0.03968 -0.09578,0.03573 -0.212849,-0.0088 -0.2866757,-0.108991 -0.2850277,-0.109726 -0.2850277,0.126523 0,0.236772 -0.08672,0.224133 1.4488971,0.211204 1.0640477,-0.009 2.8589937,-0.135011 2.9297267,-0.205743 0.02366,-0.02366 0.0014,-0.249822 -0.04931,-0.50261 -0.06472,-0.322265 -0.06652,-0.52743 -0.006,-0.686556 0.118703,-0.312212 0.204577,-0.132858 0.278697,0.582106 0.03192,0.308058 0.09243,0.56011 0.134443,0.56011 0.135855,0 0.08088,0.229451 -0.06873,0.286865 -0.251774,0.09661 -2.003977,0.220961 -3.3400397,0.237033 l -1.2861821,0.01547 -0.02614,0.365183 c -0.02645,0.369633 0.05763,0.503407 0.3165577,0.503703 0.06846,8e-5 0.8471137,-0.03636 1.7303421,-0.08096 z m -6.9036704,4.273379 c 0.256404,-1.715471 0.262039,-1.813865 0.105767,-1.846116 -0.141018,-0.0291 -0.232042,0.348244 -0.455422,1.888054 -0.15701,1.082297 -0.153763,1.263439 0.02202,1.229582 0.115665,-0.02227 0.175772,-0.255544 0.327622,-1.27152 z m 9.0431324,1.473336 c -0.02725,-0.125498 -0.07467,-0.519873 -0.105347,-0.876382 -0.03401,-0.395507 -0.08267,-0.605771 -0.124784,-0.539366 -0.03978,0.06273 -0.06956,-0.198719 -0.07029,-0.617242 -10e-4,-0.683107 -0.01164,-0.726073 -0.176462,-0.726073 -0.153145,0 -0.16875,0.03436 -0.123989,0.272953 0.02816,0.150125 0.0868,0.626219 0.130304,1.057988 0.158181,1.56988 0.176765,1.656321 0.35607,1.656321 0.135688,0 0.155495,-0.03947 0.114494,-0.228192 z m -9.5450274,1.878594 c 0.05077,-0.366522 0.04335,-0.385022 -0.176643,-0.440237 -0.126303,-0.03171 -0.256039,-0.02756 -0.2883,0.0092 -0.03227,0.03675 -0.120714,0.496246 -0.196558,1.021091 -0.07585,0.524846 -0.160425,1.056953 -0.187955,1.182458 -0.03126,0.142577 -0.0153,0.228192 0.0426,0.228192 0.05096,0 0.09266,-0.07247 0.09266,-0.161059 0,-0.205741 0.154156,-0.305501 0.208033,-0.134625 0.12898,0.40907 0.1609,0.361378 0.301933,-0.451129 0.08318,-0.479206 0.175082,-1.043457 0.204231,-1.253884 z m 10.0534594,2.402117 c -0.04936,-0.336284 0.0695,-0.374309 0.225722,-0.07221 0.128272,0.248045 0.291833,0.338114 0.291833,0.160698 0,-0.05002 -0.05174,-0.283404 -0.114988,-0.518622 -0.06324,-0.23521 -0.159155,-0.745057 -0.213133,-1.132988 -0.164973,-1.185573 -0.156707,-1.161863 -0.404546,-1.160442 -0.367019,0.0021 -0.429016,0.08632 -0.343553,0.466679 0.04194,0.186665 0.07267,0.4658 0.06828,0.620302 -0.0082,0.289854 0.126059,1.122273 0.269943,1.673319 0.09483,0.363187 0.274737,0.333211 0.220442,-0.03672 z m -9.9838074,0.248641 c 0.107127,-1.179356 0.310306,-2.619811 0.630108,-4.467118 0.263325,-1.521098 0.470229,-3.111719 0.431476,-3.317104 -0.0041,-0.02168 -0.04013,-0.05032 -0.08009,-0.06363 -0.07342,-0.02446 -0.272933,1.350842 -0.273762,1.887106 -2.79e-4,0.159739 -0.05426,0.439794 -0.120027,0.622348 -0.06577,0.182556 -0.121219,0.490618 -0.123222,0.68458 -0.0024,0.248686 -0.0386,0.352663 -0.122226,0.352663 -0.161785,0 -0.357385,0.906726 -0.214637,0.994949 0.105287,0.06507 0.07992,0.362855 -0.12984,1.524349 -0.06479,0.358743 -0.117794,0.83084 -0.117794,1.049111 0,0.272361 -0.03821,0.411516 -0.121811,0.443596 -0.067,0.02572 -0.142876,0.01265 -0.168618,-0.02899 -0.02575,-0.04165 -0.09518,-0.05717 -0.154306,-0.03446 -0.189474,0.07271 -0.551019,-0.116779 -0.551019,-0.288791 0,-0.112539 -0.07678,-0.178285 -0.253557,-0.217111 -0.332033,-0.07292 -0.309181,-0.342749 0.02603,-0.307375 0.254753,0.02687 0.258381,0.01746 0.392873,-1.019283 0.125456,-0.967072 0.211236,-1.187511 0.444735,-1.142875 0.176793,0.0338 0.196039,-0.0024 0.272549,-0.514478 0.05169,-0.345864 0.05307,-0.56892 0.0037,-0.599422 -0.09835,-0.06078 -0.0088,-1.320514 0.158097,-2.224119 0.229472,-1.242394 0.29444,-1.532259 0.351307,-1.567405 0.03126,-0.01931 0.206082,0.01683 0.38852,0.08031 0.182435,0.06349 0.374073,0.115992 0.425862,0.116678 0.0532,6.97e-4 0.118069,-0.206326 0.149118,-0.475881 0.0778,-0.675482 0.195394,-0.939644 0.4104838,-0.922081 0.09682,0.0079 0.297388,0.0086 0.445714,0.0014 0.250432,-0.01199 0.269682,-0.03363 0.269682,-0.303336 0,-0.217073 -0.03667,-0.293214 -0.145211,-0.301462 -0.07987,-0.0061 -0.8733608,-0.03408 -1.7633158,-0.06223 l -1.618098,-0.0512 -0.02749,-1.187646 c -0.02206,-0.952854 -0.0056,-1.184678 0.08298,-1.172628 0.06077,0.0083 0.297186,0.01059 0.525382,0.0052 l 0.414896,-0.0099 6.97e-4,-0.865192 c 3.48e-4,-0.475857 0.0315,-0.895932 0.06897,-0.9335 0.03748,-0.03757 0.434874,-0.08103 0.883111,-0.09657 l 0.814982,-0.02826 0.05938,0.712848 0.05938,0.712849 h 0.315188 c 0.173797,0 0.334567,0.04653 0.358381,0.103725 0.03143,0.07548 0.07535,0.06418 0.161276,-0.04149 0.145347,-0.178737 0.473198,-0.193111 0.473198,-0.02073 0,0.06846 0.05334,0.12447 0.118543,0.12447 0.0652,0 0.174552,-0.05601 0.243013,-0.12447 0.168882,-0.168882 0.634198,-0.166126 0.634198,0.0038 0,0.102189 0.06319,0.117567 0.311174,0.07573 0.54498,-0.09194 0.601603,-0.123376 0.601603,-0.334022 0,-0.181529 -0.03552,-0.202263 -0.352666,-0.205877 -0.887972,-0.01011 -1.938767,-0.10337 -2.032997,-0.180424 -0.06871,-0.05619 -0.103723,-0.331636 -0.103723,-0.816128 v -0.731409 l -2.0361288,-0.0261 c -1.699852,-0.02178 -2.04911,-0.04665 -2.11471,-0.150556 -0.04322,-0.06846 -0.07915,-0.488542 -0.07985,-0.933521 l -0.0014,-0.809051 h 0.290425 c 0.159739,0 0.290429,-0.04133 0.290429,-0.09186 0,-0.05052 0.05482,-0.07082 0.121812,-0.04511 0.182825,0.07016 0.217006,-0.04358 0.260325,-0.866179 0.05562,-1.05634 0.05413,-1.058981 -0.614751,-1.088392 l -0.55569197,-0.02443 -0.0269,-0.539369 c -0.01478,-0.29665 -0.0024,-0.810086 0.02781,-1.140969 l 0.05471,-0.601599 h 0.62362197 0.623623 l -0.03541,-0.394155 c -0.01948,-0.216783 -0.0072,-1.122298 0.02715,-2.012253 0.127774,-3.305551 0.158537,-5.4040956 0.07849,-5.3546266 -0.106196,0.06563 -0.501843,-0.03766 -0.501843,-0.131014 0,-0.04069 0.130691,-0.07398 0.290426,-0.07398 0.28392,0 0.290778,-0.0079 0.305992,-0.352662 0.0085,-0.193966 0.0222,-0.446015 0.03032,-0.560114 0.0081,-0.114096 0.01969,-0.282129 0.02572,-0.373407 0.01018,-0.153815 0.06013,-0.163959 0.682556,-0.13866 l 0.671572,0.02732 -0.03594,-2.827858 c -0.03234,-2.543039 -0.02265,-2.828931 0.09618,-2.83849 0.362716,-0.02917 0.7243238,-0.04057 1.7709748,-0.05577 l 1.140969,-0.01659 v -0.328719 c 0,-0.313292 -0.01558,-0.332914 -0.331918,-0.418094 -0.378035,-0.101796 -0.387454,-0.139106 -0.182205,-0.721923 0.185725,-0.52738904 0.297267,-0.66423004 0.673475,-0.82621604 0.778194,-0.335075 1.6050713,-0.270169 2.066341,0.162192 0.216007,0.202465 0.480701,0.73362404 0.5252667,1.05402904 0.0239,0.171757 -0.0091,0.211838 -0.1916547,0.232963 -0.200928,0.02324 -0.223032,0.06193 -0.24894,0.435692 l -0.02844,0.410181 1.1785534,-5.2e-5 c 0.716452,-3.2e-5 1.261292,-0.03775 1.389571,-0.0962 0.176145,-0.08026 0.238821,-0.07098 0.379272,0.05612 0.09254,0.08375 0.137245,0.173691 0.09934,0.199872 -0.0379,0.02617 -0.0421,0.458346 -0.0093,0.960373 0.03276,0.502028 0.08343,1.603577 0.112563,2.447893 0.02913,0.84432 0.08039,1.665814 0.113894,1.82555 l 0.06092,0.290429 0.637245,0.07472 0.637244,0.07472 0.0238,0.71359 c 0.01652,0.495811 0.05545,0.716755 0.12752,0.723962 0.05705,0.0057 0.217951,0.01505 0.357562,0.02073 0.367709,0.01502 0.214999,0.1763326 -0.166935,0.1763326 h -0.318202 l 0.07965,0.352662 c 0.0478,0.211616 0.05636,1.082799 0.02143,2.178212 -0.03202,1.004051 -0.0625,2.515984 -0.06772,3.35985 l -0.0095,1.534301 0.601602,-0.02739 0.601603,-0.02736 v 0.868361 c 0,0.477596 -0.0231,0.983944 -0.05137,1.125214 -0.05285,0.264242 -0.100231,0.292802 -0.63583,0.383241 l -0.313791,0.05299 0.05025,1.053737 c 0.05629,1.180569 0.09655,1.261188 0.629791,1.261188 0.30364,0 0.502358,0.119319 0.307107,0.184403 -0.06531,0.02178 -0.09546,0.257607 -0.09064,0.709089 0.006,0.562392 -0.01606,0.683723 -0.130851,0.719486 -0.277351,0.08641 -2.563494,0.295225 -3.233958,0.295385 -0.47338,8.3e-5 -0.672085,0.0283 -0.63398,0.08996 0.03053,0.04939 0.02972,0.364883 -0.0017,0.701094 -0.05578,0.595268 -0.06418,0.613468 -0.320282,0.693927 -0.144651,0.04544 -0.7110887,0.0966 -1.2587554,0.113674 l -0.9957534,0.03105 -0.026,0.263963 c -0.01903,0.193077 0.0081,0.263959 0.101123,0.263959 0.0789,0 0.109005,-0.04721 0.07936,-0.124466 -0.03895,-0.10152 0.03803,-0.12447 0.4175017,-0.12447 0.2558957,0 0.4652637,0.03734 0.4652637,0.08298 0,0.04564 -0.02983,0.08298 -0.06632,0.08298 -0.03648,0 -0.05079,0.133014 -0.03182,0.29559 0.0254,0.217727 0.06653,0.283303 0.156087,0.24894 0.06686,-0.02565 0.137186,-0.04665 0.156275,-0.04665 0.0191,0 0.03471,-0.05601 0.03471,-0.12447 0,-0.06846 -0.05601,-0.12447 -0.1244697,-0.12447 -0.06846,0 -0.12447,-0.03734 -0.12447,-0.08298 0,-0.04564 0.07468,-0.08298 0.165959,-0.08298 0.0922,0 0.1659587,-0.05532 0.1659587,-0.124467 0,-0.0759 0.07734,-0.12447 0.198213,-0.12447 0.160833,0 0.20849,0.05477 0.2527004,0.290429 0.0402,0.214281 0.09701,0.290426 0.216683,0.290426 0.08921,0 0.162199,-0.05601 0.162199,-0.124467 0,-0.06915 -0.07376,-0.12447 -0.165959,-0.12447 -0.2355284,0 -0.206037,-0.152738 0.04149,-0.214863 0.114096,-0.02864 0.207451,-0.08536 0.207451,-0.126053 0,-0.09353 0.390409,-0.09775 0.447833,-0.0048 0.02352,0.03803 0.156401,0.05246 0.295325,0.03206 l 0.252596,-0.03707 v -0.55988 -0.55988 l 0.43564,-0.05233 c 0.239605,-0.02878 0.64904,-0.05265 0.909857,-0.05305 0.578879,-10e-4 0.609398,0.04223 0.690832,0.975786 0.03279,0.375697 0.0921,0.683082 0.13185,0.683082 0.03975,0 0.07227,-0.0331 0.07227,-0.07355 0,-0.04046 0.171918,-0.09934 0.382042,-0.130847 0.459852,-0.06896 0.648911,0.08319 0.666432,0.536321 0.01314,0.339675 0.103632,1.251583 0.162645,1.638845 0.03154,0.207072 0.08357,0.271424 0.224039,0.27717 0.876065,0.03584 -3.16993,0.491103 -4.360187,0.490619 -0.603659,-2.76e-4 -0.605415,0.0014 -0.508247,0.487276 0.04935,0.24678 0.07092,0.259311 0.446226,0.259311 0.222673,0 0.433404,0.04704 0.484033,0.108047 0.04932,0.05942 0.100568,0.442167 0.113887,0.850539 l 0.02422,0.742496 0.466493,0.02457 0.466494,0.02457 0.101475,0.929695 c 0.05581,0.511331 0.116183,1.023046 0.134157,1.137142 0.107688,0.683584 0.133478,1.266767 0.05815,1.315173 -0.04854,0.03119 -0.06725,0.251453 -0.04431,0.521583 0.03916,0.461218 0.04318,0.467439 0.294949,0.456385 l 0.255244,-0.01122 0.151376,0.912776 c 0.08326,0.502024 0.178842,1.080809 0.212406,1.28618 0.05649,0.345638 0.078,0.371633 0.28922,0.349523 0.195269,-0.02045 0.228196,0.0065 0.228196,0.186707 0,0.12962 -0.04673,0.210588 -0.121553,0.210588 -0.06685,0 -0.158049,0.0682 -0.20266,0.151556 -0.07878,0.147205 -0.95474,0.422705 -1.047872,0.32957 -0.0603,-0.0603 -0.413275,-1.545418 -0.557887,-2.347255 -0.127373,-0.706283 -0.09695,-0.996664 0.104423,-0.996664 0.06846,0 0.121355,-0.06535 0.117553,-0.145214 -0.0038,-0.07987 -0.01314,-0.276832 -0.02073,-0.437696 -0.01063,-0.223656 -0.05974,-0.309902 -0.208744,-0.366553 -0.16422,-0.06244 -0.211326,-0.169702 -0.299726,-0.682525 -0.05769,-0.334646 -0.121501,-1.065873 -0.141817,-1.624948 -0.02408,-0.662328 -0.06877,-1.016499 -0.128321,-1.016499 -0.103252,0 -0.03734,2.71027 0.09384,3.858546 0.04171,0.36511 0.08025,1.438657 0.08564,2.385663 0.008,1.412846 -0.01073,1.721824 -0.104631,1.721824 -0.08948,0 -0.125342,-0.254896 -0.16443,-1.168832 -0.02906,-0.679803 -0.08964,-1.216619 -0.144762,-1.283037 -0.06343,-0.07643 -0.117922,-1.014087 -0.164743,-2.834928 -0.03848,-1.496399 -0.106429,-2.888614 -0.151002,-3.093815 -0.05716,-0.263123 -0.05403,-0.389781 0.01063,-0.42973 0.06361,-0.03932 0.06769,-0.153637 0.01335,-0.373727 -0.06185,-0.250411 -0.121934,-0.322259 -0.28576,-0.341689 -0.1141,-0.01352 -0.310139,-0.06474 -0.435644,-0.113793 -0.2269644,-0.0887 -0.2734604,-0.24233 -0.2343794,-0.774378 0.01188,-0.161715 -0.04654,-0.16658 -2.2841907,-0.190303 l -2.296385,-0.02436 0.04674,0.288003 c 0.06874,0.42358 -0.0092,0.647814 -0.203597,0.586103 -0.08755,-0.02777 -0.303664,-0.0261 -0.480262,0.0037 -0.3677898,0.06214 -0.3065008,-0.207657 -0.5051498,2.223729 -0.05888,0.720668 -0.131387,1.270938 -0.161126,1.222817 -0.02972,-0.04811 -0.13706,0.41828 -0.238489,1.036435 -0.101433,0.618152 -0.166064,1.153622 -0.143622,1.189932 0.02244,0.03631 -0.0091,0.287206 -0.07003,0.557546 -0.163363,0.724533 -0.298583,1.710463 -0.363312,2.648999 -0.05445,0.789571 -0.06672,0.831136 -0.253052,0.857505 -0.19467,0.02753 -0.195499,0.02411 -0.140549,-0.580855 z" />
  </g>
</svg>
