<?xml version="1.0" encoding="UTF-8" standalone="no"?>
<svg
   xmlns:dc="http://purl.org/dc/elements/1.1/"
   xmlns:cc="http://creativecommons.org/ns#"
   xmlns:rdf="http://www.w3.org/1999/02/22-rdf-syntax-ns#"
   xmlns:svg="http://www.w3.org/2000/svg"
   xmlns="http://www.w3.org/2000/svg"
   width="407"
   height="100"
   viewBox="0 0 107.68541 26.458334"
   version="1.1"
   id="svg1656">
  <defs
     id="defs1650" />
  <metadata
     id="metadata1653">
    <rdf:RDF>
      <cc:Work
         rdf:about="">
        <dc:format>image/svg+xml</dc:format>
        <dc:type
           rdf:resource="http://purl.org/dc/dcmitype/StillImage" />
        <dc:title></dc:title>
      </cc:Work>
    </rdf:RDF>
  </metadata>
  <g
     id="layer1">
    <path
       id="path1242"
       style="fill:#ffffff;stroke-width:0.0991267"
       d="m 102.95332,0.18587165 -7.908458,0.1196 5.519328,9.48562385 -2.759518,4.4295785 2.536998,2.421723 -5.427538,9.900323 c 3.44609,-0.129199 5.119058,-0.0095 8.566558,-0.09145 l 4.34311,-9.51515 -2.48754,-2.775587 2.51643,-3.029707 -0.033,-0.0285 z m -8.865178,0.2587 -6.184745,0.162949 4.396605,10.71359535 c -1.1752,1.002018 -2.417072,2.952307 -2.417072,2.952307 l 2.067432,2.985562 -5.088274,9.239785 7.704204,0.06965 4.992089,-9.982548 c 0,0 -1.921599,-1.857545 -2.814929,-2.506568 l 2.447329,-3.163972 z m -60.600205,0.07575 -6.184586,0.162949 4.396461,10.71344535 c -1.175191,1.002027 -2.417068,2.952317 -2.417068,2.952317 l 2.067431,2.985557 -5.08828,9.239915 7.704212,0.0697 C 35.558447,23.459964 38.7292,16.633512 38.7292,16.633512 l -2.763382,-2.153679 2.624771,-3.488696 z m 30.122375,0 -6.184728,0.162949 4.396467,10.71344535 c -1.175196,1.002022 -2.416929,2.952317 -2.416929,2.952317 l 1.002341,2.513053 -4.023324,9.712419 7.704339,0.0697 4.909993,-9.818934 -3.028717,-2.552233 2.743208,-3.281901 z m 32.05699,0.118249 6.978958,0.0365 4.69345,10.39421635 -2.59673,3.270306 2.57143,2.639838 -4.13747,9.048991 c -1.13931,0.038 -7.612168,0.183049 -7.612168,0.183049 l 5.300678,-9.574474 -2.669128,-2.483523 2.805938,-4.2077385 z m -74.994778,0.0839 -7.012114,0.201699 -4.6412055,10.26895235 2.5967185,3.270166 -2.5715645,2.639843 4.1376115,9.04912 7.530628,0.254 -5.261015,-9.645374 2.669138,-2.483534 -2.806091,-4.207873 z m -14.5846104,0.021 L 0.48360805,11.595021 2.6021666,14.381783 c -0.262182,0.317249 -2.43489275,2.360609 -2.43489275,2.360609 L 4.7982566,26.381146 12.588553,26.194196 8.1148416,17.331735 10.286751,14.404258 7.5146546,10.586248 12.24859,0.78484065 Z m 44.5527564,0.029 -7.012248,0.201699 -4.674375,10.09829235 2.630023,3.440966 -2.286737,2.147739 3.852783,9.541084 7.530629,0.253999 -4.018628,-9.881698 1.42675,-2.247209 -2.628509,-5.0348005 z m 30.330369,0 -7.012118,0.201549 -4.641203,9.88501835 2.685435,3.536155 -2.593953,2.391369 4.071285,9.415544 7.530628,0.253999 -5.261019,-9.645378 2.669135,-2.483529 -2.806098,-4.207738 z m -54.318593,0.0245 -5.284521,0.07575 -5.423251,9.44353835 2.812861,4.256024 -2.583043,2.233419 4.993606,9.539554 4.56271,0.014 4.938332,-8.941931 -2.338435,-3.138557 2.613859,-3.187671 z m 30.122233,0 -5.28451,0.07575 -5.245675,8.61661585 2.635414,5.0829465 -1.340521,1.997094 3.751084,9.775879 4.562571,0.014 3.873529,-9.414435 -1.273622,-2.665913 2.613854,-3.187811 z m 30.330505,0 -5.284505,0.0759 -5.423276,9.44340335 2.812864,4.256019 -2.58304,2.233419 4.993619,9.539699 4.562703,0.014 4.938315,-8.941926 -2.338415,-3.138557 2.61386,-3.187816 z M 11.815756,1.0124697 7.0527986,10.631493 l 2.7357449,3.7093 -2.3399519,3.021842 4.5747364,8.511497 -6.9457754,0.06275 -4.59781215,-9.19425 c 0,0 1.76977615,-1.710836 2.59257215,-2.308604 L 0.81832445,11.520066 6.2280396,1.0197597 Z m 92.543864,7.9048888 c -1.38565,0.017 -2.83403,1.3094105 -1.6046,2.7831815 1.45296,1.741736 3.53582,-0.0405 3.47012,-0.954812 -0.11478,-1.3258465 -0.97728,-1.8391845 -1.86552,-1.8283695 z m 0.1454,0.341599 c 1.53919,0.0275 1.81528,2.2346585 0.51673,2.6597075 -2.57122,0.571143 -3.39207,-2.3820835 -0.84134,-2.6350125 0.11373,-0.0185 0.22201,-0.0265 0.32459,-0.0245 z M 4.0493836,9.3754075 c -0.750466,10e-4 -1.501792,0.258349 -1.631135,0.6394325 -2.59086295,3.871144 5.700495,3.65191 3.140388,-0.0385 -0.26628,-0.426399 -0.887435,-0.601593 -1.509253,-0.600813 z m 0.03548,0.467148 c 0.827972,-0.009 1.642772,0.3723485 1.519891,1.2130665 -0.102136,-0.024 -0.145908,-0.441249 -0.256338,-0.547838 -0.09924,-0.0991 -0.208416,-0.1164 -0.208416,-0.033 0.09974,0.295249 0.231302,0.510378 0.238247,0.740568 0.06281,2.080599 -3.350608,1.612945 -2.895363,-0.373199 0.03498,-0.638859 0.824174,-0.9912375 1.601979,-0.9995075 z m 100.3901264,0.0989 c -0.048,0 -0.0934,0.0065 -0.13391,0.0185 -0.64895,0.1951995 -0.57023,0.9052925 -0.24819,1.2052065 0.5901,0.549593 1.32286,-0.1421 1.24749,-0.649508 -0.045,-0.30425 -0.52814,-0.5762985 -0.86539,-0.5741785 z m 0.11518,0.1499495 c 0.18708,-0.0021 0.37186,0.0832 0.46226,0.288899 0.27617,0.731483 -0.46136,0.921352 -0.74752,0.627843 -0.54861,-0.487448 -0.12627,-0.912567 0.28522,-0.916732 z M 3.7723106,10.549003 c -0.01549,0 -0.03048,-7e-5 -0.04497,6.85e-4 -0.14246,0.0035 -0.263383,0.03 -0.336636,0.06925 -0.676803,0.360849 -0.120123,1.252727 0.962401,1.161337 0.853476,-0.165149 0.497733,-0.674398 0.143709,-1.003652 -0.22041,-0.163 -0.495185,-0.2249 -0.724298,-0.2272 z m 0.110029,0.26515 c 0.462106,-0.0041 1.015054,0.316249 0.490188,0.670618 -0.458758,0.289649 -1.248599,-0.360199 -0.87866,-0.547694 0.09059,-0.0842 0.234451,-0.121549 0.388452,-0.122949 z" />
  </g>
</svg>
