<?xml version="1.0" encoding="UTF-8" standalone="no"?>
<svg
   xmlns:dc="http://purl.org/dc/elements/1.1/"
   xmlns:cc="http://creativecommons.org/ns#"
   xmlns:rdf="http://www.w3.org/1999/02/22-rdf-syntax-ns#"
   xmlns:svg="http://www.w3.org/2000/svg"
   xmlns="http://www.w3.org/2000/svg"
   xmlns:sodipodi="http://sodipodi.sourceforge.net/DTD/sodipodi-0.dtd"
   xmlns:inkscape="http://www.inkscape.org/namespaces/inkscape"
   width="407"
   height="100"
   viewBox="0 0 107.68541 26.458334"
   version="1.1"
   id="svg1656"
   sodipodi:docname="samolepka_1_hover.svg"
   inkscape:version="1.0.2 (e86c8708, 2021-01-15)">
  <sodipodi:namedview
     pagecolor="#ffffff"
     bordercolor="#666666"
     borderopacity="1"
     objecttolerance="10"
     gridtolerance="10"
     guidetolerance="10"
     inkscape:pageopacity="0"
     inkscape:pageshadow="2"
     inkscape:window-width="1203"
     inkscape:window-height="713"
     id="namedview1941"
     showgrid="false"
     inkscape:zoom="1.4434102"
     inkscape:cx="194.77495"
     inkscape:cy="143.53062"
     inkscape:window-x="0"
     inkscape:window-y="25"
     inkscape:window-maximized="0"
     inkscape:current-layer="svg1656" />
  <defs
     id="defs1650" />
  <metadata
     id="metadata1653">
    <rdf:RDF>
      <cc:Work
         rdf:about="">
        <dc:format>image/svg+xml</dc:format>
        <dc:type
           rdf:resource="http://purl.org/dc/dcmitype/StillImage" />
        <dc:title />
      </cc:Work>
    </rdf:RDF>
  </metadata>
  <path
     id="path1720"
     style="fill:#000000;stroke-width:0.0991274"
     d="m 83.770328,17.837855 c -0.337232,-0.0034 -0.820186,0.269528 -0.865367,0.573545 -0.07536,0.506949 0.657377,1.19808 1.247475,0.648937 0.322026,-0.299654 0.400733,-1.009123 -0.248193,-1.20418 -0.04052,-0.01224 -0.08573,-0.01806 -0.133915,-0.01841 z M 87.801175,6.79053 C 87.463939,6.78713 86.981,7.060193 86.935811,7.364211 c -0.07536,0.506949 0.657415,1.198045 1.247512,0.648937 0.32203,-0.29969 0.40068,-1.009192 -0.248263,-1.204213 -0.04052,-0.01224 -0.08571,-0.01806 -0.133885,-0.01841 z m -0.115047,0.149794 c 0.411499,0.0041 0.833773,0.429 0.285178,0.916043 -0.286125,0.293215 -1.023604,0.103479 -0.747428,-0.627395 0.09041,-0.205553 0.275206,-0.290523 0.46225,-0.288648 z M 81.372643,6.431161 c -0.248751,0.0034 -0.547139,0.06972 -0.786454,0.246555 -0.384355,0.357187 -0.770525,0.909704 0.156096,1.08881 1.175298,0.09912 1.77979,-0.868499 1.044972,-1.25994 -0.07952,-0.04233 -0.210871,-0.07133 -0.36553,-0.07509 -0.01613,0 -0.03249,0 -0.04908,0 z m -0.119491,0.286807 c 0.167236,0 0.323517,0.04209 0.421856,0.133469 0.401645,0.203372 -0.455925,0.908237 -0.954,0.593994 -0.569853,-0.384385 0.03044,-0.731894 0.532144,-0.727463 z m 5.852067,-5.909276 4.292022,10.285202 -2.613795,3.185035 2.3385,3.135822 -4.938314,8.934363 -4.562494,-0.01397 -4.9935,-9.53156 2.582953,-2.231469 -2.812785,-4.252445 5.423034,-9.435447 z m 0.525242,5.104104 c -0.435674,0.0058 -0.896361,0.212131 -1.298206,0.718533 -1.352668,1.704549 2.046352,3.330809 2.85905,1.288943 0.362523,-0.910827 -0.529023,-2.021315 -1.560844,-2.007476 z m -6.221676,-0.4229 c -1.199259,0 -2.42526,0.583396 -1.842147,2.436988 0.262425,0.556061 1.410801,1.459358 2.943656,0.102526 0.447733,-0.396349 0.400191,-2.348373 -0.449661,-2.484227 -0.208592,-0.03548 -0.42976,-0.05535 -0.651848,-0.05528 z m 6.202669,0.869282 c 0.76525,0.0054 1.597542,0.538304 1.251235,1.489043 C 88.399927,9.11876 85.385627,8.466858 86.683346,6.741008 86.87998,6.47949 87.237724,6.35645 87.611454,6.359178 Z M 81.438872,5.923601 c 0,0.304972 0.572558,0.05985 0.714386,0.178081 1.625676,1.355064 -2.282945,4.055206 -2.397642,0.691234 -0.01854,-0.543825 0.892849,-0.857354 1.621581,-0.869043 0.02069,0 0.06168,-0.02079 0.06168,0 z m 1.682235,10.050061 c -1.012592,-0.0052 -2.014886,0.480534 -2.162577,2.397215 -0.12311,1.597393 0.694346,2.022268 1.56712,2.245885 3.130709,0.864067 5.360723,-3.203817 2.246864,-4.307077 -0.432588,-0.153235 -1.043861,-0.332988 -1.651407,-0.336023 z m -0.4142,0.260358 c 0.0333,0 0.06701,0.0037 0.101122,0.0081 7.570554,1.061102 -0.167591,6.845019 -1.490133,2.716878 -0.274664,-0.857354 0.356955,-2.746939 1.389017,-2.725125 z m -59.389384,1.604448 c -0.337236,-0.0034 -0.820189,0.269527 -0.865372,0.573512 -0.07536,0.506949 0.657378,1.198079 1.247478,0.648972 0.322024,-0.299658 0.400731,-1.009123 -0.248195,-1.204181 -0.04053,-0.01224 -0.08573,-0.01806 -0.133911,-0.01841 z M 27.348366,6.791143 c -0.337232,-0.0034 -0.820175,0.269663 -0.865366,0.573648 -0.07535,0.506947 0.657416,1.198079 1.247513,0.648937 0.322031,-0.299657 0.40068,-1.009192 -0.248257,-1.204214 -0.04053,-0.01224 -0.08571,-0.01806 -0.13389,-0.01841 z m -0.115044,0.149793 c 0.411498,0.0041 0.833771,0.428968 0.285174,0.916011 C 27.232375,8.150195 26.494894,7.960426 26.77107,7.229584 26.86148,7.024031 27.046275,6.939029 27.233322,6.940936 Z M 20.919839,6.43174 c -0.24875,0.0034 -0.547138,0.06977 -0.786457,0.246589 -0.384355,0.357188 -0.770524,0.90967 0.156102,1.088775 1.175291,0.09915 1.779787,-0.868463 1.044969,-1.259939 -0.07952,-0.04233 -0.210874,-0.07133 -0.365531,-0.07509 -0.01612,0 -0.03248,0 -0.04908,0 z m -0.119491,0.286807 c 0.167237,0 0.323517,0.04209 0.421857,0.133469 0.401645,0.20337 -0.455923,0.908238 -0.953999,0.594029 -0.569854,-0.384387 0.03044,-0.731929 0.532142,-0.727498 z m 5.852068,-5.909242 4.292023,10.2852 -2.613793,3.185006 2.338499,3.135854 -4.938315,8.934329 -4.562497,-0.01398 -4.993498,-9.531561 2.582955,-2.231468 -2.812789,-4.252443 5.423037,-9.435482 z m 0.52524,5.104104 c -0.435671,0.0058 -0.896354,0.212131 -1.298204,0.7185 -1.352668,1.704582 2.046351,3.330844 2.859052,1.288943 0.362522,-0.91083 -0.529023,-2.021281 -1.560848,-2.007443 z M 20.955984,5.49051 c -1.199261,0 -2.425264,0.583361 -1.842148,2.436988 0.262424,0.556061 1.410799,1.459357 2.943656,0.102486 0.447732,-0.396314 0.40019,-2.348373 -0.449661,-2.484227 -0.208594,-0.03545 -0.42976,-0.055314 -0.651847,-0.055249 z m 6.202667,0.869247 c 0.76525,0.0054 1.597546,0.538305 1.251241,1.489044 -0.462766,1.270572 -3.477066,0.618671 -2.17935,-1.10718 0.196635,-0.261551 0.55438,-0.384556 0.928109,-0.381864 z M 20.986069,5.924213 c 0,0.304974 0.572564,0.05985 0.714386,0.178049 1.625677,1.355064 -2.282945,4.055239 -2.397637,0.691268 -0.01854,-0.543825 0.892844,-0.857353 1.621578,-0.869078 0.02069,0 0.06167,-0.02079 0.06167,0 z m 1.682238,10.050064 c -1.012593,-0.0052 -2.01489,0.480533 -2.162581,2.397212 -0.1231,1.597392 0.694345,2.022269 1.56712,2.245853 3.13071,0.864102 5.360723,-3.203783 2.246868,-4.307043 -0.432593,-0.15327 -1.043861,-0.33299 -1.651407,-0.336022 z m -0.414201,0.260358 c 0.0333,0 0.06701,0.0037 0.101117,0.0083 7.570556,1.061133 -0.167589,6.845051 -1.490131,2.716909 -0.274666,-0.857353 0.356956,-2.746937 1.389014,-2.725123 z m 80.699234,-16.039877 -7.908461,0.11953 5.519311,9.479585 -2.759522,4.426774 2.537022,2.420188 -5.427547,9.894064 c 3.446077,-0.129104 5.119047,-0.0092 8.566557,-0.09141 l 4.34311,-9.509137 -2.48754,-2.773826 2.51642,-3.027782 -0.0332,-0.02829 z m -8.8652,0.258484 -6.184726,0.162848 4.396596,10.706772 c -1.175192,1.001385 -2.417067,2.950445 -2.417067,2.950445 l 2.06743,2.983675 -5.088274,9.233952 7.704201,0.06959 4.992088,-9.976236 c 0,0 -1.921594,-1.856355 -2.814935,-2.504952 l 2.447331,-3.161962 z m -60.600198,0.07569 -6.184586,0.162848 4.396462,10.706633 c -1.175195,1.001388 -2.417069,2.950445 -2.417069,2.950445 l 2.067432,2.983679 -5.088279,9.23405 7.704208,0.06963 c 1.592342,-3.182207 4.763095,-10.004358 4.763095,-10.004358 l -2.763385,-2.152294 2.624773,-3.486498 z m 30.122378,0 -6.184728,0.162848 4.39646,10.706633 c -1.175193,1.001388 -2.416925,2.950445 -2.416925,2.950445 l 1.002339,2.51146 -4.023326,9.706269 7.704344,0.06963 4.909995,-9.812709 -3.028714,-2.550619 2.743204,-3.279822 z m 32.056993,0.118164 6.978947,0.03626 4.69345,10.387618 -2.59672,3.268236 2.57143,2.638145 -4.13748,9.043256 c -1.1393,0.03784 -7.612168,0.182954 -7.612168,0.182954 l 5.300688,-9.568404 -2.669143,-2.481943 2.805953,-4.205068 z m -74.994785,0.08381 -7.012117,0.201566 -4.6412048,10.262432 2.5967208,3.268099 -2.5715641,2.63818 4.1376111,9.043391 7.530631,0.253816 -5.261021,-9.639264 2.66914,-2.481978 -2.806091,-4.205203 z m -14.5846127,0.02113 -5.6043033,10.84467 2.11856,2.785008 c -0.262199,0.317039 -2.434893,2.35911 -2.434893,2.35911 L 4.798256,26.373473 12.588558,26.186665 8.1148432,17.329807 10.286752,14.404173 7.5146554,10.588604 12.248592,0.793413 Z m 44.5527587,0.02897 -7.012251,0.201566 -4.674373,10.091882 2.630029,3.438783 -2.286744,2.146401 3.852789,9.535036 7.530627,0.253814 -4.018628,-9.875457 1.426746,-2.245783 -2.628507,-5.031575 z m 30.330365,0 -7.012114,0.201429 -4.641208,9.878763 2.685443,3.533908 -2.593961,2.389854 4.071286,9.409577 7.530632,0.253816 -5.261017,-9.639264 2.66913,-2.481943 -2.806089,-4.205068 z m -24.196354,0.02453 -5.284512,0.07569 -5.245677,8.611155 2.635414,5.079735 -1.340514,1.995819 3.751079,9.769699 4.562571,0.01398 3.873528,-9.408488 -1.273625,-2.664218 2.613861,-3.185786 z M 11.815758,1.020906 7.0528026,10.633823 9.7885473,14.340772 7.4485961,17.36071 12.023329,25.86679 5.077554,25.9295 0.479742,16.741083 c 0,0 1.769777,-1.709729 2.592572,-2.307133 L 0.818327,11.521848 6.2280397,1.028197 Z m 92.543872,7.899887 c -1.38565,0.01704 -2.83404,1.308575 -1.6046,2.781395 1.45296,1.740643 3.53581,-0.04056 3.47012,-0.95418 -0.11478,-1.325006 -0.97728,-1.838018 -1.86552,-1.827215 z m 0.14538,0.341374 c 1.53918,0.0276 1.81529,2.233242 0.51672,2.658016 -2.5712,0.570784 -3.39205,-2.380583 -0.84134,-2.633341 0.11374,-0.01875 0.22201,-0.02659 0.32462,-0.02454 z M 4.049369,9.378528 c -0.750469,0 -1.501793,0.258177 -1.631139,0.639019 -2.59086,3.868704 5.7004984,3.649586 3.140387,-0.03859 C 5.292331,9.55282 4.671186,9.377737 4.049369,9.378521 Z m 0.03537,0.466832 c 0.827973,-0.0089 1.642773,0.372083 1.519891,1.212291 -0.102152,-0.02421 -0.145894,-0.440962 -0.25636,-0.547507 -0.09924,-0.09901 -0.2084,-0.11632 -0.2084,-0.03305 0.09975,0.295053 0.231321,0.510082 0.238253,0.740108 0.06281,2.07929 -3.350605,1.611911 -2.895361,-0.372934 0.03481,-0.638474 0.824173,-0.990619 1.601977,-0.9989 z M 104.47488,9.9442 c -0.0482,0 -0.0934,0.0062 -0.13392,0.01841 -0.64895,0.195089 -0.57024,0.904728 -0.2482,1.204453 0.59011,0.549243 1.32286,-0.142023 1.24751,-0.649109 -0.0452,-0.304053 -0.52815,-0.575931 -0.86539,-0.573818 z m 0.11512,0.149863 c 0.18705,-0.0034 0.37185,0.08313 0.46227,0.288716 0.27618,0.731007 -0.46139,0.92078 -0.74751,0.627429 -0.54861,-0.487112 -0.12625,-0.911989 0.28524,-0.916145 z M 3.772138,10.551384 c -0.01527,0 -0.03034,-6.7e-5 -0.04519,0 -0.142439,0.0034 -0.263399,0.03034 -0.336646,0.06923 -0.676803,0.360596 -0.120096,1.25193 0.9624,1.160587 C 5.206179,11.616172 4.850433,11.107248 4.496429,10.778177 4.276002,10.615296 4.00126,10.553471 3.772135,10.551118 Z m 0.11001,0.264995 c 0.462106,-0.0041 1.015057,0.316049 0.490189,0.670204 -0.45875,0.289432 -1.248596,-0.360017 -0.878657,-0.547369 0.09057,-0.08416 0.234437,-0.121475 0.388468,-0.12284 z" />
</svg>
